<?xml version="1.0" standalone="yes"?>
<svg xmlns="http://www.w3.org/2000/svg" width="156.875cm" height="6.75cm" >
<rect x="2.5cm" y="2.5cm" width="1.125cm" height="1.125cm" fill="#871fa3" stroke-width="5" />
<circle cx="3.0625cm" cy="3.0625cm" r="0.225cm" />
<rect x="4.125cm" y="2.5cm" width="1.125cm" height="1.125cm" fill="#ffffff" stroke-width="5" />
<circle cx="4.6875cm" cy="3.0625cm" r="0.225cm" />
<rect x="5.75cm" y="2.5cm" width="1.125cm" height="1.125cm" fill="#000" stroke-width="5" />
<circle cx="6.3125cm" cy="3.0625cm" r="0.225cm" />
<rect x="7.375cm" y="2.5cm" width="1.125cm" height="1.125cm" fill="#000" stroke-width="5" />
<circle cx="7.9375cm" cy="3.0625cm" r="0.225cm" />
<rect x="9cm" y="2.5cm" width="1.125cm" height="1.125cm" fill="#ffffff" stroke-width="5" />
<circle cx="9.5625cm" cy="3.0625cm" r="0.225cm" />
<rect x="10.625cm" y="2.5cm" width="1.125cm" height="1.125cm" fill="#fc7166" stroke-width="5" />
<circle cx="11.1875cm" cy="3.0625cm" r="0.225cm" />
<rect x="12.25cm" y="2.5cm" width="1.125cm" height="1.125cm" fill="#ffffff" stroke-width="5" />
<circle cx="12.8125cm" cy="3.0625cm" r="0.225cm" />
<rect x="13.875cm" y="2.5cm" width="1.125cm" height="1.125cm" fill="#170b1" stroke-width="5" />
<circle cx="14.4375cm" cy="3.0625cm" r="0.225cm" />
<rect x="15.5cm" y="2.5cm" width="1.125cm" height="1.125cm" fill="#000" stroke-width="5" />
<circle cx="16.0625cm" cy="3.0625cm" r="0.225cm" />
<rect x="17.125cm" y="2.5cm" width="1.125cm" height="1.125cm" fill="#000" stroke-width="5" />
<circle cx="17.6875cm" cy="3.0625cm" r="0.225cm" />
<rect x="18.75cm" y="2.5cm" width="1.125cm" height="1.125cm" fill="#000" stroke-width="5" />
<circle cx="19.3125cm" cy="3.0625cm" r="0.225cm" />
<rect x="20.375cm" y="2.5cm" width="1.125cm" height="1.125cm" fill="#b7653d" stroke-width="5" />
<circle cx="20.9375cm" cy="3.0625cm" r="0.225cm" />
<rect x="22cm" y="2.5cm" width="1.125cm" height="1.125cm" fill="#ffffff" stroke-width="5" />
<circle cx="22.5625cm" cy="3.0625cm" r="0.225cm" />
<rect x="23.625cm" y="2.5cm" width="1.125cm" height="1.125cm" fill="#ffffff" stroke-width="5" />
<circle cx="24.1875cm" cy="3.0625cm" r="0.225cm" />
<rect x="25.25cm" y="2.5cm" width="1.125cm" height="1.125cm" fill="#ffffff" stroke-width="5" />
<circle cx="25.8125cm" cy="3.0625cm" r="0.225cm" />
<rect x="26.875cm" y="2.5cm" width="1.125cm" height="1.125cm" fill="#8ea557" stroke-width="5" />
<circle cx="27.4375cm" cy="3.0625cm" r="0.225cm" />
<rect x="28.5cm" y="2.5cm" width="1.125cm" height="1.125cm" fill="#ffffff" stroke-width="5" />
<circle cx="29.0625cm" cy="3.0625cm" r="0.225cm" />
<rect x="30.125cm" y="2.5cm" width="1.125cm" height="1.125cm" fill="#000" stroke-width="5" />
<circle cx="30.6875cm" cy="3.0625cm" r="0.225cm" />
<rect x="31.75cm" y="2.5cm" width="1.125cm" height="1.125cm" fill="#ffffff" stroke-width="5" />
<circle cx="32.3125cm" cy="3.0625cm" r="0.225cm" />
<rect x="33.375cm" y="2.5cm" width="1.125cm" height="1.125cm" fill="#ffffff" stroke-width="5" />
<circle cx="33.9375cm" cy="3.0625cm" r="0.225cm" />
<rect x="35cm" y="2.5cm" width="1.125cm" height="1.125cm" fill="#a484d5" stroke-width="5" />
<circle cx="35.5625cm" cy="3.0625cm" r="0.225cm" />
<rect x="36.625cm" y="2.5cm" width="1.125cm" height="1.125cm" fill="#000" stroke-width="5" />
<circle cx="37.1875cm" cy="3.0625cm" r="0.225cm" />
<rect x="38.25cm" y="2.5cm" width="1.125cm" height="1.125cm" fill="#ffffff" stroke-width="5" />
<circle cx="38.8125cm" cy="3.0625cm" r="0.225cm" />
<rect x="39.875cm" y="2.5cm" width="1.125cm" height="1.125cm" fill="#944cc" stroke-width="5" />
<circle cx="40.4375cm" cy="3.0625cm" r="0.225cm" />
<rect x="41.5cm" y="2.5cm" width="1.125cm" height="1.125cm" fill="#4c7567" stroke-width="5" />
<circle cx="42.0625cm" cy="3.0625cm" r="0.225cm" />
<rect x="43.125cm" y="2.5cm" width="1.125cm" height="1.125cm" fill="#ffffff" stroke-width="5" />
<circle cx="43.6875cm" cy="3.0625cm" r="0.225cm" />
<rect x="44.75cm" y="2.5cm" width="1.125cm" height="1.125cm" fill="#ffffff" stroke-width="5" />
<circle cx="45.3125cm" cy="3.0625cm" r="0.225cm" />
<rect x="46.375cm" y="2.5cm" width="1.125cm" height="1.125cm" fill="#ffffff" stroke-width="5" />
<circle cx="46.9375cm" cy="3.0625cm" r="0.225cm" />
<rect x="48cm" y="2.5cm" width="1.125cm" height="1.125cm" fill="#000" stroke-width="5" />
<circle cx="48.5625cm" cy="3.0625cm" r="0.225cm" />
<rect x="49.625cm" y="2.5cm" width="1.125cm" height="1.125cm" fill="#ffffff" stroke-width="5" />
<circle cx="50.1875cm" cy="3.0625cm" r="0.225cm" />
<rect x="51.25cm" y="2.5cm" width="1.125cm" height="1.125cm" fill="#ffffff" stroke-width="5" />
<circle cx="51.8125cm" cy="3.0625cm" r="0.225cm" />
<rect x="52.875cm" y="2.5cm" width="1.125cm" height="1.125cm" fill="#000" stroke-width="5" />
<circle cx="53.4375cm" cy="3.0625cm" r="0.225cm" />
<rect x="54.5cm" y="2.5cm" width="1.125cm" height="1.125cm" fill="#ffffff" stroke-width="5" />
<circle cx="55.0625cm" cy="3.0625cm" r="0.225cm" />
<rect x="56.125cm" y="2.5cm" width="1.125cm" height="1.125cm" fill="#ffffff" stroke-width="5" />
<circle cx="56.6875cm" cy="3.0625cm" r="0.225cm" />
<rect x="57.75cm" y="2.5cm" width="1.125cm" height="1.125cm" fill="#ffffff" stroke-width="5" />
<circle cx="58.3125cm" cy="3.0625cm" r="0.225cm" />
<rect x="59.375cm" y="2.5cm" width="1.125cm" height="1.125cm" fill="#e2cb60" stroke-width="5" />
<circle cx="59.9375cm" cy="3.0625cm" r="0.225cm" />
<rect x="61cm" y="2.5cm" width="1.125cm" height="1.125cm" fill="#000" stroke-width="5" />
<circle cx="61.5625cm" cy="3.0625cm" r="0.225cm" />
<rect x="62.625cm" y="2.5cm" width="1.125cm" height="1.125cm" fill="#000" stroke-width="5" />
<circle cx="63.1875cm" cy="3.0625cm" r="0.225cm" />
<rect x="64.25cm" y="2.5cm" width="1.125cm" height="1.125cm" fill="#debb4f" stroke-width="5" />
<circle cx="64.8125cm" cy="3.0625cm" r="0.225cm" />
<rect x="65.875cm" y="2.5cm" width="1.125cm" height="1.125cm" fill="#144cb" stroke-width="5" />
<circle cx="66.4375cm" cy="3.0625cm" r="0.225cm" />
<rect x="67.5cm" y="2.5cm" width="1.125cm" height="1.125cm" fill="#f39dc5" stroke-width="5" />
<circle cx="68.0625cm" cy="3.0625cm" r="0.225cm" />
<rect x="69.125cm" y="2.5cm" width="1.125cm" height="1.125cm" fill="#000" stroke-width="5" />
<circle cx="69.6875cm" cy="3.0625cm" r="0.225cm" />
<rect x="70.75cm" y="2.5cm" width="1.125cm" height="1.125cm" fill="#000" stroke-width="5" />
<circle cx="71.3125cm" cy="3.0625cm" r="0.225cm" />
<rect x="72.375cm" y="2.5cm" width="1.125cm" height="1.125cm" fill="#000" stroke-width="5" />
<circle cx="72.9375cm" cy="3.0625cm" r="0.225cm" />
<rect x="74cm" y="2.5cm" width="1.125cm" height="1.125cm" fill="#000" stroke-width="5" />
<circle cx="74.5625cm" cy="3.0625cm" r="0.225cm" />
<rect x="75.625cm" y="2.5cm" width="1.125cm" height="1.125cm" fill="#000" stroke-width="5" />
<circle cx="76.1875cm" cy="3.0625cm" r="0.225cm" />
<rect x="77.25cm" y="2.5cm" width="1.125cm" height="1.125cm" fill="#000" stroke-width="5" />
<circle cx="77.8125cm" cy="3.0625cm" r="0.225cm" />
<rect x="78.875cm" y="2.5cm" width="1.125cm" height="1.125cm" fill="#000" stroke-width="5" />
<circle cx="79.4375cm" cy="3.0625cm" r="0.225cm" />
<rect x="80.5cm" y="2.5cm" width="1.125cm" height="1.125cm" fill="#000" stroke-width="5" />
<circle cx="81.0625cm" cy="3.0625cm" r="0.225cm" />
<rect x="82.125cm" y="2.5cm" width="1.125cm" height="1.125cm" fill="#000" stroke-width="5" />
<circle cx="82.6875cm" cy="3.0625cm" r="0.225cm" />
<rect x="83.75cm" y="2.5cm" width="1.125cm" height="1.125cm" fill="#c16f98" stroke-width="5" />
<circle cx="84.3125cm" cy="3.0625cm" r="0.225cm" />
<rect x="85.375cm" y="2.5cm" width="1.125cm" height="1.125cm" fill="#000" stroke-width="5" />
<circle cx="85.9375cm" cy="3.0625cm" r="0.225cm" />
<rect x="87cm" y="2.5cm" width="1.125cm" height="1.125cm" fill="#16fc5a" stroke-width="5" />
<circle cx="87.5625cm" cy="3.0625cm" r="0.225cm" />
<rect x="88.625cm" y="2.5cm" width="1.125cm" height="1.125cm" fill="#ffffff" stroke-width="5" />
<circle cx="89.1875cm" cy="3.0625cm" r="0.225cm" />
<rect x="90.25cm" y="2.5cm" width="1.125cm" height="1.125cm" fill="#ffffff" stroke-width="5" />
<circle cx="90.8125cm" cy="3.0625cm" r="0.225cm" />
<rect x="91.875cm" y="2.5cm" width="1.125cm" height="1.125cm" fill="#000" stroke-width="5" />
<circle cx="92.4375cm" cy="3.0625cm" r="0.225cm" />
<rect x="93.5cm" y="2.5cm" width="1.125cm" height="1.125cm" fill="#ffffff" stroke-width="5" />
<circle cx="94.0625cm" cy="3.0625cm" r="0.225cm" />
<rect x="95.125cm" y="2.5cm" width="1.125cm" height="1.125cm" fill="#62709" stroke-width="5" />
<circle cx="95.6875cm" cy="3.0625cm" r="0.225cm" />
<rect x="96.75cm" y="2.5cm" width="1.125cm" height="1.125cm" fill="#ffffff" stroke-width="5" />
<circle cx="97.3125cm" cy="3.0625cm" r="0.225cm" />
<rect x="98.375cm" y="2.5cm" width="1.125cm" height="1.125cm" fill="#ffffff" stroke-width="5" />
<circle cx="98.9375cm" cy="3.0625cm" r="0.225cm" />
<rect x="100cm" y="2.5cm" width="1.125cm" height="1.125cm" fill="#9e6320" stroke-width="5" />
<circle cx="100.562cm" cy="3.0625cm" r="0.225cm" />
<rect x="101.625cm" y="2.5cm" width="1.125cm" height="1.125cm" fill="#ffffff" stroke-width="5" />
<circle cx="102.188cm" cy="3.0625cm" r="0.225cm" />
<rect x="103.25cm" y="2.5cm" width="1.125cm" height="1.125cm" fill="#ffffff" stroke-width="5" />
<circle cx="103.812cm" cy="3.0625cm" r="0.225cm" />
<rect x="104.875cm" y="2.5cm" width="1.125cm" height="1.125cm" fill="#ffffff" stroke-width="5" />
<circle cx="105.438cm" cy="3.0625cm" r="0.225cm" />
<rect x="106.5cm" y="2.5cm" width="1.125cm" height="1.125cm" fill="#ffffff" stroke-width="5" />
<circle cx="107.062cm" cy="3.0625cm" r="0.225cm" />
<rect x="108.125cm" y="2.5cm" width="1.125cm" height="1.125cm" fill="#ffffff" stroke-width="5" />
<circle cx="108.688cm" cy="3.0625cm" r="0.225cm" />
<rect x="109.75cm" y="2.5cm" width="1.125cm" height="1.125cm" fill="#ffffff" stroke-width="5" />
<circle cx="110.312cm" cy="3.0625cm" r="0.225cm" />
<rect x="111.375cm" y="2.5cm" width="1.125cm" height="1.125cm" fill="#ffffff" stroke-width="5" />
<circle cx="111.938cm" cy="3.0625cm" r="0.225cm" />
<rect x="113cm" y="2.5cm" width="1.125cm" height="1.125cm" fill="#ffffff" stroke-width="5" />
<circle cx="113.562cm" cy="3.0625cm" r="0.225cm" />
<rect x="114.625cm" y="2.5cm" width="1.125cm" height="1.125cm" fill="#91f08d" stroke-width="5" />
<circle cx="115.188cm" cy="3.0625cm" r="0.225cm" />
<rect x="116.25cm" y="2.5cm" width="1.125cm" height="1.125cm" fill="#24835" stroke-width="5" />
<circle cx="116.812cm" cy="3.0625cm" r="0.225cm" />
<rect x="117.875cm" y="2.5cm" width="1.125cm" height="1.125cm" fill="#000" stroke-width="5" />
<circle cx="118.438cm" cy="3.0625cm" r="0.225cm" />
<rect x="119.5cm" y="2.5cm" width="1.125cm" height="1.125cm" fill="#000" stroke-width="5" />
<circle cx="120.062cm" cy="3.0625cm" r="0.225cm" />
<rect x="121.125cm" y="2.5cm" width="1.125cm" height="1.125cm" fill="#816144" stroke-width="5" />
<circle cx="121.688cm" cy="3.0625cm" r="0.225cm" />
<rect x="122.75cm" y="2.5cm" width="1.125cm" height="1.125cm" fill="#000" stroke-width="5" />
<circle cx="123.312cm" cy="3.0625cm" r="0.225cm" />
<rect x="124.375cm" y="2.5cm" width="1.125cm" height="1.125cm" fill="#eb7f49" stroke-width="5" />
<circle cx="124.938cm" cy="3.0625cm" r="0.225cm" />
<rect x="126cm" y="2.5cm" width="1.125cm" height="1.125cm" fill="#ffffff" stroke-width="5" />
<circle cx="126.562cm" cy="3.0625cm" r="0.225cm" />
<rect x="127.625cm" y="2.5cm" width="1.125cm" height="1.125cm" fill="#ffffff" stroke-width="5" />
<circle cx="128.188cm" cy="3.0625cm" r="0.225cm" />
<rect x="129.25cm" y="2.5cm" width="1.125cm" height="1.125cm" fill="#29f979" stroke-width="5" />
<circle cx="129.812cm" cy="3.0625cm" r="0.225cm" />
<rect x="130.875cm" y="2.5cm" width="1.125cm" height="1.125cm" fill="#8313c8" stroke-width="5" />
<circle cx="131.438cm" cy="3.0625cm" r="0.225cm" />
<rect x="132.5cm" y="2.5cm" width="1.125cm" height="1.125cm" fill="#000" stroke-width="5" />
<circle cx="133.062cm" cy="3.0625cm" r="0.225cm" />
<rect x="134.125cm" y="2.5cm" width="1.125cm" height="1.125cm" fill="#e2cb60" stroke-width="5" />
<circle cx="134.688cm" cy="3.0625cm" r="0.225cm" />
<rect x="135.75cm" y="2.5cm" width="1.125cm" height="1.125cm" fill="#ffffff" stroke-width="5" />
<circle cx="136.312cm" cy="3.0625cm" r="0.225cm" />
<rect x="137.375cm" y="2.5cm" width="1.125cm" height="1.125cm" fill="#000" stroke-width="5" />
<circle cx="137.938cm" cy="3.0625cm" r="0.225cm" />
<rect x="139cm" y="2.5cm" width="1.125cm" height="1.125cm" fill="#ffffff" stroke-width="5" />
<circle cx="139.562cm" cy="3.0625cm" r="0.225cm" />
<rect x="140.625cm" y="2.5cm" width="1.125cm" height="1.125cm" fill="#ffffff" stroke-width="5" />
<circle cx="141.188cm" cy="3.0625cm" r="0.225cm" />
<rect x="142.25cm" y="2.5cm" width="1.125cm" height="1.125cm" fill="#34fefb" stroke-width="5" />
<circle cx="142.812cm" cy="3.0625cm" r="0.225cm" />
<rect x="143.875cm" y="2.5cm" width="1.125cm" height="1.125cm" fill="#c16f98" stroke-width="5" />
<circle cx="144.438cm" cy="3.0625cm" r="0.225cm" />
<rect x="145.5cm" y="2.5cm" width="1.125cm" height="1.125cm" fill="#000" stroke-width="5" />
<circle cx="146.062cm" cy="3.0625cm" r="0.225cm" />
<rect x="147.125cm" y="2.5cm" width="1.125cm" height="1.125cm" fill="#000" stroke-width="5" />
<circle cx="147.688cm" cy="3.0625cm" r="0.225cm" />
<rect x="148.75cm" y="2.5cm" width="1.125cm" height="1.125cm" fill="#000" stroke-width="5" />
<circle cx="149.312cm" cy="3.0625cm" r="0.225cm" />
<rect x="150.375cm" y="2.5cm" width="1.125cm" height="1.125cm" fill="#b4ac5f" stroke-width="5" />
<circle cx="150.938cm" cy="3.0625cm" r="0.225cm" />
<rect x="152cm" y="2.5cm" width="1.125cm" height="1.125cm" fill="#000" stroke-width="5" />
<circle cx="152.562cm" cy="3.0625cm" r="0.225cm" />
<rect x="153.625cm" y="2.5cm" width="1.125cm" height="1.125cm" fill="#000" stroke-width="5" />
<circle cx="154.188cm" cy="3.0625cm" r="0.225cm" />
<rect x="155.25cm" y="2.5cm" width="1.125cm" height="1.125cm" fill="#c072b0" stroke-width="5" />
<circle cx="155.812cm" cy="3.0625cm" r="0.225cm" />
<rect x="2.5cm" y="4.625cm" width="1.125cm" height="1.125cm" fill="#871fa3" stroke-width="5" />
<circle cx="3.0625cm" cy="5.1875cm" r="0.225cm" />
<rect x="4.125cm" y="4.625cm" width="1.125cm" height="1.125cm" fill="#000" stroke-width="5" />
<circle cx="4.6875cm" cy="5.1875cm" r="0.225cm" />
<rect x="5.75cm" y="4.625cm" width="1.125cm" height="1.125cm" fill="#000" stroke-width="5" />
<circle cx="6.3125cm" cy="5.1875cm" r="0.225cm" />
<rect x="7.375cm" y="4.625cm" width="1.125cm" height="1.125cm" fill="#000" stroke-width="5" />
<circle cx="7.9375cm" cy="5.1875cm" r="0.225cm" />
<rect x="9cm" y="4.625cm" width="1.125cm" height="1.125cm" fill="#000" stroke-width="5" />
<circle cx="9.5625cm" cy="5.1875cm" r="0.225cm" />
<rect x="10.625cm" y="4.625cm" width="1.125cm" height="1.125cm" fill="#62709" stroke-width="5" />
<circle cx="11.1875cm" cy="5.1875cm" r="0.225cm" />
<rect x="12.25cm" y="4.625cm" width="1.125cm" height="1.125cm" fill="#000" stroke-width="5" />
<circle cx="12.8125cm" cy="5.1875cm" r="0.225cm" />
<rect x="13.875cm" y="4.625cm" width="1.125cm" height="1.125cm" fill="#170b1" stroke-width="5" />
<circle cx="14.4375cm" cy="5.1875cm" r="0.225cm" />
<rect x="15.5cm" y="4.625cm" width="1.125cm" height="1.125cm" fill="#ffffff" stroke-width="5" />
<circle cx="16.0625cm" cy="5.1875cm" r="0.225cm" />
<rect x="17.125cm" y="4.625cm" width="1.125cm" height="1.125cm" fill="#000" stroke-width="5" />
<circle cx="17.6875cm" cy="5.1875cm" r="0.225cm" />
<rect x="18.75cm" y="4.625cm" width="1.125cm" height="1.125cm" fill="#ffffff" stroke-width="5" />
<circle cx="19.3125cm" cy="5.1875cm" r="0.225cm" />
<rect x="20.375cm" y="4.625cm" width="1.125cm" height="1.125cm" fill="#b7653d" stroke-width="5" />
<circle cx="20.9375cm" cy="5.1875cm" r="0.225cm" />
<rect x="22cm" y="4.625cm" width="1.125cm" height="1.125cm" fill="#000" stroke-width="5" />
<circle cx="22.5625cm" cy="5.1875cm" r="0.225cm" />
<rect x="23.625cm" y="4.625cm" width="1.125cm" height="1.125cm" fill="#000" stroke-width="5" />
<circle cx="24.1875cm" cy="5.1875cm" r="0.225cm" />
<rect x="25.25cm" y="4.625cm" width="1.125cm" height="1.125cm" fill="#000" stroke-width="5" />
<circle cx="25.8125cm" cy="5.1875cm" r="0.225cm" />
<rect x="26.875cm" y="4.625cm" width="1.125cm" height="1.125cm" fill="#8ea557" stroke-width="5" />
<circle cx="27.4375cm" cy="5.1875cm" r="0.225cm" />
<rect x="28.5cm" y="4.625cm" width="1.125cm" height="1.125cm" fill="#000" stroke-width="5" />
<circle cx="29.0625cm" cy="5.1875cm" r="0.225cm" />
<rect x="30.125cm" y="4.625cm" width="1.125cm" height="1.125cm" fill="#000" stroke-width="5" />
<circle cx="30.6875cm" cy="5.1875cm" r="0.225cm" />
<rect x="31.75cm" y="4.625cm" width="1.125cm" height="1.125cm" fill="#000" stroke-width="5" />
<circle cx="32.3125cm" cy="5.1875cm" r="0.225cm" />
<rect x="33.375cm" y="4.625cm" width="1.125cm" height="1.125cm" fill="#000" stroke-width="5" />
<circle cx="33.9375cm" cy="5.1875cm" r="0.225cm" />
<rect x="35cm" y="4.625cm" width="1.125cm" height="1.125cm" fill="#a484d5" stroke-width="5" />
<circle cx="35.5625cm" cy="5.1875cm" r="0.225cm" />
<rect x="36.625cm" y="4.625cm" width="1.125cm" height="1.125cm" fill="#000" stroke-width="5" />
<circle cx="37.1875cm" cy="5.1875cm" r="0.225cm" />
<rect x="38.25cm" y="4.625cm" width="1.125cm" height="1.125cm" fill="#fc7166" stroke-width="5" />
<circle cx="38.8125cm" cy="5.1875cm" r="0.225cm" />
<rect x="39.875cm" y="4.625cm" width="1.125cm" height="1.125cm" fill="#944cc" stroke-width="5" />
<circle cx="40.4375cm" cy="5.1875cm" r="0.225cm" />
<rect x="41.5cm" y="4.625cm" width="1.125cm" height="1.125cm" fill="#4c7567" stroke-width="5" />
<circle cx="42.0625cm" cy="5.1875cm" r="0.225cm" />
<rect x="43.125cm" y="4.625cm" width="1.125cm" height="1.125cm" fill="#000" stroke-width="5" />
<circle cx="43.6875cm" cy="5.1875cm" r="0.225cm" />
<rect x="44.75cm" y="4.625cm" width="1.125cm" height="1.125cm" fill="#000" stroke-width="5" />
<circle cx="45.3125cm" cy="5.1875cm" r="0.225cm" />
<rect x="46.375cm" y="4.625cm" width="1.125cm" height="1.125cm" fill="#000" stroke-width="5" />
<circle cx="46.9375cm" cy="5.1875cm" r="0.225cm" />
<rect x="48cm" y="4.625cm" width="1.125cm" height="1.125cm" fill="#000" stroke-width="5" />
<circle cx="48.5625cm" cy="5.1875cm" r="0.225cm" />
<rect x="49.625cm" y="4.625cm" width="1.125cm" height="1.125cm" fill="#000" stroke-width="5" />
<circle cx="50.1875cm" cy="5.1875cm" r="0.225cm" />
<rect x="51.25cm" y="4.625cm" width="1.125cm" height="1.125cm" fill="#000" stroke-width="5" />
<circle cx="51.8125cm" cy="5.1875cm" r="0.225cm" />
<rect x="52.875cm" y="4.625cm" width="1.125cm" height="1.125cm" fill="#000" stroke-width="5" />
<circle cx="53.4375cm" cy="5.1875cm" r="0.225cm" />
<rect x="54.5cm" y="4.625cm" width="1.125cm" height="1.125cm" fill="#c16f98" stroke-width="5" />
<circle cx="55.0625cm" cy="5.1875cm" r="0.225cm" />
<rect x="56.125cm" y="4.625cm" width="1.125cm" height="1.125cm" fill="#000" stroke-width="5" />
<circle cx="56.6875cm" cy="5.1875cm" r="0.225cm" />
<rect x="57.75cm" y="4.625cm" width="1.125cm" height="1.125cm" fill="#000" stroke-width="5" />
<circle cx="58.3125cm" cy="5.1875cm" r="0.225cm" />
<rect x="59.375cm" y="4.625cm" width="1.125cm" height="1.125cm" fill="#e2cb60" stroke-width="5" />
<circle cx="59.9375cm" cy="5.1875cm" r="0.225cm" />
<rect x="61cm" y="4.625cm" width="1.125cm" height="1.125cm" fill="#000" stroke-width="5" />
<circle cx="61.5625cm" cy="5.1875cm" r="0.225cm" />
<rect x="62.625cm" y="4.625cm" width="1.125cm" height="1.125cm" fill="#ffffff" stroke-width="5" />
<circle cx="63.1875cm" cy="5.1875cm" r="0.225cm" />
<rect x="64.25cm" y="4.625cm" width="1.125cm" height="1.125cm" fill="#debb4f" stroke-width="5" />
<circle cx="64.8125cm" cy="5.1875cm" r="0.225cm" />
<rect x="65.875cm" y="4.625cm" width="1.125cm" height="1.125cm" fill="#144cb" stroke-width="5" />
<circle cx="66.4375cm" cy="5.1875cm" r="0.225cm" />
<rect x="67.5cm" y="4.625cm" width="1.125cm" height="1.125cm" fill="#f39dc5" stroke-width="5" />
<circle cx="68.0625cm" cy="5.1875cm" r="0.225cm" />
<rect x="69.125cm" y="4.625cm" width="1.125cm" height="1.125cm" fill="#000" stroke-width="5" />
<circle cx="69.6875cm" cy="5.1875cm" r="0.225cm" />
<rect x="70.75cm" y="4.625cm" width="1.125cm" height="1.125cm" fill="#000" stroke-width="5" />
<circle cx="71.3125cm" cy="5.1875cm" r="0.225cm" />
<rect x="72.375cm" y="4.625cm" width="1.125cm" height="1.125cm" fill="#000" stroke-width="5" />
<circle cx="72.9375cm" cy="5.1875cm" r="0.225cm" />
<rect x="74cm" y="4.625cm" width="1.125cm" height="1.125cm" fill="#000" stroke-width="5" />
<circle cx="74.5625cm" cy="5.1875cm" r="0.225cm" />
<rect x="75.625cm" y="4.625cm" width="1.125cm" height="1.125cm" fill="#000" stroke-width="5" />
<circle cx="76.1875cm" cy="5.1875cm" r="0.225cm" />
<rect x="77.25cm" y="4.625cm" width="1.125cm" height="1.125cm" fill="#000" stroke-width="5" />
<circle cx="77.8125cm" cy="5.1875cm" r="0.225cm" />
<rect x="78.875cm" y="4.625cm" width="1.125cm" height="1.125cm" fill="#000" stroke-width="5" />
<circle cx="79.4375cm" cy="5.1875cm" r="0.225cm" />
<rect x="80.5cm" y="4.625cm" width="1.125cm" height="1.125cm" fill="#000" stroke-width="5" />
<circle cx="81.0625cm" cy="5.1875cm" r="0.225cm" />
<rect x="82.125cm" y="4.625cm" width="1.125cm" height="1.125cm" fill="#000" stroke-width="5" />
<circle cx="82.6875cm" cy="5.1875cm" r="0.225cm" />
<rect x="83.75cm" y="4.625cm" width="1.125cm" height="1.125cm" fill="#000" stroke-width="5" />
<circle cx="84.3125cm" cy="5.1875cm" r="0.225cm" />
<rect x="85.375cm" y="4.625cm" width="1.125cm" height="1.125cm" fill="#000" stroke-width="5" />
<circle cx="85.9375cm" cy="5.1875cm" r="0.225cm" />
<rect x="87cm" y="4.625cm" width="1.125cm" height="1.125cm" fill="#16fc5a" stroke-width="5" />
<circle cx="87.5625cm" cy="5.1875cm" r="0.225cm" />
<rect x="88.625cm" y="4.625cm" width="1.125cm" height="1.125cm" fill="#000" stroke-width="5" />
<circle cx="89.1875cm" cy="5.1875cm" r="0.225cm" />
<rect x="90.25cm" y="4.625cm" width="1.125cm" height="1.125cm" fill="#000" stroke-width="5" />
<circle cx="90.8125cm" cy="5.1875cm" r="0.225cm" />
<rect x="91.875cm" y="4.625cm" width="1.125cm" height="1.125cm" fill="#000" stroke-width="5" />
<circle cx="92.4375cm" cy="5.1875cm" r="0.225cm" />
<rect x="93.5cm" y="4.625cm" width="1.125cm" height="1.125cm" fill="#000" stroke-width="5" />
<circle cx="94.0625cm" cy="5.1875cm" r="0.225cm" />
<rect x="95.125cm" y="4.625cm" width="1.125cm" height="1.125cm" fill="#000" stroke-width="5" />
<circle cx="95.6875cm" cy="5.1875cm" r="0.225cm" />
<rect x="96.75cm" y="4.625cm" width="1.125cm" height="1.125cm" fill="#c16f98" stroke-width="5" />
<circle cx="97.3125cm" cy="5.1875cm" r="0.225cm" />
<rect x="98.375cm" y="4.625cm" width="1.125cm" height="1.125cm" fill="#000" stroke-width="5" />
<circle cx="98.9375cm" cy="5.1875cm" r="0.225cm" />
<rect x="100cm" y="4.625cm" width="1.125cm" height="1.125cm" fill="#9e6320" stroke-width="5" />
<circle cx="100.562cm" cy="5.1875cm" r="0.225cm" />
<rect x="101.625cm" y="4.625cm" width="1.125cm" height="1.125cm" fill="#fc7166" stroke-width="5" />
<circle cx="102.188cm" cy="5.1875cm" r="0.225cm" />
<rect x="103.25cm" y="4.625cm" width="1.125cm" height="1.125cm" fill="#000" stroke-width="5" />
<circle cx="103.812cm" cy="5.1875cm" r="0.225cm" />
<rect x="104.875cm" y="4.625cm" width="1.125cm" height="1.125cm" fill="#000" stroke-width="5" />
<circle cx="105.438cm" cy="5.1875cm" r="0.225cm" />
<rect x="106.5cm" y="4.625cm" width="1.125cm" height="1.125cm" fill="#000" stroke-width="5" />
<circle cx="107.062cm" cy="5.1875cm" r="0.225cm" />
<rect x="108.125cm" y="4.625cm" width="1.125cm" height="1.125cm" fill="#000" stroke-width="5" />
<circle cx="108.688cm" cy="5.1875cm" r="0.225cm" />
<rect x="109.75cm" y="4.625cm" width="1.125cm" height="1.125cm" fill="#000" stroke-width="5" />
<circle cx="110.312cm" cy="5.1875cm" r="0.225cm" />
<rect x="111.375cm" y="4.625cm" width="1.125cm" height="1.125cm" fill="#000" stroke-width="5" />
<circle cx="111.938cm" cy="5.1875cm" r="0.225cm" />
<rect x="113cm" y="4.625cm" width="1.125cm" height="1.125cm" fill="#000" stroke-width="5" />
<circle cx="113.562cm" cy="5.1875cm" r="0.225cm" />
<rect x="114.625cm" y="4.625cm" width="1.125cm" height="1.125cm" fill="#91f08d" stroke-width="5" />
<circle cx="115.188cm" cy="5.1875cm" r="0.225cm" />
<rect x="116.25cm" y="4.625cm" width="1.125cm" height="1.125cm" fill="#24835" stroke-width="5" />
<circle cx="116.812cm" cy="5.1875cm" r="0.225cm" />
<rect x="117.875cm" y="4.625cm" width="1.125cm" height="1.125cm" fill="#ffffff" stroke-width="5" />
<circle cx="118.438cm" cy="5.1875cm" r="0.225cm" />
<rect x="119.5cm" y="4.625cm" width="1.125cm" height="1.125cm" fill="#ffffff" stroke-width="5" />
<circle cx="120.062cm" cy="5.1875cm" r="0.225cm" />
<rect x="121.125cm" y="4.625cm" width="1.125cm" height="1.125cm" fill="#816144" stroke-width="5" />
<circle cx="121.688cm" cy="5.1875cm" r="0.225cm" />
<rect x="122.75cm" y="4.625cm" width="1.125cm" height="1.125cm" fill="#ffffff" stroke-width="5" />
<circle cx="123.312cm" cy="5.1875cm" r="0.225cm" />
<rect x="124.375cm" y="4.625cm" width="1.125cm" height="1.125cm" fill="#eb7f49" stroke-width="5" />
<circle cx="124.938cm" cy="5.1875cm" r="0.225cm" />
<rect x="126cm" y="4.625cm" width="1.125cm" height="1.125cm" fill="#000" stroke-width="5" />
<circle cx="126.562cm" cy="5.1875cm" r="0.225cm" />
<rect x="127.625cm" y="4.625cm" width="1.125cm" height="1.125cm" fill="#000" stroke-width="5" />
<circle cx="128.188cm" cy="5.1875cm" r="0.225cm" />
<rect x="129.25cm" y="4.625cm" width="1.125cm" height="1.125cm" fill="#29f979" stroke-width="5" />
<circle cx="129.812cm" cy="5.1875cm" r="0.225cm" />
<rect x="130.875cm" y="4.625cm" width="1.125cm" height="1.125cm" fill="#8313c8" stroke-width="5" />
<circle cx="131.438cm" cy="5.1875cm" r="0.225cm" />
<rect x="132.5cm" y="4.625cm" width="1.125cm" height="1.125cm" fill="#ffffff" stroke-width="5" />
<circle cx="133.062cm" cy="5.1875cm" r="0.225cm" />
<rect x="134.125cm" y="4.625cm" width="1.125cm" height="1.125cm" fill="#e2cb60" stroke-width="5" />
<circle cx="134.688cm" cy="5.1875cm" r="0.225cm" />
<rect x="135.75cm" y="4.625cm" width="1.125cm" height="1.125cm" fill="#000" stroke-width="5" />
<circle cx="136.312cm" cy="5.1875cm" r="0.225cm" />
<rect x="137.375cm" y="4.625cm" width="1.125cm" height="1.125cm" fill="#000" stroke-width="5" />
<circle cx="137.938cm" cy="5.1875cm" r="0.225cm" />
<rect x="139cm" y="4.625cm" width="1.125cm" height="1.125cm" fill="#000" stroke-width="5" />
<circle cx="139.562cm" cy="5.1875cm" r="0.225cm" />
<rect x="140.625cm" y="4.625cm" width="1.125cm" height="1.125cm" fill="#000" stroke-width="5" />
<circle cx="141.188cm" cy="5.1875cm" r="0.225cm" />
<rect x="142.25cm" y="4.625cm" width="1.125cm" height="1.125cm" fill="#34fefb" stroke-width="5" />
<circle cx="142.812cm" cy="5.1875cm" r="0.225cm" />
<rect x="143.875cm" y="4.625cm" width="1.125cm" height="1.125cm" fill="#ffffff" stroke-width="5" />
<circle cx="144.438cm" cy="5.1875cm" r="0.225cm" />
<rect x="145.5cm" y="4.625cm" width="1.125cm" height="1.125cm" fill="#000" stroke-width="5" />
<circle cx="146.062cm" cy="5.1875cm" r="0.225cm" />
<rect x="147.125cm" y="4.625cm" width="1.125cm" height="1.125cm" fill="#ffffff" stroke-width="5" />
<circle cx="147.688cm" cy="5.1875cm" r="0.225cm" />
<rect x="148.75cm" y="4.625cm" width="1.125cm" height="1.125cm" fill="#ffffff" stroke-width="5" />
<circle cx="149.312cm" cy="5.1875cm" r="0.225cm" />
<rect x="150.375cm" y="4.625cm" width="1.125cm" height="1.125cm" fill="#b4ac5f" stroke-width="5" />
<circle cx="150.938cm" cy="5.1875cm" r="0.225cm" />
<rect x="152cm" y="4.625cm" width="1.125cm" height="1.125cm" fill="#000" stroke-width="5" />
<circle cx="152.562cm" cy="5.1875cm" r="0.225cm" />
<rect x="153.625cm" y="4.625cm" width="1.125cm" height="1.125cm" fill="#ffffff" stroke-width="5" />
<circle cx="154.188cm" cy="5.1875cm" r="0.225cm" />
<rect x="155.25cm" y="4.625cm" width="1.125cm" height="1.125cm" fill="#c072b0" stroke-width="5" />
<circle cx="155.812cm" cy="5.1875cm" r="0.225cm" />
<text x="2.5cm" y="2.3875cm" font-family="Verdana" font-size="6" fill="black" >
AT5G41140
</text>
<text x="5.75cm" y="2.3875cm" font-family="Verdana" font-size="6" fill="black" >
AT5G41150
</text>
<text x="7.375cm" y="2.3875cm" font-family="Verdana" font-size="6" fill="black" >
AT5G41160
</text>
<text x="10.625cm" y="2.3875cm" font-family="Verdana" font-size="6" fill="black" >
AT5G41170
</text>
<text x="13.875cm" y="2.3875cm" font-family="Verdana" font-size="6" fill="black" >
AT5G41180
</text>
<text x="15.5cm" y="2.3875cm" font-family="Verdana" font-size="6" fill="black" >
AT5G41190
</text>
<text x="17.125cm" y="2.3875cm" font-family="Verdana" font-size="6" fill="black" >
AT5G41200
</text>
<text x="18.75cm" y="2.3875cm" font-family="Verdana" font-size="6" fill="black" >
AT5G41210
</text>
<text x="20.375cm" y="2.3875cm" font-family="Verdana" font-size="6" fill="black" >
AT5G41250
</text>
<text x="26.875cm" y="2.3875cm" font-family="Verdana" font-size="6" fill="black" >
AT5G41260
</text>
<text x="30.125cm" y="2.3875cm" font-family="Verdana" font-size="6" fill="black" >
AT5G41270
</text>
<text x="35cm" y="2.3875cm" font-family="Verdana" font-size="6" fill="black" >
AT5G41280
</text>
<text x="36.625cm" y="2.3875cm" font-family="Verdana" font-size="6" fill="black" >
AT5G41300
</text>
<text x="39.875cm" y="2.3875cm" font-family="Verdana" font-size="6" fill="black" >
AT5G41310
</text>
<text x="41.5cm" y="2.3875cm" font-family="Verdana" font-size="6" fill="black" >
AT5G41315
</text>
<text x="48cm" y="2.3875cm" font-family="Verdana" font-size="6" fill="black" >
AT5G41320
</text>
<text x="52.875cm" y="2.3875cm" font-family="Verdana" font-size="6" fill="black" >
AT5G41330
</text>
<text x="59.375cm" y="2.3875cm" font-family="Verdana" font-size="6" fill="black" >
AT5G41340
</text>
<text x="61cm" y="2.3875cm" font-family="Verdana" font-size="6" fill="black" >
AT5G41350
</text>
<text x="62.625cm" y="2.3875cm" font-family="Verdana" font-size="6" fill="black" >
AT5G41360
</text>
<text x="64.25cm" y="2.3875cm" font-family="Verdana" font-size="6" fill="black" >
AT5G41380
</text>
<text x="65.875cm" y="2.3875cm" font-family="Verdana" font-size="6" fill="black" >
AT5G41390
</text>
<text x="67.5cm" y="2.3875cm" font-family="Verdana" font-size="6" fill="black" >
AT5G41400
</text>
<text x="69.125cm" y="2.3875cm" font-family="Verdana" font-size="6" fill="black" >
AT5G41410
</text>
<text x="70.75cm" y="2.3875cm" font-family="Verdana" font-size="6" fill="black" >
AT5G41430
</text>
<text x="72.375cm" y="2.3875cm" font-family="Verdana" font-size="6" fill="black" >
AT5G41460
</text>
<text x="74cm" y="2.3875cm" font-family="Verdana" font-size="6" fill="black" >
AT5G41470
</text>
<text x="75.625cm" y="2.3875cm" font-family="Verdana" font-size="6" fill="black" >
AT5G41480
</text>
<text x="77.25cm" y="2.3875cm" font-family="Verdana" font-size="6" fill="black" >
AT5G41490
</text>
<text x="78.875cm" y="2.3875cm" font-family="Verdana" font-size="6" fill="black" >
AT5G41505
</text>
<text x="80.5cm" y="2.3875cm" font-family="Verdana" font-size="6" fill="black" >
AT5G41520
</text>
<text x="82.125cm" y="2.3875cm" font-family="Verdana" font-size="6" fill="black" >
AT5G41530
</text>
<text x="83.75cm" y="2.3875cm" font-family="Verdana" font-size="6" fill="black" >
AT5G41540
</text>
<text x="85.375cm" y="2.3875cm" font-family="Verdana" font-size="6" fill="black" >
AT5G41560
</text>
<text x="87cm" y="2.3875cm" font-family="Verdana" font-size="6" fill="black" >
AT5G41570
</text>
<text x="91.875cm" y="2.3875cm" font-family="Verdana" font-size="6" fill="black" >
AT5G41580
</text>
<text x="95.125cm" y="2.3875cm" font-family="Verdana" font-size="6" fill="black" >
AT5G41590
</text>
<text x="100cm" y="2.3875cm" font-family="Verdana" font-size="6" fill="black" >
AT5G41600
</text>
<text x="114.625cm" y="2.3875cm" font-family="Verdana" font-size="6" fill="black" >
AT5G41610
</text>
<text x="116.25cm" y="2.3875cm" font-family="Verdana" font-size="6" fill="black" >
AT5G41620
</text>
<text x="117.875cm" y="2.3875cm" font-family="Verdana" font-size="6" fill="black" >
AT5G41630
</text>
<text x="119.5cm" y="2.3875cm" font-family="Verdana" font-size="6" fill="black" >
AT5G41640
</text>
<text x="121.125cm" y="2.3875cm" font-family="Verdana" font-size="6" fill="black" >
AT5G41650
</text>
<text x="122.75cm" y="2.3875cm" font-family="Verdana" font-size="6" fill="black" >
AT5G41660
</text>
<text x="124.375cm" y="2.3875cm" font-family="Verdana" font-size="6" fill="black" >
AT5G41670
</text>
<text x="129.25cm" y="2.3875cm" font-family="Verdana" font-size="6" fill="black" >
AT5G41680
</text>
<text x="130.875cm" y="2.3875cm" font-family="Verdana" font-size="6" fill="black" >
AT5G41685
</text>
<text x="132.5cm" y="2.3875cm" font-family="Verdana" font-size="6" fill="black" >
AT5G41690
</text>
<text x="134.125cm" y="2.3875cm" font-family="Verdana" font-size="6" fill="black" >
AT5G41700
</text>
<text x="137.375cm" y="2.3875cm" font-family="Verdana" font-size="6" fill="black" >
AT5G41720
</text>
<text x="142.25cm" y="2.3875cm" font-family="Verdana" font-size="6" fill="black" >
AT5G41730
</text>
<text x="143.875cm" y="2.3875cm" font-family="Verdana" font-size="6" fill="black" >
AT5G41740
</text>
<text x="145.5cm" y="2.3875cm" font-family="Verdana" font-size="6" fill="black" >
AT5G41760
</text>
<text x="147.125cm" y="2.3875cm" font-family="Verdana" font-size="6" fill="black" >
AT5G41765
</text>
<text x="148.75cm" y="2.3875cm" font-family="Verdana" font-size="6" fill="black" >
AT5G41770
</text>
<text x="150.375cm" y="2.3875cm" font-family="Verdana" font-size="6" fill="black" >
AT5G41780
</text>
<text x="152cm" y="2.3875cm" font-family="Verdana" font-size="6" fill="black" >
AT5G41790
</text>
<text x="153.625cm" y="2.3875cm" font-family="Verdana" font-size="6" fill="black" >
AT5G41800
</text>
<text x="155.25cm" y="2.3875cm" font-family="Verdana" font-size="6" fill="black" >
AT5G41810
</text>
<text x="2.5cm" y="4.5125cm" font-family="Verdana" font-size="6" fill="black" >
AT1G63300
</text>
<text x="4.125cm" y="4.5125cm" font-family="Verdana" font-size="6" fill="black" >
AT1G63310
</text>
<text x="5.75cm" y="4.5125cm" font-family="Verdana" font-size="6" fill="black" >
AT1G63340
</text>
<text x="7.375cm" y="4.5125cm" font-family="Verdana" font-size="6" fill="black" >
AT1G63350
</text>
<text x="9cm" y="4.5125cm" font-family="Verdana" font-size="6" fill="black" >
AT1G63380
</text>
<text x="10.625cm" y="4.5125cm" font-family="Verdana" font-size="6" fill="black" >
AT1G63410
</text>
<text x="12.25cm" y="4.5125cm" font-family="Verdana" font-size="6" fill="black" >
AT1G63420
</text>
<text x="13.875cm" y="4.5125cm" font-family="Verdana" font-size="6" fill="black" >
AT1G63430
</text>
<text x="17.125cm" y="4.5125cm" font-family="Verdana" font-size="6" fill="black" >
AT1G63440
</text>
<text x="20.375cm" y="4.5125cm" font-family="Verdana" font-size="6" fill="black" >
AT1G63450
</text>
<text x="22cm" y="4.5125cm" font-family="Verdana" font-size="6" fill="black" >
AT1G63460
</text>
<text x="23.625cm" y="4.5125cm" font-family="Verdana" font-size="6" fill="black" >
AT1G63470
</text>
<text x="25.25cm" y="4.5125cm" font-family="Verdana" font-size="6" fill="black" >
AT1G63490
</text>
<text x="26.875cm" y="4.5125cm" font-family="Verdana" font-size="6" fill="black" >
AT1G63500
</text>
<text x="28.5cm" y="4.5125cm" font-family="Verdana" font-size="6" fill="black" >
AT1G63520
</text>
<text x="30.125cm" y="4.5125cm" font-family="Verdana" font-size="6" fill="black" >
AT1G63522
</text>
<text x="31.75cm" y="4.5125cm" font-family="Verdana" font-size="6" fill="black" >
AT1G63530
</text>
<text x="33.375cm" y="4.5125cm" font-family="Verdana" font-size="6" fill="black" >
AT1G63540
</text>
<text x="35cm" y="4.5125cm" font-family="Verdana" font-size="6" fill="black" >
AT1G63550
</text>
<text x="36.625cm" y="4.5125cm" font-family="Verdana" font-size="6" fill="black" >
AT1G63610
</text>
<text x="38.25cm" y="4.5125cm" font-family="Verdana" font-size="6" fill="black" >
AT1G63630
</text>
<text x="39.875cm" y="4.5125cm" font-family="Verdana" font-size="6" fill="black" >
AT1G63640
</text>
<text x="41.5cm" y="4.5125cm" font-family="Verdana" font-size="6" fill="black" >
AT1G63650
</text>
<text x="43.125cm" y="4.5125cm" font-family="Verdana" font-size="6" fill="black" >
AT1G63660
</text>
<text x="44.75cm" y="4.5125cm" font-family="Verdana" font-size="6" fill="black" >
AT1G63670
</text>
<text x="46.375cm" y="4.5125cm" font-family="Verdana" font-size="6" fill="black" >
AT1G63680
</text>
<text x="48cm" y="4.5125cm" font-family="Verdana" font-size="6" fill="black" >
AT1G63690
</text>
<text x="49.625cm" y="4.5125cm" font-family="Verdana" font-size="6" fill="black" >
AT1G63700
</text>
<text x="51.25cm" y="4.5125cm" font-family="Verdana" font-size="6" fill="black" >
AT1G63710
</text>
<text x="52.875cm" y="4.5125cm" font-family="Verdana" font-size="6" fill="black" >
AT1G63720
</text>
<text x="54.5cm" y="4.5125cm" font-family="Verdana" font-size="6" fill="black" >
AT1G63730
</text>
<text x="56.125cm" y="4.5125cm" font-family="Verdana" font-size="6" fill="black" >
AT1G63770
</text>
<text x="57.75cm" y="4.5125cm" font-family="Verdana" font-size="6" fill="black" >
AT1G63780
</text>
<text x="59.375cm" y="4.5125cm" font-family="Verdana" font-size="6" fill="black" >
AT1G63800
</text>
<text x="61cm" y="4.5125cm" font-family="Verdana" font-size="6" fill="black" >
AT1G63810
</text>
<text x="64.25cm" y="4.5125cm" font-family="Verdana" font-size="6" fill="black" >
AT1G63820
</text>
<text x="65.875cm" y="4.5125cm" font-family="Verdana" font-size="6" fill="black" >
AT1G63830
</text>
<text x="67.5cm" y="4.5125cm" font-family="Verdana" font-size="6" fill="black" >
AT1G63840
</text>
<text x="69.125cm" y="4.5125cm" font-family="Verdana" font-size="6" fill="black" >
AT1G63850
</text>
<text x="70.75cm" y="4.5125cm" font-family="Verdana" font-size="6" fill="black" >
AT1G63855
</text>
<text x="72.375cm" y="4.5125cm" font-family="Verdana" font-size="6" fill="black" >
AT1G63900
</text>
<text x="74cm" y="4.5125cm" font-family="Verdana" font-size="6" fill="black" >
AT1G63910
</text>
<text x="75.625cm" y="4.5125cm" font-family="Verdana" font-size="6" fill="black" >
AT1G63930
</text>
<text x="77.25cm" y="4.5125cm" font-family="Verdana" font-size="6" fill="black" >
AT1G63940
</text>
<text x="78.875cm" y="4.5125cm" font-family="Verdana" font-size="6" fill="black" >
AT1G63950
</text>
<text x="80.5cm" y="4.5125cm" font-family="Verdana" font-size="6" fill="black" >
AT1G63960
</text>
<text x="82.125cm" y="4.5125cm" font-family="Verdana" font-size="6" fill="black" >
AT1G63970
</text>
<text x="83.75cm" y="4.5125cm" font-family="Verdana" font-size="6" fill="black" >
AT1G63980
</text>
<text x="85.375cm" y="4.5125cm" font-family="Verdana" font-size="6" fill="black" >
AT1G63990
</text>
<text x="87cm" y="4.5125cm" font-family="Verdana" font-size="6" fill="black" >
AT1G64000
</text>
<text x="88.625cm" y="4.5125cm" font-family="Verdana" font-size="6" fill="black" >
AT1G64010
</text>
<text x="90.25cm" y="4.5125cm" font-family="Verdana" font-size="6" fill="black" >
AT1G64040
</text>
<text x="91.875cm" y="4.5125cm" font-family="Verdana" font-size="6" fill="black" >
AT1G64050
</text>
<text x="93.5cm" y="4.5125cm" font-family="Verdana" font-size="6" fill="black" >
AT1G64060
</text>
<text x="95.125cm" y="4.5125cm" font-family="Verdana" font-size="6" fill="black" >
AT1G64065
</text>
<text x="96.75cm" y="4.5125cm" font-family="Verdana" font-size="6" fill="black" >
AT1G64070
</text>
<text x="98.375cm" y="4.5125cm" font-family="Verdana" font-size="6" fill="black" >
AT1G64080
</text>
<text x="100cm" y="4.5125cm" font-family="Verdana" font-size="6" fill="black" >
AT1G64090
</text>
<text x="101.625cm" y="4.5125cm" font-family="Verdana" font-size="6" fill="black" >
AT1G64100
</text>
<text x="103.25cm" y="4.5125cm" font-family="Verdana" font-size="6" fill="black" >
AT1G64105
</text>
<text x="104.875cm" y="4.5125cm" font-family="Verdana" font-size="6" fill="black" >
AT1G64107
</text>
<text x="106.5cm" y="4.5125cm" font-family="Verdana" font-size="6" fill="black" >
AT1G64110
</text>
<text x="108.125cm" y="4.5125cm" font-family="Verdana" font-size="6" fill="black" >
AT1G64130
</text>
<text x="109.75cm" y="4.5125cm" font-family="Verdana" font-size="6" fill="black" >
AT1G64140
</text>
<text x="111.375cm" y="4.5125cm" font-family="Verdana" font-size="6" fill="black" >
AT1G64150
</text>
<text x="113cm" y="4.5125cm" font-family="Verdana" font-size="6" fill="black" >
AT1G64160
</text>
<text x="114.625cm" y="4.5125cm" font-family="Verdana" font-size="6" fill="black" >
AT1G64170
</text>
<text x="116.25cm" y="4.5125cm" font-family="Verdana" font-size="6" fill="black" >
AT1G64180
</text>
<text x="121.125cm" y="4.5125cm" font-family="Verdana" font-size="6" fill="black" >
AT1G64185
</text>
<text x="124.375cm" y="4.5125cm" font-family="Verdana" font-size="6" fill="black" >
AT1G64190
</text>
<text x="126cm" y="4.5125cm" font-family="Verdana" font-size="6" fill="black" >
AT1G64195
</text>
<text x="127.625cm" y="4.5125cm" font-family="Verdana" font-size="6" fill="black" >
AT1G64200
</text>
<text x="129.25cm" y="4.5125cm" font-family="Verdana" font-size="6" fill="black" >
AT1G64210
</text>
<text x="130.875cm" y="4.5125cm" font-family="Verdana" font-size="6" fill="black" >
AT1G64220
</text>
<text x="134.125cm" y="4.5125cm" font-family="Verdana" font-size="6" fill="black" >
AT1G64230
</text>
<text x="135.75cm" y="4.5125cm" font-family="Verdana" font-size="6" fill="black" >
AT1G64235
</text>
<text x="137.375cm" y="4.5125cm" font-family="Verdana" font-size="6" fill="black" >
AT1G64255
</text>
<text x="139cm" y="4.5125cm" font-family="Verdana" font-size="6" fill="black" >
AT1G64280
</text>
<text x="140.625cm" y="4.5125cm" font-family="Verdana" font-size="6" fill="black" >
AT1G64290
</text>
<text x="142.25cm" y="4.5125cm" font-family="Verdana" font-size="6" fill="black" >
AT1G64300
</text>
<text x="145.5cm" y="4.5125cm" font-family="Verdana" font-size="6" fill="black" >
AT1G64310
</text>
<text x="150.375cm" y="4.5125cm" font-family="Verdana" font-size="6" fill="black" >
AT1G64320
</text>
<text x="152cm" y="4.5125cm" font-family="Verdana" font-size="6" fill="black" >
AT1G64330
</text>
<text x="155.25cm" y="4.5125cm" font-family="Verdana" font-size="6" fill="black" >
AT1G64340
</text>
<text x="0.5cm" y="3.0625cm" font-family="Verdana" font-size="25" fill="black" >
ath 5
</text>
<text x="0.5cm" y="5.1875cm" font-family="Verdana" font-size="25" fill="black" >
ath 1
</text>
<line x1="84.3125cm" y1="3.0625cm" x2="97.3125cm" y2="5.1875cm" stroke="black" stroke-width="2" />
</svg>
