<?xml version="1.0" standalone="yes"?>
<svg xmlns="http://www.w3.org/2000/svg" width="114.625cm" height="8.875cm" >
<rect x="2.5cm" y="2.5cm" width="1.125cm" height="1.125cm" fill="#000" stroke-width="5" />
<circle cx="3.0625cm" cy="3.0625cm" r="0.225cm" />
<rect x="4.125cm" y="2.5cm" width="1.125cm" height="1.125cm" fill="#000" stroke-width="5" />
<circle cx="4.6875cm" cy="3.0625cm" r="0.225cm" />
<rect x="5.75cm" y="2.5cm" width="1.125cm" height="1.125cm" fill="#ffffff" stroke-width="5" />
<circle cx="6.3125cm" cy="3.0625cm" r="0.225cm" />
<rect x="7.375cm" y="2.5cm" width="1.125cm" height="1.125cm" fill="#000" stroke-width="5" />
<circle cx="7.9375cm" cy="3.0625cm" r="0.225cm" />
<rect x="9cm" y="2.5cm" width="1.125cm" height="1.125cm" fill="#000" stroke-width="5" />
<circle cx="9.5625cm" cy="3.0625cm" r="0.225cm" />
<rect x="10.625cm" y="2.5cm" width="1.125cm" height="1.125cm" fill="#000" stroke-width="5" />
<circle cx="11.1875cm" cy="3.0625cm" r="0.225cm" />
<rect x="12.25cm" y="2.5cm" width="1.125cm" height="1.125cm" fill="#ffffff" stroke-width="5" />
<circle cx="12.8125cm" cy="3.0625cm" r="0.225cm" />
<rect x="13.875cm" y="2.5cm" width="1.125cm" height="1.125cm" fill="#000" stroke-width="5" />
<circle cx="14.4375cm" cy="3.0625cm" r="0.225cm" />
<rect x="15.5cm" y="2.5cm" width="1.125cm" height="1.125cm" fill="#000" stroke-width="5" />
<circle cx="16.0625cm" cy="3.0625cm" r="0.225cm" />
<rect x="17.125cm" y="2.5cm" width="1.125cm" height="1.125cm" fill="#000" stroke-width="5" />
<circle cx="17.6875cm" cy="3.0625cm" r="0.225cm" />
<rect x="18.75cm" y="2.5cm" width="1.125cm" height="1.125cm" fill="#ffffff" stroke-width="5" />
<circle cx="19.3125cm" cy="3.0625cm" r="0.225cm" />
<rect x="20.375cm" y="2.5cm" width="1.125cm" height="1.125cm" fill="#000" stroke-width="5" />
<circle cx="20.9375cm" cy="3.0625cm" r="0.225cm" />
<rect x="22cm" y="2.5cm" width="1.125cm" height="1.125cm" fill="#ceda7b" stroke-width="5" />
<circle cx="22.5625cm" cy="3.0625cm" r="0.225cm" />
<rect x="23.625cm" y="2.5cm" width="1.125cm" height="1.125cm" fill="#000" stroke-width="5" />
<circle cx="24.1875cm" cy="3.0625cm" r="0.225cm" />
<rect x="25.25cm" y="2.5cm" width="1.125cm" height="1.125cm" fill="#4c2d61" stroke-width="5" />
<circle cx="25.8125cm" cy="3.0625cm" r="0.225cm" />
<rect x="26.875cm" y="2.5cm" width="1.125cm" height="1.125cm" fill="#000" stroke-width="5" />
<circle cx="27.4375cm" cy="3.0625cm" r="0.225cm" />
<rect x="28.5cm" y="2.5cm" width="1.125cm" height="1.125cm" fill="#ffffff" stroke-width="5" />
<circle cx="29.0625cm" cy="3.0625cm" r="0.225cm" />
<rect x="30.125cm" y="2.5cm" width="1.125cm" height="1.125cm" fill="#c6e71a" stroke-width="5" />
<circle cx="30.6875cm" cy="3.0625cm" r="0.225cm" />
<rect x="31.75cm" y="2.5cm" width="1.125cm" height="1.125cm" fill="#000" stroke-width="5" />
<circle cx="32.3125cm" cy="3.0625cm" r="0.225cm" />
<rect x="33.375cm" y="2.5cm" width="1.125cm" height="1.125cm" fill="#ffffff" stroke-width="5" />
<circle cx="33.9375cm" cy="3.0625cm" r="0.225cm" />
<rect x="35cm" y="2.5cm" width="1.125cm" height="1.125cm" fill="#000" stroke-width="5" />
<circle cx="35.5625cm" cy="3.0625cm" r="0.225cm" />
<rect x="36.625cm" y="2.5cm" width="1.125cm" height="1.125cm" fill="#f7d5b2" stroke-width="5" />
<circle cx="37.1875cm" cy="3.0625cm" r="0.225cm" />
<rect x="38.25cm" y="2.5cm" width="1.125cm" height="1.125cm" fill="#000" stroke-width="5" />
<circle cx="38.8125cm" cy="3.0625cm" r="0.225cm" />
<rect x="39.875cm" y="2.5cm" width="1.125cm" height="1.125cm" fill="#9147c3" stroke-width="5" />
<circle cx="40.4375cm" cy="3.0625cm" r="0.225cm" />
<rect x="41.5cm" y="2.5cm" width="1.125cm" height="1.125cm" fill="#ffffff" stroke-width="5" />
<circle cx="42.0625cm" cy="3.0625cm" r="0.225cm" />
<rect x="43.125cm" y="2.5cm" width="1.125cm" height="1.125cm" fill="#d13d7c" stroke-width="5" />
<circle cx="43.6875cm" cy="3.0625cm" r="0.225cm" />
<rect x="44.75cm" y="2.5cm" width="1.125cm" height="1.125cm" fill="#000" stroke-width="5" />
<circle cx="45.3125cm" cy="3.0625cm" r="0.225cm" />
<rect x="46.375cm" y="2.5cm" width="1.125cm" height="1.125cm" fill="#000" stroke-width="5" />
<circle cx="46.9375cm" cy="3.0625cm" r="0.225cm" />
<rect x="48cm" y="2.5cm" width="1.125cm" height="1.125cm" fill="#000" stroke-width="5" />
<circle cx="48.5625cm" cy="3.0625cm" r="0.225cm" />
<rect x="49.625cm" y="2.5cm" width="1.125cm" height="1.125cm" fill="#ff675d" stroke-width="5" />
<circle cx="50.1875cm" cy="3.0625cm" r="0.225cm" />
<rect x="51.25cm" y="2.5cm" width="1.125cm" height="1.125cm" fill="#ffffff" stroke-width="5" />
<circle cx="51.8125cm" cy="3.0625cm" r="0.225cm" />
<rect x="52.875cm" y="2.5cm" width="1.125cm" height="1.125cm" fill="#000" stroke-width="5" />
<circle cx="53.4375cm" cy="3.0625cm" r="0.225cm" />
<rect x="54.5cm" y="2.5cm" width="1.125cm" height="1.125cm" fill="#ffffff" stroke-width="5" />
<circle cx="55.0625cm" cy="3.0625cm" r="0.225cm" />
<rect x="56.125cm" y="2.5cm" width="1.125cm" height="1.125cm" fill="#ffffff" stroke-width="5" />
<circle cx="56.6875cm" cy="3.0625cm" r="0.225cm" />
<rect x="57.75cm" y="2.5cm" width="1.125cm" height="1.125cm" fill="#55f896" stroke-width="5" />
<circle cx="58.3125cm" cy="3.0625cm" r="0.225cm" />
<rect x="59.375cm" y="2.5cm" width="1.125cm" height="1.125cm" fill="#ffffff" stroke-width="5" />
<circle cx="59.9375cm" cy="3.0625cm" r="0.225cm" />
<rect x="61cm" y="2.5cm" width="1.125cm" height="1.125cm" fill="#9989f6" stroke-width="5" />
<circle cx="61.5625cm" cy="3.0625cm" r="0.225cm" />
<rect x="62.625cm" y="2.5cm" width="1.125cm" height="1.125cm" fill="#000" stroke-width="5" />
<circle cx="63.1875cm" cy="3.0625cm" r="0.225cm" />
<rect x="64.25cm" y="2.5cm" width="1.125cm" height="1.125cm" fill="#000" stroke-width="5" />
<circle cx="64.8125cm" cy="3.0625cm" r="0.225cm" />
<rect x="65.875cm" y="2.5cm" width="1.125cm" height="1.125cm" fill="#5a4d6e" stroke-width="5" />
<circle cx="66.4375cm" cy="3.0625cm" r="0.225cm" />
<rect x="67.5cm" y="2.5cm" width="1.125cm" height="1.125cm" fill="#000" stroke-width="5" />
<circle cx="68.0625cm" cy="3.0625cm" r="0.225cm" />
<rect x="69.125cm" y="2.5cm" width="1.125cm" height="1.125cm" fill="#000" stroke-width="5" />
<circle cx="69.6875cm" cy="3.0625cm" r="0.225cm" />
<rect x="70.75cm" y="2.5cm" width="1.125cm" height="1.125cm" fill="#000" stroke-width="5" />
<circle cx="71.3125cm" cy="3.0625cm" r="0.225cm" />
<rect x="72.375cm" y="2.5cm" width="1.125cm" height="1.125cm" fill="#859157" stroke-width="5" />
<circle cx="72.9375cm" cy="3.0625cm" r="0.225cm" />
<rect x="74cm" y="2.5cm" width="1.125cm" height="1.125cm" fill="#000" stroke-width="5" />
<circle cx="74.5625cm" cy="3.0625cm" r="0.225cm" />
<rect x="75.625cm" y="2.5cm" width="1.125cm" height="1.125cm" fill="#6abf75" stroke-width="5" />
<circle cx="76.1875cm" cy="3.0625cm" r="0.225cm" />
<rect x="77.25cm" y="2.5cm" width="1.125cm" height="1.125cm" fill="#d6ae4b" stroke-width="5" />
<circle cx="77.8125cm" cy="3.0625cm" r="0.225cm" />
<rect x="78.875cm" y="2.5cm" width="1.125cm" height="1.125cm" fill="#000" stroke-width="5" />
<circle cx="79.4375cm" cy="3.0625cm" r="0.225cm" />
<rect x="80.5cm" y="2.5cm" width="1.125cm" height="1.125cm" fill="#74a76f" stroke-width="5" />
<circle cx="81.0625cm" cy="3.0625cm" r="0.225cm" />
<rect x="82.125cm" y="2.5cm" width="1.125cm" height="1.125cm" fill="#ffffff" stroke-width="5" />
<circle cx="82.6875cm" cy="3.0625cm" r="0.225cm" />
<rect x="83.75cm" y="2.5cm" width="1.125cm" height="1.125cm" fill="#4e1db0" stroke-width="5" />
<circle cx="84.3125cm" cy="3.0625cm" r="0.225cm" />
<rect x="85.375cm" y="2.5cm" width="1.125cm" height="1.125cm" fill="#4adf29" stroke-width="5" />
<circle cx="85.9375cm" cy="3.0625cm" r="0.225cm" />
<rect x="87cm" y="2.5cm" width="1.125cm" height="1.125cm" fill="#b16cb9" stroke-width="5" />
<circle cx="87.5625cm" cy="3.0625cm" r="0.225cm" />
<rect x="88.625cm" y="2.5cm" width="1.125cm" height="1.125cm" fill="#000" stroke-width="5" />
<circle cx="89.1875cm" cy="3.0625cm" r="0.225cm" />
<rect x="90.25cm" y="2.5cm" width="1.125cm" height="1.125cm" fill="#000" stroke-width="5" />
<circle cx="90.8125cm" cy="3.0625cm" r="0.225cm" />
<rect x="91.875cm" y="2.5cm" width="1.125cm" height="1.125cm" fill="#3b8b60" stroke-width="5" />
<circle cx="92.4375cm" cy="3.0625cm" r="0.225cm" />
<rect x="93.5cm" y="2.5cm" width="1.125cm" height="1.125cm" fill="#000" stroke-width="5" />
<circle cx="94.0625cm" cy="3.0625cm" r="0.225cm" />
<rect x="95.125cm" y="2.5cm" width="1.125cm" height="1.125cm" fill="#c3bc78" stroke-width="5" />
<circle cx="95.6875cm" cy="3.0625cm" r="0.225cm" />
<rect x="96.75cm" y="2.5cm" width="1.125cm" height="1.125cm" fill="#ffffff" stroke-width="5" />
<circle cx="97.3125cm" cy="3.0625cm" r="0.225cm" />
<rect x="98.375cm" y="2.5cm" width="1.125cm" height="1.125cm" fill="#ffffff" stroke-width="5" />
<circle cx="98.9375cm" cy="3.0625cm" r="0.225cm" />
<rect x="100cm" y="2.5cm" width="1.125cm" height="1.125cm" fill="#ffffff" stroke-width="5" />
<circle cx="100.562cm" cy="3.0625cm" r="0.225cm" />
<rect x="101.625cm" y="2.5cm" width="1.125cm" height="1.125cm" fill="#000" stroke-width="5" />
<circle cx="102.188cm" cy="3.0625cm" r="0.225cm" />
<rect x="103.25cm" y="2.5cm" width="1.125cm" height="1.125cm" fill="#ffffff" stroke-width="5" />
<circle cx="103.812cm" cy="3.0625cm" r="0.225cm" />
<rect x="104.875cm" y="2.5cm" width="1.125cm" height="1.125cm" fill="#ffffff" stroke-width="5" />
<circle cx="105.438cm" cy="3.0625cm" r="0.225cm" />
<rect x="106.5cm" y="2.5cm" width="1.125cm" height="1.125cm" fill="#000" stroke-width="5" />
<circle cx="107.062cm" cy="3.0625cm" r="0.225cm" />
<rect x="108.125cm" y="2.5cm" width="1.125cm" height="1.125cm" fill="#ffffff" stroke-width="5" />
<circle cx="108.688cm" cy="3.0625cm" r="0.225cm" />
<rect x="109.75cm" y="2.5cm" width="1.125cm" height="1.125cm" fill="#ffffff" stroke-width="5" />
<circle cx="110.312cm" cy="3.0625cm" r="0.225cm" />
<rect x="111.375cm" y="2.5cm" width="1.125cm" height="1.125cm" fill="#ffffff" stroke-width="5" />
<circle cx="111.938cm" cy="3.0625cm" r="0.225cm" />
<rect x="113cm" y="2.5cm" width="1.125cm" height="1.125cm" fill="#387470" stroke-width="5" />
<circle cx="113.562cm" cy="3.0625cm" r="0.225cm" />
<rect x="2.5cm" y="4.625cm" width="1.125cm" height="1.125cm" fill="#a9c7a" stroke-width="5" />
<circle cx="3.0625cm" cy="5.1875cm" r="0.225cm" />
<rect x="4.125cm" y="4.625cm" width="1.125cm" height="1.125cm" fill="#000" stroke-width="5" />
<circle cx="4.6875cm" cy="5.1875cm" r="0.225cm" />
<rect x="5.75cm" y="4.625cm" width="1.125cm" height="1.125cm" fill="#000" stroke-width="5" />
<circle cx="6.3125cm" cy="5.1875cm" r="0.225cm" />
<rect x="7.375cm" y="4.625cm" width="1.125cm" height="1.125cm" fill="#000" stroke-width="5" />
<circle cx="7.9375cm" cy="5.1875cm" r="0.225cm" />
<rect x="9cm" y="4.625cm" width="1.125cm" height="1.125cm" fill="#000" stroke-width="5" />
<circle cx="9.5625cm" cy="5.1875cm" r="0.225cm" />
<rect x="10.625cm" y="4.625cm" width="1.125cm" height="1.125cm" fill="#000" stroke-width="5" />
<circle cx="11.1875cm" cy="5.1875cm" r="0.225cm" />
<rect x="12.25cm" y="4.625cm" width="1.125cm" height="1.125cm" fill="#000" stroke-width="5" />
<circle cx="12.8125cm" cy="5.1875cm" r="0.225cm" />
<rect x="13.875cm" y="4.625cm" width="1.125cm" height="1.125cm" fill="#000" stroke-width="5" />
<circle cx="14.4375cm" cy="5.1875cm" r="0.225cm" />
<rect x="15.5cm" y="4.625cm" width="1.125cm" height="1.125cm" fill="#000" stroke-width="5" />
<circle cx="16.0625cm" cy="5.1875cm" r="0.225cm" />
<rect x="17.125cm" y="4.625cm" width="1.125cm" height="1.125cm" fill="#e734ea" stroke-width="5" />
<circle cx="17.6875cm" cy="5.1875cm" r="0.225cm" />
<rect x="18.75cm" y="4.625cm" width="1.125cm" height="1.125cm" fill="#000" stroke-width="5" />
<circle cx="19.3125cm" cy="5.1875cm" r="0.225cm" />
<rect x="20.375cm" y="4.625cm" width="1.125cm" height="1.125cm" fill="#000" stroke-width="5" />
<circle cx="20.9375cm" cy="5.1875cm" r="0.225cm" />
<rect x="22cm" y="4.625cm" width="1.125cm" height="1.125cm" fill="#ceda7b" stroke-width="5" />
<circle cx="22.5625cm" cy="5.1875cm" r="0.225cm" />
<rect x="23.625cm" y="4.625cm" width="1.125cm" height="1.125cm" fill="#ffffff" stroke-width="5" />
<circle cx="24.1875cm" cy="5.1875cm" r="0.225cm" />
<rect x="25.25cm" y="4.625cm" width="1.125cm" height="1.125cm" fill="#4c2d61" stroke-width="5" />
<circle cx="25.8125cm" cy="5.1875cm" r="0.225cm" />
<rect x="26.875cm" y="4.625cm" width="1.125cm" height="1.125cm" fill="#ffffff" stroke-width="5" />
<circle cx="27.4375cm" cy="5.1875cm" r="0.225cm" />
<rect x="28.5cm" y="4.625cm" width="1.125cm" height="1.125cm" fill="#ffffff" stroke-width="5" />
<circle cx="29.0625cm" cy="5.1875cm" r="0.225cm" />
<rect x="30.125cm" y="4.625cm" width="1.125cm" height="1.125cm" fill="#c6e71a" stroke-width="5" />
<circle cx="30.6875cm" cy="5.1875cm" r="0.225cm" />
<rect x="31.75cm" y="4.625cm" width="1.125cm" height="1.125cm" fill="#ffffff" stroke-width="5" />
<circle cx="32.3125cm" cy="5.1875cm" r="0.225cm" />
<rect x="33.375cm" y="4.625cm" width="1.125cm" height="1.125cm" fill="#000" stroke-width="5" />
<circle cx="33.9375cm" cy="5.1875cm" r="0.225cm" />
<rect x="35cm" y="4.625cm" width="1.125cm" height="1.125cm" fill="#ffffff" stroke-width="5" />
<circle cx="35.5625cm" cy="5.1875cm" r="0.225cm" />
<rect x="36.625cm" y="4.625cm" width="1.125cm" height="1.125cm" fill="#f7d5b2" stroke-width="5" />
<circle cx="37.1875cm" cy="5.1875cm" r="0.225cm" />
<rect x="38.25cm" y="4.625cm" width="1.125cm" height="1.125cm" fill="#ffffff" stroke-width="5" />
<circle cx="38.8125cm" cy="5.1875cm" r="0.225cm" />
<rect x="39.875cm" y="4.625cm" width="1.125cm" height="1.125cm" fill="#9147c3" stroke-width="5" />
<circle cx="40.4375cm" cy="5.1875cm" r="0.225cm" />
<rect x="41.5cm" y="4.625cm" width="1.125cm" height="1.125cm" fill="#000" stroke-width="5" />
<circle cx="42.0625cm" cy="5.1875cm" r="0.225cm" />
<rect x="43.125cm" y="4.625cm" width="1.125cm" height="1.125cm" fill="#d13d7c" stroke-width="5" />
<circle cx="43.6875cm" cy="5.1875cm" r="0.225cm" />
<rect x="44.75cm" y="4.625cm" width="1.125cm" height="1.125cm" fill="#ffffff" stroke-width="5" />
<circle cx="45.3125cm" cy="5.1875cm" r="0.225cm" />
<rect x="46.375cm" y="4.625cm" width="1.125cm" height="1.125cm" fill="#000" stroke-width="5" />
<circle cx="46.9375cm" cy="5.1875cm" r="0.225cm" />
<rect x="48cm" y="4.625cm" width="1.125cm" height="1.125cm" fill="#ffffff" stroke-width="5" />
<circle cx="48.5625cm" cy="5.1875cm" r="0.225cm" />
<rect x="49.625cm" y="4.625cm" width="1.125cm" height="1.125cm" fill="#ff675d" stroke-width="5" />
<circle cx="50.1875cm" cy="5.1875cm" r="0.225cm" />
<rect x="51.25cm" y="4.625cm" width="1.125cm" height="1.125cm" fill="#ffffff" stroke-width="5" />
<circle cx="51.8125cm" cy="5.1875cm" r="0.225cm" />
<rect x="52.875cm" y="4.625cm" width="1.125cm" height="1.125cm" fill="#ffffff" stroke-width="5" />
<circle cx="53.4375cm" cy="5.1875cm" r="0.225cm" />
<rect x="54.5cm" y="4.625cm" width="1.125cm" height="1.125cm" fill="#ffffff" stroke-width="5" />
<circle cx="55.0625cm" cy="5.1875cm" r="0.225cm" />
<rect x="56.125cm" y="4.625cm" width="1.125cm" height="1.125cm" fill="#ffffff" stroke-width="5" />
<circle cx="56.6875cm" cy="5.1875cm" r="0.225cm" />
<rect x="57.75cm" y="4.625cm" width="1.125cm" height="1.125cm" fill="#ffffff" stroke-width="5" />
<circle cx="58.3125cm" cy="5.1875cm" r="0.225cm" />
<rect x="59.375cm" y="4.625cm" width="1.125cm" height="1.125cm" fill="#ffffff" stroke-width="5" />
<circle cx="59.9375cm" cy="5.1875cm" r="0.225cm" />
<rect x="61cm" y="4.625cm" width="1.125cm" height="1.125cm" fill="#9989f6" stroke-width="5" />
<circle cx="61.5625cm" cy="5.1875cm" r="0.225cm" />
<rect x="62.625cm" y="4.625cm" width="1.125cm" height="1.125cm" fill="#ffffff" stroke-width="5" />
<circle cx="63.1875cm" cy="5.1875cm" r="0.225cm" />
<rect x="64.25cm" y="4.625cm" width="1.125cm" height="1.125cm" fill="#ffffff" stroke-width="5" />
<circle cx="64.8125cm" cy="5.1875cm" r="0.225cm" />
<rect x="65.875cm" y="4.625cm" width="1.125cm" height="1.125cm" fill="#5a4d6e" stroke-width="5" />
<circle cx="66.4375cm" cy="5.1875cm" r="0.225cm" />
<rect x="67.5cm" y="4.625cm" width="1.125cm" height="1.125cm" fill="#ffffff" stroke-width="5" />
<circle cx="68.0625cm" cy="5.1875cm" r="0.225cm" />
<rect x="69.125cm" y="4.625cm" width="1.125cm" height="1.125cm" fill="#55f896" stroke-width="5" />
<circle cx="69.6875cm" cy="5.1875cm" r="0.225cm" />
<rect x="70.75cm" y="4.625cm" width="1.125cm" height="1.125cm" fill="#ffffff" stroke-width="5" />
<circle cx="71.3125cm" cy="5.1875cm" r="0.225cm" />
<rect x="72.375cm" y="4.625cm" width="1.125cm" height="1.125cm" fill="#859157" stroke-width="5" />
<circle cx="72.9375cm" cy="5.1875cm" r="0.225cm" />
<rect x="74cm" y="4.625cm" width="1.125cm" height="1.125cm" fill="#ffffff" stroke-width="5" />
<circle cx="74.5625cm" cy="5.1875cm" r="0.225cm" />
<rect x="75.625cm" y="4.625cm" width="1.125cm" height="1.125cm" fill="#6abf75" stroke-width="5" />
<circle cx="76.1875cm" cy="5.1875cm" r="0.225cm" />
<rect x="77.25cm" y="4.625cm" width="1.125cm" height="1.125cm" fill="#ffffff" stroke-width="5" />
<circle cx="77.8125cm" cy="5.1875cm" r="0.225cm" />
<rect x="78.875cm" y="4.625cm" width="1.125cm" height="1.125cm" fill="#ffffff" stroke-width="5" />
<circle cx="79.4375cm" cy="5.1875cm" r="0.225cm" />
<rect x="80.5cm" y="4.625cm" width="1.125cm" height="1.125cm" fill="#74a76f" stroke-width="5" />
<circle cx="81.0625cm" cy="5.1875cm" r="0.225cm" />
<rect x="82.125cm" y="4.625cm" width="1.125cm" height="1.125cm" fill="#000" stroke-width="5" />
<circle cx="82.6875cm" cy="5.1875cm" r="0.225cm" />
<rect x="83.75cm" y="4.625cm" width="1.125cm" height="1.125cm" fill="#4e1db0" stroke-width="5" />
<circle cx="84.3125cm" cy="5.1875cm" r="0.225cm" />
<rect x="85.375cm" y="4.625cm" width="1.125cm" height="1.125cm" fill="#4adf29" stroke-width="5" />
<circle cx="85.9375cm" cy="5.1875cm" r="0.225cm" />
<rect x="87cm" y="4.625cm" width="1.125cm" height="1.125cm" fill="#b16cb9" stroke-width="5" />
<circle cx="87.5625cm" cy="5.1875cm" r="0.225cm" />
<rect x="88.625cm" y="4.625cm" width="1.125cm" height="1.125cm" fill="#000" stroke-width="5" />
<circle cx="89.1875cm" cy="5.1875cm" r="0.225cm" />
<rect x="90.25cm" y="4.625cm" width="1.125cm" height="1.125cm" fill="#000" stroke-width="5" />
<circle cx="90.8125cm" cy="5.1875cm" r="0.225cm" />
<rect x="91.875cm" y="4.625cm" width="1.125cm" height="1.125cm" fill="#3b8b60" stroke-width="5" />
<circle cx="92.4375cm" cy="5.1875cm" r="0.225cm" />
<rect x="93.5cm" y="4.625cm" width="1.125cm" height="1.125cm" fill="#000" stroke-width="5" />
<circle cx="94.0625cm" cy="5.1875cm" r="0.225cm" />
<rect x="95.125cm" y="4.625cm" width="1.125cm" height="1.125cm" fill="#c3bc78" stroke-width="5" />
<circle cx="95.6875cm" cy="5.1875cm" r="0.225cm" />
<rect x="96.75cm" y="4.625cm" width="1.125cm" height="1.125cm" fill="#ffffff" stroke-width="5" />
<circle cx="97.3125cm" cy="5.1875cm" r="0.225cm" />
<rect x="98.375cm" y="4.625cm" width="1.125cm" height="1.125cm" fill="#ffffff" stroke-width="5" />
<circle cx="98.9375cm" cy="5.1875cm" r="0.225cm" />
<rect x="100cm" y="4.625cm" width="1.125cm" height="1.125cm" fill="#ffffff" stroke-width="5" />
<circle cx="100.562cm" cy="5.1875cm" r="0.225cm" />
<rect x="101.625cm" y="4.625cm" width="1.125cm" height="1.125cm" fill="#ffffff" stroke-width="5" />
<circle cx="102.188cm" cy="5.1875cm" r="0.225cm" />
<rect x="103.25cm" y="4.625cm" width="1.125cm" height="1.125cm" fill="#ffffff" stroke-width="5" />
<circle cx="103.812cm" cy="5.1875cm" r="0.225cm" />
<rect x="104.875cm" y="4.625cm" width="1.125cm" height="1.125cm" fill="#ffffff" stroke-width="5" />
<circle cx="105.438cm" cy="5.1875cm" r="0.225cm" />
<rect x="106.5cm" y="4.625cm" width="1.125cm" height="1.125cm" fill="#ffffff" stroke-width="5" />
<circle cx="107.062cm" cy="5.1875cm" r="0.225cm" />
<rect x="108.125cm" y="4.625cm" width="1.125cm" height="1.125cm" fill="#ffffff" stroke-width="5" />
<circle cx="108.688cm" cy="5.1875cm" r="0.225cm" />
<rect x="109.75cm" y="4.625cm" width="1.125cm" height="1.125cm" fill="#ffffff" stroke-width="5" />
<circle cx="110.312cm" cy="5.1875cm" r="0.225cm" />
<rect x="111.375cm" y="4.625cm" width="1.125cm" height="1.125cm" fill="#ffffff" stroke-width="5" />
<circle cx="111.938cm" cy="5.1875cm" r="0.225cm" />
<rect x="113cm" y="4.625cm" width="1.125cm" height="1.125cm" fill="#ffffff" stroke-width="5" />
<circle cx="113.562cm" cy="5.1875cm" r="0.225cm" />
<rect x="2.5cm" y="6.75cm" width="1.125cm" height="1.125cm" fill="#a9c7a" stroke-width="5" />
<circle cx="3.0625cm" cy="7.3125cm" r="0.225cm" />
<rect x="4.125cm" y="6.75cm" width="1.125cm" height="1.125cm" fill="#387470" stroke-width="5" />
<circle cx="4.6875cm" cy="7.3125cm" r="0.225cm" />
<rect x="5.75cm" y="6.75cm" width="1.125cm" height="1.125cm" fill="#000" stroke-width="5" />
<circle cx="6.3125cm" cy="7.3125cm" r="0.225cm" />
<rect x="7.375cm" y="6.75cm" width="1.125cm" height="1.125cm" fill="#000" stroke-width="5" />
<circle cx="7.9375cm" cy="7.3125cm" r="0.225cm" />
<rect x="9cm" y="6.75cm" width="1.125cm" height="1.125cm" fill="#000" stroke-width="5" />
<circle cx="9.5625cm" cy="7.3125cm" r="0.225cm" />
<rect x="10.625cm" y="6.75cm" width="1.125cm" height="1.125cm" fill="#000" stroke-width="5" />
<circle cx="11.1875cm" cy="7.3125cm" r="0.225cm" />
<rect x="12.25cm" y="6.75cm" width="1.125cm" height="1.125cm" fill="#000" stroke-width="5" />
<circle cx="12.8125cm" cy="7.3125cm" r="0.225cm" />
<rect x="13.875cm" y="6.75cm" width="1.125cm" height="1.125cm" fill="#000" stroke-width="5" />
<circle cx="14.4375cm" cy="7.3125cm" r="0.225cm" />
<rect x="15.5cm" y="6.75cm" width="1.125cm" height="1.125cm" fill="#000" stroke-width="5" />
<circle cx="16.0625cm" cy="7.3125cm" r="0.225cm" />
<rect x="17.125cm" y="6.75cm" width="1.125cm" height="1.125cm" fill="#000" stroke-width="5" />
<circle cx="17.6875cm" cy="7.3125cm" r="0.225cm" />
<rect x="18.75cm" y="6.75cm" width="1.125cm" height="1.125cm" fill="#000" stroke-width="5" />
<circle cx="19.3125cm" cy="7.3125cm" r="0.225cm" />
<rect x="20.375cm" y="6.75cm" width="1.125cm" height="1.125cm" fill="#000" stroke-width="5" />
<circle cx="20.9375cm" cy="7.3125cm" r="0.225cm" />
<rect x="22cm" y="6.75cm" width="1.125cm" height="1.125cm" fill="#000" stroke-width="5" />
<circle cx="22.5625cm" cy="7.3125cm" r="0.225cm" />
<rect x="23.625cm" y="6.75cm" width="1.125cm" height="1.125cm" fill="#000" stroke-width="5" />
<circle cx="24.1875cm" cy="7.3125cm" r="0.225cm" />
<rect x="25.25cm" y="6.75cm" width="1.125cm" height="1.125cm" fill="#000" stroke-width="5" />
<circle cx="25.8125cm" cy="7.3125cm" r="0.225cm" />
<rect x="26.875cm" y="6.75cm" width="1.125cm" height="1.125cm" fill="#000" stroke-width="5" />
<circle cx="27.4375cm" cy="7.3125cm" r="0.225cm" />
<rect x="28.5cm" y="6.75cm" width="1.125cm" height="1.125cm" fill="#000" stroke-width="5" />
<circle cx="29.0625cm" cy="7.3125cm" r="0.225cm" />
<rect x="30.125cm" y="6.75cm" width="1.125cm" height="1.125cm" fill="#c6e71a" stroke-width="5" />
<circle cx="30.6875cm" cy="7.3125cm" r="0.225cm" />
<rect x="31.75cm" y="6.75cm" width="1.125cm" height="1.125cm" fill="#000" stroke-width="5" />
<circle cx="32.3125cm" cy="7.3125cm" r="0.225cm" />
<rect x="33.375cm" y="6.75cm" width="1.125cm" height="1.125cm" fill="#000" stroke-width="5" />
<circle cx="33.9375cm" cy="7.3125cm" r="0.225cm" />
<rect x="35cm" y="6.75cm" width="1.125cm" height="1.125cm" fill="#387470" stroke-width="5" />
<circle cx="35.5625cm" cy="7.3125cm" r="0.225cm" />
<rect x="36.625cm" y="6.75cm" width="1.125cm" height="1.125cm" fill="#f7d5b2" stroke-width="5" />
<circle cx="37.1875cm" cy="7.3125cm" r="0.225cm" />
<rect x="38.25cm" y="6.75cm" width="1.125cm" height="1.125cm" fill="#000" stroke-width="5" />
<circle cx="38.8125cm" cy="7.3125cm" r="0.225cm" />
<rect x="39.875cm" y="6.75cm" width="1.125cm" height="1.125cm" fill="#000" stroke-width="5" />
<circle cx="40.4375cm" cy="7.3125cm" r="0.225cm" />
<rect x="41.5cm" y="6.75cm" width="1.125cm" height="1.125cm" fill="#000" stroke-width="5" />
<circle cx="42.0625cm" cy="7.3125cm" r="0.225cm" />
<rect x="43.125cm" y="6.75cm" width="1.125cm" height="1.125cm" fill="#000" stroke-width="5" />
<circle cx="43.6875cm" cy="7.3125cm" r="0.225cm" />
<rect x="44.75cm" y="6.75cm" width="1.125cm" height="1.125cm" fill="#000" stroke-width="5" />
<circle cx="45.3125cm" cy="7.3125cm" r="0.225cm" />
<rect x="46.375cm" y="6.75cm" width="1.125cm" height="1.125cm" fill="#000" stroke-width="5" />
<circle cx="46.9375cm" cy="7.3125cm" r="0.225cm" />
<rect x="48cm" y="6.75cm" width="1.125cm" height="1.125cm" fill="#000" stroke-width="5" />
<circle cx="48.5625cm" cy="7.3125cm" r="0.225cm" />
<rect x="49.625cm" y="6.75cm" width="1.125cm" height="1.125cm" fill="#000" stroke-width="5" />
<circle cx="50.1875cm" cy="7.3125cm" r="0.225cm" />
<rect x="51.25cm" y="6.75cm" width="1.125cm" height="1.125cm" fill="#000" stroke-width="5" />
<circle cx="51.8125cm" cy="7.3125cm" r="0.225cm" />
<rect x="52.875cm" y="6.75cm" width="1.125cm" height="1.125cm" fill="#000" stroke-width="5" />
<circle cx="53.4375cm" cy="7.3125cm" r="0.225cm" />
<rect x="54.5cm" y="6.75cm" width="1.125cm" height="1.125cm" fill="#000" stroke-width="5" />
<circle cx="55.0625cm" cy="7.3125cm" r="0.225cm" />
<rect x="56.125cm" y="6.75cm" width="1.125cm" height="1.125cm" fill="#000" stroke-width="5" />
<circle cx="56.6875cm" cy="7.3125cm" r="0.225cm" />
<rect x="57.75cm" y="6.75cm" width="1.125cm" height="1.125cm" fill="#000" stroke-width="5" />
<circle cx="58.3125cm" cy="7.3125cm" r="0.225cm" />
<rect x="59.375cm" y="6.75cm" width="1.125cm" height="1.125cm" fill="#000" stroke-width="5" />
<circle cx="59.9375cm" cy="7.3125cm" r="0.225cm" />
<rect x="61cm" y="6.75cm" width="1.125cm" height="1.125cm" fill="#9989f6" stroke-width="5" />
<circle cx="61.5625cm" cy="7.3125cm" r="0.225cm" />
<rect x="62.625cm" y="6.75cm" width="1.125cm" height="1.125cm" fill="#ffffff" stroke-width="5" />
<circle cx="63.1875cm" cy="7.3125cm" r="0.225cm" />
<rect x="64.25cm" y="6.75cm" width="1.125cm" height="1.125cm" fill="#000" stroke-width="5" />
<circle cx="64.8125cm" cy="7.3125cm" r="0.225cm" />
<rect x="65.875cm" y="6.75cm" width="1.125cm" height="1.125cm" fill="#ffffff" stroke-width="5" />
<circle cx="66.4375cm" cy="7.3125cm" r="0.225cm" />
<rect x="67.5cm" y="6.75cm" width="1.125cm" height="1.125cm" fill="#000" stroke-width="5" />
<circle cx="68.0625cm" cy="7.3125cm" r="0.225cm" />
<rect x="69.125cm" y="6.75cm" width="1.125cm" height="1.125cm" fill="#ffffff" stroke-width="5" />
<circle cx="69.6875cm" cy="7.3125cm" r="0.225cm" />
<rect x="70.75cm" y="6.75cm" width="1.125cm" height="1.125cm" fill="#000" stroke-width="5" />
<circle cx="71.3125cm" cy="7.3125cm" r="0.225cm" />
<rect x="72.375cm" y="6.75cm" width="1.125cm" height="1.125cm" fill="#ffffff" stroke-width="5" />
<circle cx="72.9375cm" cy="7.3125cm" r="0.225cm" />
<rect x="74cm" y="6.75cm" width="1.125cm" height="1.125cm" fill="#000" stroke-width="5" />
<circle cx="74.5625cm" cy="7.3125cm" r="0.225cm" />
<rect x="75.625cm" y="6.75cm" width="1.125cm" height="1.125cm" fill="#ffffff" stroke-width="5" />
<circle cx="76.1875cm" cy="7.3125cm" r="0.225cm" />
<rect x="77.25cm" y="6.75cm" width="1.125cm" height="1.125cm" fill="#d6ae4b" stroke-width="5" />
<circle cx="77.8125cm" cy="7.3125cm" r="0.225cm" />
<rect x="78.875cm" y="6.75cm" width="1.125cm" height="1.125cm" fill="#000" stroke-width="5" />
<circle cx="79.4375cm" cy="7.3125cm" r="0.225cm" />
<rect x="80.5cm" y="6.75cm" width="1.125cm" height="1.125cm" fill="#000" stroke-width="5" />
<circle cx="81.0625cm" cy="7.3125cm" r="0.225cm" />
<rect x="82.125cm" y="6.75cm" width="1.125cm" height="1.125cm" fill="#000" stroke-width="5" />
<circle cx="82.6875cm" cy="7.3125cm" r="0.225cm" />
<rect x="83.75cm" y="6.75cm" width="1.125cm" height="1.125cm" fill="#000" stroke-width="5" />
<circle cx="84.3125cm" cy="7.3125cm" r="0.225cm" />
<rect x="85.375cm" y="6.75cm" width="1.125cm" height="1.125cm" fill="#000" stroke-width="5" />
<circle cx="85.9375cm" cy="7.3125cm" r="0.225cm" />
<rect x="87cm" y="6.75cm" width="1.125cm" height="1.125cm" fill="#000" stroke-width="5" />
<circle cx="87.5625cm" cy="7.3125cm" r="0.225cm" />
<rect x="88.625cm" y="6.75cm" width="1.125cm" height="1.125cm" fill="#000" stroke-width="5" />
<circle cx="89.1875cm" cy="7.3125cm" r="0.225cm" />
<rect x="90.25cm" y="6.75cm" width="1.125cm" height="1.125cm" fill="#000" stroke-width="5" />
<circle cx="90.8125cm" cy="7.3125cm" r="0.225cm" />
<rect x="91.875cm" y="6.75cm" width="1.125cm" height="1.125cm" fill="#000" stroke-width="5" />
<circle cx="92.4375cm" cy="7.3125cm" r="0.225cm" />
<rect x="93.5cm" y="6.75cm" width="1.125cm" height="1.125cm" fill="#000" stroke-width="5" />
<circle cx="94.0625cm" cy="7.3125cm" r="0.225cm" />
<rect x="95.125cm" y="6.75cm" width="1.125cm" height="1.125cm" fill="#000" stroke-width="5" />
<circle cx="95.6875cm" cy="7.3125cm" r="0.225cm" />
<rect x="96.75cm" y="6.75cm" width="1.125cm" height="1.125cm" fill="#000" stroke-width="5" />
<circle cx="97.3125cm" cy="7.3125cm" r="0.225cm" />
<rect x="98.375cm" y="6.75cm" width="1.125cm" height="1.125cm" fill="#000" stroke-width="5" />
<circle cx="98.9375cm" cy="7.3125cm" r="0.225cm" />
<rect x="100cm" y="6.75cm" width="1.125cm" height="1.125cm" fill="#000" stroke-width="5" />
<circle cx="100.562cm" cy="7.3125cm" r="0.225cm" />
<rect x="101.625cm" y="6.75cm" width="1.125cm" height="1.125cm" fill="#000" stroke-width="5" />
<circle cx="102.188cm" cy="7.3125cm" r="0.225cm" />
<rect x="103.25cm" y="6.75cm" width="1.125cm" height="1.125cm" fill="#e734ea" stroke-width="5" />
<circle cx="103.812cm" cy="7.3125cm" r="0.225cm" />
<rect x="104.875cm" y="6.75cm" width="1.125cm" height="1.125cm" fill="#000" stroke-width="5" />
<circle cx="105.438cm" cy="7.3125cm" r="0.225cm" />
<rect x="106.5cm" y="6.75cm" width="1.125cm" height="1.125cm" fill="#9989f6" stroke-width="5" />
<circle cx="107.062cm" cy="7.3125cm" r="0.225cm" />
<rect x="108.125cm" y="6.75cm" width="1.125cm" height="1.125cm" fill="#000" stroke-width="5" />
<circle cx="108.688cm" cy="7.3125cm" r="0.225cm" />
<rect x="109.75cm" y="6.75cm" width="1.125cm" height="1.125cm" fill="#000" stroke-width="5" />
<circle cx="110.312cm" cy="7.3125cm" r="0.225cm" />
<rect x="111.375cm" y="6.75cm" width="1.125cm" height="1.125cm" fill="#000" stroke-width="5" />
<circle cx="111.938cm" cy="7.3125cm" r="0.225cm" />
<rect x="113cm" y="6.75cm" width="1.125cm" height="1.125cm" fill="#387470" stroke-width="5" />
<circle cx="113.562cm" cy="7.3125cm" r="0.225cm" />
<text x="2.5cm" y="2.3875cm" font-family="Verdana" font-size="6" fill="black" >
AT1G79040
</text>
<text x="4.125cm" y="2.3875cm" font-family="Verdana" font-size="6" fill="black" >
AT1G79050
</text>
<text x="7.375cm" y="2.3875cm" font-family="Verdana" font-size="6" fill="black" >
AT1G79060
</text>
<text x="9cm" y="2.3875cm" font-family="Verdana" font-size="6" fill="black" >
AT1G79070
</text>
<text x="10.625cm" y="2.3875cm" font-family="Verdana" font-size="6" fill="black" >
AT1G79080
</text>
<text x="13.875cm" y="2.3875cm" font-family="Verdana" font-size="6" fill="black" >
AT1G79090
</text>
<text x="15.5cm" y="2.3875cm" font-family="Verdana" font-size="6" fill="black" >
AT1G79100
</text>
<text x="17.125cm" y="2.3875cm" font-family="Verdana" font-size="6" fill="black" >
AT1G79110
</text>
<text x="20.375cm" y="2.3875cm" font-family="Verdana" font-size="6" fill="black" >
AT1G79120
</text>
<text x="22cm" y="2.3875cm" font-family="Verdana" font-size="6" fill="black" >
AT1G79130
</text>
<text x="23.625cm" y="2.3875cm" font-family="Verdana" font-size="6" fill="black" >
AT1G79140
</text>
<text x="25.25cm" y="2.3875cm" font-family="Verdana" font-size="6" fill="black" >
AT1G79160
</text>
<text x="26.875cm" y="2.3875cm" font-family="Verdana" font-size="6" fill="black" >
AT1G79170
</text>
<text x="30.125cm" y="2.3875cm" font-family="Verdana" font-size="6" fill="black" >
AT1G79180
</text>
<text x="31.75cm" y="2.3875cm" font-family="Verdana" font-size="6" fill="black" >
AT1G79190
</text>
<text x="35cm" y="2.3875cm" font-family="Verdana" font-size="6" fill="black" >
AT1G79200
</text>
<text x="36.625cm" y="2.3875cm" font-family="Verdana" font-size="6" fill="black" >
AT1G79210
</text>
<text x="38.25cm" y="2.3875cm" font-family="Verdana" font-size="6" fill="black" >
AT1G79220
</text>
<text x="39.875cm" y="2.3875cm" font-family="Verdana" font-size="6" fill="black" >
AT1G79230
</text>
<text x="43.125cm" y="2.3875cm" font-family="Verdana" font-size="6" fill="black" >
AT1G79250
</text>
<text x="44.75cm" y="2.3875cm" font-family="Verdana" font-size="6" fill="black" >
AT1G79260
</text>
<text x="46.375cm" y="2.3875cm" font-family="Verdana" font-size="6" fill="black" >
AT1G79270
</text>
<text x="48cm" y="2.3875cm" font-family="Verdana" font-size="6" fill="black" >
AT1G79280
</text>
<text x="49.625cm" y="2.3875cm" font-family="Verdana" font-size="6" fill="black" >
AT1G79310
</text>
<text x="52.875cm" y="2.3875cm" font-family="Verdana" font-size="6" fill="black" >
AT1G79350
</text>
<text x="57.75cm" y="2.3875cm" font-family="Verdana" font-size="6" fill="black" >
AT1G79360
</text>
<text x="61cm" y="2.3875cm" font-family="Verdana" font-size="6" fill="black" >
AT1G79370
</text>
<text x="62.625cm" y="2.3875cm" font-family="Verdana" font-size="6" fill="black" >
AT1G79380
</text>
<text x="64.25cm" y="2.3875cm" font-family="Verdana" font-size="6" fill="black" >
AT1G79390
</text>
<text x="65.875cm" y="2.3875cm" font-family="Verdana" font-size="6" fill="black" >
AT1G79400
</text>
<text x="67.5cm" y="2.3875cm" font-family="Verdana" font-size="6" fill="black" >
AT1G79420
</text>
<text x="69.125cm" y="2.3875cm" font-family="Verdana" font-size="6" fill="black" >
AT1G79430
</text>
<text x="70.75cm" y="2.3875cm" font-family="Verdana" font-size="6" fill="black" >
AT1G79440
</text>
<text x="72.375cm" y="2.3875cm" font-family="Verdana" font-size="6" fill="black" >
AT1G79450
</text>
<text x="74cm" y="2.3875cm" font-family="Verdana" font-size="6" fill="black" >
AT1G79460
</text>
<text x="75.625cm" y="2.3875cm" font-family="Verdana" font-size="6" fill="black" >
AT1G79470
</text>
<text x="77.25cm" y="2.3875cm" font-family="Verdana" font-size="6" fill="black" >
AT1G79480
</text>
<text x="78.875cm" y="2.3875cm" font-family="Verdana" font-size="6" fill="black" >
AT1G79490
</text>
<text x="80.5cm" y="2.3875cm" font-family="Verdana" font-size="6" fill="black" >
AT1G79500
</text>
<text x="83.75cm" y="2.3875cm" font-family="Verdana" font-size="6" fill="black" >
AT1G79510
</text>
<text x="85.375cm" y="2.3875cm" font-family="Verdana" font-size="6" fill="black" >
AT1G79520
</text>
<text x="87cm" y="2.3875cm" font-family="Verdana" font-size="6" fill="black" >
AT1G79530
</text>
<text x="88.625cm" y="2.3875cm" font-family="Verdana" font-size="6" fill="black" >
AT1G79550
</text>
<text x="90.25cm" y="2.3875cm" font-family="Verdana" font-size="6" fill="black" >
AT1G79560
</text>
<text x="91.875cm" y="2.3875cm" font-family="Verdana" font-size="6" fill="black" >
AT1G79570
</text>
<text x="93.5cm" y="2.3875cm" font-family="Verdana" font-size="6" fill="black" >
AT1G79580
</text>
<text x="95.125cm" y="2.3875cm" font-family="Verdana" font-size="6" fill="black" >
AT1G79590
</text>
<text x="101.625cm" y="2.3875cm" font-family="Verdana" font-size="6" fill="black" >
AT1G79600
</text>
<text x="106.5cm" y="2.3875cm" font-family="Verdana" font-size="6" fill="black" >
AT1G79610
</text>
<text x="113cm" y="2.3875cm" font-family="Verdana" font-size="6" fill="black" >
AT1G79620
</text>
<text x="2.5cm" y="4.5125cm" font-family="Verdana" font-size="6" fill="black" >
AT1G16670
</text>
<text x="4.125cm" y="4.5125cm" font-family="Verdana" font-size="6" fill="black" >
AT1G16650
</text>
<text x="5.75cm" y="4.5125cm" font-family="Verdana" font-size="6" fill="black" >
AT1G16640
</text>
<text x="7.375cm" y="4.5125cm" font-family="Verdana" font-size="6" fill="black" >
AT1G16630
</text>
<text x="9cm" y="4.5125cm" font-family="Verdana" font-size="6" fill="black" >
AT1G16610
</text>
<text x="10.625cm" y="4.5125cm" font-family="Verdana" font-size="6" fill="black" >
AT1G16590
</text>
<text x="12.25cm" y="4.5125cm" font-family="Verdana" font-size="6" fill="black" >
AT1G16570
</text>
<text x="13.875cm" y="4.5125cm" font-family="Verdana" font-size="6" fill="black" >
AT1G16560
</text>
<text x="15.5cm" y="4.5125cm" font-family="Verdana" font-size="6" fill="black" >
AT1G16540
</text>
<text x="17.125cm" y="4.5125cm" font-family="Verdana" font-size="6" fill="black" >
AT1G16530
</text>
<text x="18.75cm" y="4.5125cm" font-family="Verdana" font-size="6" fill="black" >
AT1G16520
</text>
<text x="20.375cm" y="4.5125cm" font-family="Verdana" font-size="6" fill="black" >
AT1G16515
</text>
<text x="22cm" y="4.5125cm" font-family="Verdana" font-size="6" fill="black" >
AT1G16510
</text>
<text x="25.25cm" y="4.5125cm" font-family="Verdana" font-size="6" fill="black" >
AT1G16500
</text>
<text x="30.125cm" y="4.5125cm" font-family="Verdana" font-size="6" fill="black" >
AT1G16490
</text>
<text x="33.375cm" y="4.5125cm" font-family="Verdana" font-size="6" fill="black" >
AT1G16480
</text>
<text x="36.625cm" y="4.5125cm" font-family="Verdana" font-size="6" fill="black" >
AT1G16470
</text>
<text x="39.875cm" y="4.5125cm" font-family="Verdana" font-size="6" fill="black" >
AT1G16460
</text>
<text x="41.5cm" y="4.5125cm" font-family="Verdana" font-size="6" fill="black" >
AT1G16445
</text>
<text x="43.125cm" y="4.5125cm" font-family="Verdana" font-size="6" fill="black" >
AT1G16440
</text>
<text x="46.375cm" y="4.5125cm" font-family="Verdana" font-size="6" fill="black" >
AT1G16430
</text>
<text x="49.625cm" y="4.5125cm" font-family="Verdana" font-size="6" fill="black" >
AT1G16420
</text>
<text x="61cm" y="4.5125cm" font-family="Verdana" font-size="6" fill="black" >
AT1G16400
</text>
<text x="65.875cm" y="4.5125cm" font-family="Verdana" font-size="6" fill="black" >
AT1G16380
</text>
<text x="69.125cm" y="4.5125cm" font-family="Verdana" font-size="6" fill="black" >
AT1G16370
</text>
<text x="72.375cm" y="4.5125cm" font-family="Verdana" font-size="6" fill="black" >
AT1G16360
</text>
<text x="75.625cm" y="4.5125cm" font-family="Verdana" font-size="6" fill="black" >
AT1G16350
</text>
<text x="80.5cm" y="4.5125cm" font-family="Verdana" font-size="6" fill="black" >
AT1G16340
</text>
<text x="82.125cm" y="4.5125cm" font-family="Verdana" font-size="6" fill="black" >
AT1G16330
</text>
<text x="83.75cm" y="4.5125cm" font-family="Verdana" font-size="6" fill="black" >
AT1G16320
</text>
<text x="85.375cm" y="4.5125cm" font-family="Verdana" font-size="6" fill="black" >
AT1G16310
</text>
<text x="87cm" y="4.5125cm" font-family="Verdana" font-size="6" fill="black" >
AT1G16300
</text>
<text x="88.625cm" y="4.5125cm" font-family="Verdana" font-size="6" fill="black" >
AT1G16290
</text>
<text x="90.25cm" y="4.5125cm" font-family="Verdana" font-size="6" fill="black" >
AT1G16280
</text>
<text x="91.875cm" y="4.5125cm" font-family="Verdana" font-size="6" fill="black" >
AT1G16270
</text>
<text x="93.5cm" y="4.5125cm" font-family="Verdana" font-size="6" fill="black" >
AT1G16250
</text>
<text x="95.125cm" y="4.5125cm" font-family="Verdana" font-size="6" fill="black" >
AT1G16225
</text>
<text x="2.5cm" y="6.6375cm" font-family="Verdana" font-size="6" fill="black" >
AT5G35370
</text>
<text x="4.125cm" y="6.6375cm" font-family="Verdana" font-size="6" fill="black" >
AT5G35380
</text>
<text x="5.75cm" y="6.6375cm" font-family="Verdana" font-size="6" fill="black" >
AT5G35390
</text>
<text x="7.375cm" y="6.6375cm" font-family="Verdana" font-size="6" fill="black" >
AT5G35400
</text>
<text x="9cm" y="6.6375cm" font-family="Verdana" font-size="6" fill="black" >
AT5G35410
</text>
<text x="10.625cm" y="6.6375cm" font-family="Verdana" font-size="6" fill="black" >
AT5G35430
</text>
<text x="12.25cm" y="6.6375cm" font-family="Verdana" font-size="6" fill="black" >
AT5G35450
</text>
<text x="13.875cm" y="6.6375cm" font-family="Verdana" font-size="6" fill="black" >
AT5G35460
</text>
<text x="15.5cm" y="6.6375cm" font-family="Verdana" font-size="6" fill="black" >
AT5G35470
</text>
<text x="17.125cm" y="6.6375cm" font-family="Verdana" font-size="6" fill="black" >
AT5G35475
</text>
<text x="18.75cm" y="6.6375cm" font-family="Verdana" font-size="6" fill="black" >
AT5G35480
</text>
<text x="20.375cm" y="6.6375cm" font-family="Verdana" font-size="6" fill="black" >
AT5G35490
</text>
<text x="22cm" y="6.6375cm" font-family="Verdana" font-size="6" fill="black" >
AT5G35510
</text>
<text x="23.625cm" y="6.6375cm" font-family="Verdana" font-size="6" fill="black" >
AT5G35520
</text>
<text x="25.25cm" y="6.6375cm" font-family="Verdana" font-size="6" fill="black" >
AT5G35525
</text>
<text x="26.875cm" y="6.6375cm" font-family="Verdana" font-size="6" fill="black" >
AT5G35530
</text>
<text x="28.5cm" y="6.6375cm" font-family="Verdana" font-size="6" fill="black" >
AT5G35540
</text>
<text x="30.125cm" y="6.6375cm" font-family="Verdana" font-size="6" fill="black" >
AT5G35550
</text>
<text x="31.75cm" y="6.6375cm" font-family="Verdana" font-size="6" fill="black" >
AT5G35560
</text>
<text x="33.375cm" y="6.6375cm" font-family="Verdana" font-size="6" fill="black" >
AT5G35570
</text>
<text x="35cm" y="6.6375cm" font-family="Verdana" font-size="6" fill="black" >
AT5G35580
</text>
<text x="36.625cm" y="6.6375cm" font-family="Verdana" font-size="6" fill="black" >
AT5G35590
</text>
<text x="38.25cm" y="6.6375cm" font-family="Verdana" font-size="6" fill="black" >
AT5G35600
</text>
<text x="39.875cm" y="6.6375cm" font-family="Verdana" font-size="6" fill="black" >
AT5G35603
</text>
<text x="41.5cm" y="6.6375cm" font-family="Verdana" font-size="6" fill="black" >
AT5G35610
</text>
<text x="43.125cm" y="6.6375cm" font-family="Verdana" font-size="6" fill="black" >
AT5G35620
</text>
<text x="44.75cm" y="6.6375cm" font-family="Verdana" font-size="6" fill="black" >
AT5G35630
</text>
<text x="46.375cm" y="6.6375cm" font-family="Verdana" font-size="6" fill="black" >
AT5G35640
</text>
<text x="48cm" y="6.6375cm" font-family="Verdana" font-size="6" fill="black" >
AT5G35646
</text>
<text x="49.625cm" y="6.6375cm" font-family="Verdana" font-size="6" fill="black" >
AT5G35650
</text>
<text x="51.25cm" y="6.6375cm" font-family="Verdana" font-size="6" fill="black" >
AT5G35655
</text>
<text x="52.875cm" y="6.6375cm" font-family="Verdana" font-size="6" fill="black" >
AT5G35670
</text>
<text x="54.5cm" y="6.6375cm" font-family="Verdana" font-size="6" fill="black" >
AT5G35680
</text>
<text x="56.125cm" y="6.6375cm" font-family="Verdana" font-size="6" fill="black" >
AT5G35690
</text>
<text x="57.75cm" y="6.6375cm" font-family="Verdana" font-size="6" fill="black" >
AT5G35695
</text>
<text x="59.375cm" y="6.6375cm" font-family="Verdana" font-size="6" fill="black" >
AT5G35700
</text>
<text x="61cm" y="6.6375cm" font-family="Verdana" font-size="6" fill="black" >
AT5G35715
</text>
<text x="64.25cm" y="6.6375cm" font-family="Verdana" font-size="6" fill="black" >
AT5G35730
</text>
<text x="67.5cm" y="6.6375cm" font-family="Verdana" font-size="6" fill="black" >
AT5G35732
</text>
<text x="70.75cm" y="6.6375cm" font-family="Verdana" font-size="6" fill="black" >
AT5G35735
</text>
<text x="74cm" y="6.6375cm" font-family="Verdana" font-size="6" fill="black" >
AT5G35737
</text>
<text x="77.25cm" y="6.6375cm" font-family="Verdana" font-size="6" fill="black" >
AT5G35740
</text>
<text x="78.875cm" y="6.6375cm" font-family="Verdana" font-size="6" fill="black" >
AT5G35750
</text>
<text x="80.5cm" y="6.6375cm" font-family="Verdana" font-size="6" fill="black" >
AT5G35753
</text>
<text x="82.125cm" y="6.6375cm" font-family="Verdana" font-size="6" fill="black" >
AT5G35760
</text>
<text x="83.75cm" y="6.6375cm" font-family="Verdana" font-size="6" fill="black" >
AT5G35770
</text>
<text x="85.375cm" y="6.6375cm" font-family="Verdana" font-size="6" fill="black" >
AT5G35790
</text>
<text x="87cm" y="6.6375cm" font-family="Verdana" font-size="6" fill="black" >
AT5G35792
</text>
<text x="88.625cm" y="6.6375cm" font-family="Verdana" font-size="6" fill="black" >
AT5G35794
</text>
<text x="90.25cm" y="6.6375cm" font-family="Verdana" font-size="6" fill="black" >
AT5G35805
</text>
<text x="91.875cm" y="6.6375cm" font-family="Verdana" font-size="6" fill="black" >
AT5G35810
</text>
<text x="93.5cm" y="6.6375cm" font-family="Verdana" font-size="6" fill="black" >
AT5G35830
</text>
<text x="95.125cm" y="6.6375cm" font-family="Verdana" font-size="6" fill="black" >
AT5G35840
</text>
<text x="96.75cm" y="6.6375cm" font-family="Verdana" font-size="6" fill="black" >
AT5G35860
</text>
<text x="98.375cm" y="6.6375cm" font-family="Verdana" font-size="6" fill="black" >
AT5G35870
</text>
<text x="100cm" y="6.6375cm" font-family="Verdana" font-size="6" fill="black" >
AT5G35880
</text>
<text x="101.625cm" y="6.6375cm" font-family="Verdana" font-size="6" fill="black" >
AT5G35890
</text>
<text x="103.25cm" y="6.6375cm" font-family="Verdana" font-size="6" fill="black" >
AT5G35900
</text>
<text x="104.875cm" y="6.6375cm" font-family="Verdana" font-size="6" fill="black" >
AT5G35910
</text>
<text x="106.5cm" y="6.6375cm" font-family="Verdana" font-size="6" fill="black" >
AT5G35917
</text>
<text x="108.125cm" y="6.6375cm" font-family="Verdana" font-size="6" fill="black" >
AT5G35930
</text>
<text x="109.75cm" y="6.6375cm" font-family="Verdana" font-size="6" fill="black" >
AT5G35940
</text>
<text x="111.375cm" y="6.6375cm" font-family="Verdana" font-size="6" fill="black" >
AT5G35945
</text>
<text x="113cm" y="6.6375cm" font-family="Verdana" font-size="6" fill="black" >
AT5G35960
</text>
<text x="0.5cm" y="3.0625cm" font-family="Verdana" font-size="25" fill="black" >
ath 1
</text>
<text x="0.5cm" y="5.1875cm" font-family="Verdana" font-size="25" fill="black" >
ath 1
</text>
<text x="0.5cm" y="7.3125cm" font-family="Verdana" font-size="25" fill="black" >
ath 5
</text>
<line x1="58.3125cm" y1="3.0625cm" x2="69.6875cm" y2="5.1875cm" stroke="black" stroke-width="2" />
</svg>
