<?xml version="1.0" standalone="yes"?>
<svg xmlns="http://www.w3.org/2000/svg" width="174.75cm" height="6.75cm" >
<rect x="2.5cm" y="2.5cm" width="1.125cm" height="1.125cm" fill="#f111e9" stroke-width="5" />
<circle cx="3.0625cm" cy="3.0625cm" r="0.225cm" />
<rect x="4.125cm" y="2.5cm" width="1.125cm" height="1.125cm" fill="#000" stroke-width="5" />
<circle cx="4.6875cm" cy="3.0625cm" r="0.225cm" />
<rect x="5.75cm" y="2.5cm" width="1.125cm" height="1.125cm" fill="#000" stroke-width="5" />
<circle cx="6.3125cm" cy="3.0625cm" r="0.225cm" />
<rect x="7.375cm" y="2.5cm" width="1.125cm" height="1.125cm" fill="#000" stroke-width="5" />
<circle cx="7.9375cm" cy="3.0625cm" r="0.225cm" />
<rect x="9cm" y="2.5cm" width="1.125cm" height="1.125cm" fill="#000" stroke-width="5" />
<circle cx="9.5625cm" cy="3.0625cm" r="0.225cm" />
<rect x="10.625cm" y="2.5cm" width="1.125cm" height="1.125cm" fill="#000" stroke-width="5" />
<circle cx="11.1875cm" cy="3.0625cm" r="0.225cm" />
<rect x="12.25cm" y="2.5cm" width="1.125cm" height="1.125cm" fill="#000" stroke-width="5" />
<circle cx="12.8125cm" cy="3.0625cm" r="0.225cm" />
<rect x="13.875cm" y="2.5cm" width="1.125cm" height="1.125cm" fill="#000" stroke-width="5" />
<circle cx="14.4375cm" cy="3.0625cm" r="0.225cm" />
<rect x="15.5cm" y="2.5cm" width="1.125cm" height="1.125cm" fill="#000" stroke-width="5" />
<circle cx="16.0625cm" cy="3.0625cm" r="0.225cm" />
<rect x="17.125cm" y="2.5cm" width="1.125cm" height="1.125cm" fill="#000" stroke-width="5" />
<circle cx="17.6875cm" cy="3.0625cm" r="0.225cm" />
<rect x="18.75cm" y="2.5cm" width="1.125cm" height="1.125cm" fill="#3f3e7" stroke-width="5" />
<circle cx="19.3125cm" cy="3.0625cm" r="0.225cm" />
<rect x="20.375cm" y="2.5cm" width="1.125cm" height="1.125cm" fill="#000" stroke-width="5" />
<circle cx="20.9375cm" cy="3.0625cm" r="0.225cm" />
<rect x="22cm" y="2.5cm" width="1.125cm" height="1.125cm" fill="#000" stroke-width="5" />
<circle cx="22.5625cm" cy="3.0625cm" r="0.225cm" />
<rect x="23.625cm" y="2.5cm" width="1.125cm" height="1.125cm" fill="#000" stroke-width="5" />
<circle cx="24.1875cm" cy="3.0625cm" r="0.225cm" />
<rect x="25.25cm" y="2.5cm" width="1.125cm" height="1.125cm" fill="#000" stroke-width="5" />
<circle cx="25.8125cm" cy="3.0625cm" r="0.225cm" />
<rect x="26.875cm" y="2.5cm" width="1.125cm" height="1.125cm" fill="#c2db25" stroke-width="5" />
<circle cx="27.4375cm" cy="3.0625cm" r="0.225cm" />
<rect x="28.5cm" y="2.5cm" width="1.125cm" height="1.125cm" fill="#4a7442" stroke-width="5" />
<circle cx="29.0625cm" cy="3.0625cm" r="0.225cm" />
<rect x="30.125cm" y="2.5cm" width="1.125cm" height="1.125cm" fill="#ffffff" stroke-width="5" />
<circle cx="30.6875cm" cy="3.0625cm" r="0.225cm" />
<rect x="31.75cm" y="2.5cm" width="1.125cm" height="1.125cm" fill="#000" stroke-width="5" />
<circle cx="32.3125cm" cy="3.0625cm" r="0.225cm" />
<rect x="33.375cm" y="2.5cm" width="1.125cm" height="1.125cm" fill="#57a837" stroke-width="5" />
<circle cx="33.9375cm" cy="3.0625cm" r="0.225cm" />
<rect x="35cm" y="2.5cm" width="1.125cm" height="1.125cm" fill="#ffffff" stroke-width="5" />
<circle cx="35.5625cm" cy="3.0625cm" r="0.225cm" />
<rect x="36.625cm" y="2.5cm" width="1.125cm" height="1.125cm" fill="#38e71c" stroke-width="5" />
<circle cx="37.1875cm" cy="3.0625cm" r="0.225cm" />
<rect x="38.25cm" y="2.5cm" width="1.125cm" height="1.125cm" fill="#000" stroke-width="5" />
<circle cx="38.8125cm" cy="3.0625cm" r="0.225cm" />
<rect x="39.875cm" y="2.5cm" width="1.125cm" height="1.125cm" fill="#000" stroke-width="5" />
<circle cx="40.4375cm" cy="3.0625cm" r="0.225cm" />
<rect x="41.5cm" y="2.5cm" width="1.125cm" height="1.125cm" fill="#000" stroke-width="5" />
<circle cx="42.0625cm" cy="3.0625cm" r="0.225cm" />
<rect x="43.125cm" y="2.5cm" width="1.125cm" height="1.125cm" fill="#000" stroke-width="5" />
<circle cx="43.6875cm" cy="3.0625cm" r="0.225cm" />
<rect x="44.75cm" y="2.5cm" width="1.125cm" height="1.125cm" fill="#000" stroke-width="5" />
<circle cx="45.3125cm" cy="3.0625cm" r="0.225cm" />
<rect x="46.375cm" y="2.5cm" width="1.125cm" height="1.125cm" fill="#000" stroke-width="5" />
<circle cx="46.9375cm" cy="3.0625cm" r="0.225cm" />
<rect x="48cm" y="2.5cm" width="1.125cm" height="1.125cm" fill="#000" stroke-width="5" />
<circle cx="48.5625cm" cy="3.0625cm" r="0.225cm" />
<rect x="49.625cm" y="2.5cm" width="1.125cm" height="1.125cm" fill="#000" stroke-width="5" />
<circle cx="50.1875cm" cy="3.0625cm" r="0.225cm" />
<rect x="51.25cm" y="2.5cm" width="1.125cm" height="1.125cm" fill="#000" stroke-width="5" />
<circle cx="51.8125cm" cy="3.0625cm" r="0.225cm" />
<rect x="52.875cm" y="2.5cm" width="1.125cm" height="1.125cm" fill="#a47c29" stroke-width="5" />
<circle cx="53.4375cm" cy="3.0625cm" r="0.225cm" />
<rect x="54.5cm" y="2.5cm" width="1.125cm" height="1.125cm" fill="#000" stroke-width="5" />
<circle cx="55.0625cm" cy="3.0625cm" r="0.225cm" />
<rect x="56.125cm" y="2.5cm" width="1.125cm" height="1.125cm" fill="#000" stroke-width="5" />
<circle cx="56.6875cm" cy="3.0625cm" r="0.225cm" />
<rect x="57.75cm" y="2.5cm" width="1.125cm" height="1.125cm" fill="#000" stroke-width="5" />
<circle cx="58.3125cm" cy="3.0625cm" r="0.225cm" />
<rect x="59.375cm" y="2.5cm" width="1.125cm" height="1.125cm" fill="#000" stroke-width="5" />
<circle cx="59.9375cm" cy="3.0625cm" r="0.225cm" />
<rect x="61cm" y="2.5cm" width="1.125cm" height="1.125cm" fill="#000" stroke-width="5" />
<circle cx="61.5625cm" cy="3.0625cm" r="0.225cm" />
<rect x="62.625cm" y="2.5cm" width="1.125cm" height="1.125cm" fill="#000" stroke-width="5" />
<circle cx="63.1875cm" cy="3.0625cm" r="0.225cm" />
<rect x="64.25cm" y="2.5cm" width="1.125cm" height="1.125cm" fill="#000" stroke-width="5" />
<circle cx="64.8125cm" cy="3.0625cm" r="0.225cm" />
<rect x="65.875cm" y="2.5cm" width="1.125cm" height="1.125cm" fill="#000" stroke-width="5" />
<circle cx="66.4375cm" cy="3.0625cm" r="0.225cm" />
<rect x="67.5cm" y="2.5cm" width="1.125cm" height="1.125cm" fill="#38aebb" stroke-width="5" />
<circle cx="68.0625cm" cy="3.0625cm" r="0.225cm" />
<rect x="69.125cm" y="2.5cm" width="1.125cm" height="1.125cm" fill="#a389d" stroke-width="5" />
<circle cx="69.6875cm" cy="3.0625cm" r="0.225cm" />
<rect x="70.75cm" y="2.5cm" width="1.125cm" height="1.125cm" fill="#000" stroke-width="5" />
<circle cx="71.3125cm" cy="3.0625cm" r="0.225cm" />
<rect x="72.375cm" y="2.5cm" width="1.125cm" height="1.125cm" fill="#000" stroke-width="5" />
<circle cx="72.9375cm" cy="3.0625cm" r="0.225cm" />
<rect x="74cm" y="2.5cm" width="1.125cm" height="1.125cm" fill="#000" stroke-width="5" />
<circle cx="74.5625cm" cy="3.0625cm" r="0.225cm" />
<rect x="75.625cm" y="2.5cm" width="1.125cm" height="1.125cm" fill="#000" stroke-width="5" />
<circle cx="76.1875cm" cy="3.0625cm" r="0.225cm" />
<rect x="77.25cm" y="2.5cm" width="1.125cm" height="1.125cm" fill="#000" stroke-width="5" />
<circle cx="77.8125cm" cy="3.0625cm" r="0.225cm" />
<rect x="78.875cm" y="2.5cm" width="1.125cm" height="1.125cm" fill="#000" stroke-width="5" />
<circle cx="79.4375cm" cy="3.0625cm" r="0.225cm" />
<rect x="80.5cm" y="2.5cm" width="1.125cm" height="1.125cm" fill="#b7ada8" stroke-width="5" />
<circle cx="81.0625cm" cy="3.0625cm" r="0.225cm" />
<rect x="82.125cm" y="2.5cm" width="1.125cm" height="1.125cm" fill="#ffffff" stroke-width="5" />
<circle cx="82.6875cm" cy="3.0625cm" r="0.225cm" />
<rect x="83.75cm" y="2.5cm" width="1.125cm" height="1.125cm" fill="#000" stroke-width="5" />
<circle cx="84.3125cm" cy="3.0625cm" r="0.225cm" />
<rect x="85.375cm" y="2.5cm" width="1.125cm" height="1.125cm" fill="#ffffff" stroke-width="5" />
<circle cx="85.9375cm" cy="3.0625cm" r="0.225cm" />
<rect x="87cm" y="2.5cm" width="1.125cm" height="1.125cm" fill="#000" stroke-width="5" />
<circle cx="87.5625cm" cy="3.0625cm" r="0.225cm" />
<rect x="88.625cm" y="2.5cm" width="1.125cm" height="1.125cm" fill="#ffffff" stroke-width="5" />
<circle cx="89.1875cm" cy="3.0625cm" r="0.225cm" />
<rect x="90.25cm" y="2.5cm" width="1.125cm" height="1.125cm" fill="#409fdb" stroke-width="5" />
<circle cx="90.8125cm" cy="3.0625cm" r="0.225cm" />
<rect x="91.875cm" y="2.5cm" width="1.125cm" height="1.125cm" fill="#ffffff" stroke-width="5" />
<circle cx="92.4375cm" cy="3.0625cm" r="0.225cm" />
<rect x="93.5cm" y="2.5cm" width="1.125cm" height="1.125cm" fill="#ffffff" stroke-width="5" />
<circle cx="94.0625cm" cy="3.0625cm" r="0.225cm" />
<rect x="95.125cm" y="2.5cm" width="1.125cm" height="1.125cm" fill="#000" stroke-width="5" />
<circle cx="95.6875cm" cy="3.0625cm" r="0.225cm" />
<rect x="96.75cm" y="2.5cm" width="1.125cm" height="1.125cm" fill="#ffffff" stroke-width="5" />
<circle cx="97.3125cm" cy="3.0625cm" r="0.225cm" />
<rect x="98.375cm" y="2.5cm" width="1.125cm" height="1.125cm" fill="#ffffff" stroke-width="5" />
<circle cx="98.9375cm" cy="3.0625cm" r="0.225cm" />
<rect x="100cm" y="2.5cm" width="1.125cm" height="1.125cm" fill="#ffffff" stroke-width="5" />
<circle cx="100.562cm" cy="3.0625cm" r="0.225cm" />
<rect x="101.625cm" y="2.5cm" width="1.125cm" height="1.125cm" fill="#778645" stroke-width="5" />
<circle cx="102.188cm" cy="3.0625cm" r="0.225cm" />
<rect x="103.25cm" y="2.5cm" width="1.125cm" height="1.125cm" fill="#000" stroke-width="5" />
<circle cx="103.812cm" cy="3.0625cm" r="0.225cm" />
<rect x="104.875cm" y="2.5cm" width="1.125cm" height="1.125cm" fill="#000" stroke-width="5" />
<circle cx="105.438cm" cy="3.0625cm" r="0.225cm" />
<rect x="106.5cm" y="2.5cm" width="1.125cm" height="1.125cm" fill="#ffffff" stroke-width="5" />
<circle cx="107.062cm" cy="3.0625cm" r="0.225cm" />
<rect x="108.125cm" y="2.5cm" width="1.125cm" height="1.125cm" fill="#000" stroke-width="5" />
<circle cx="108.688cm" cy="3.0625cm" r="0.225cm" />
<rect x="109.75cm" y="2.5cm" width="1.125cm" height="1.125cm" fill="#a0c88f" stroke-width="5" />
<circle cx="110.312cm" cy="3.0625cm" r="0.225cm" />
<rect x="111.375cm" y="2.5cm" width="1.125cm" height="1.125cm" fill="#000" stroke-width="5" />
<circle cx="111.938cm" cy="3.0625cm" r="0.225cm" />
<rect x="113cm" y="2.5cm" width="1.125cm" height="1.125cm" fill="#ffffff" stroke-width="5" />
<circle cx="113.562cm" cy="3.0625cm" r="0.225cm" />
<rect x="114.625cm" y="2.5cm" width="1.125cm" height="1.125cm" fill="#000" stroke-width="5" />
<circle cx="115.188cm" cy="3.0625cm" r="0.225cm" />
<rect x="116.25cm" y="2.5cm" width="1.125cm" height="1.125cm" fill="#8e6ab0" stroke-width="5" />
<circle cx="116.812cm" cy="3.0625cm" r="0.225cm" />
<rect x="117.875cm" y="2.5cm" width="1.125cm" height="1.125cm" fill="#000" stroke-width="5" />
<circle cx="118.438cm" cy="3.0625cm" r="0.225cm" />
<rect x="119.5cm" y="2.5cm" width="1.125cm" height="1.125cm" fill="#000" stroke-width="5" />
<circle cx="120.062cm" cy="3.0625cm" r="0.225cm" />
<rect x="121.125cm" y="2.5cm" width="1.125cm" height="1.125cm" fill="#000" stroke-width="5" />
<circle cx="121.688cm" cy="3.0625cm" r="0.225cm" />
<rect x="122.75cm" y="2.5cm" width="1.125cm" height="1.125cm" fill="#000" stroke-width="5" />
<circle cx="123.312cm" cy="3.0625cm" r="0.225cm" />
<rect x="124.375cm" y="2.5cm" width="1.125cm" height="1.125cm" fill="#000" stroke-width="5" />
<circle cx="124.938cm" cy="3.0625cm" r="0.225cm" />
<rect x="126cm" y="2.5cm" width="1.125cm" height="1.125cm" fill="#000" stroke-width="5" />
<circle cx="126.562cm" cy="3.0625cm" r="0.225cm" />
<rect x="127.625cm" y="2.5cm" width="1.125cm" height="1.125cm" fill="#000" stroke-width="5" />
<circle cx="128.188cm" cy="3.0625cm" r="0.225cm" />
<rect x="129.25cm" y="2.5cm" width="1.125cm" height="1.125cm" fill="#000" stroke-width="5" />
<circle cx="129.812cm" cy="3.0625cm" r="0.225cm" />
<rect x="130.875cm" y="2.5cm" width="1.125cm" height="1.125cm" fill="#000" stroke-width="5" />
<circle cx="131.438cm" cy="3.0625cm" r="0.225cm" />
<rect x="132.5cm" y="2.5cm" width="1.125cm" height="1.125cm" fill="#000" stroke-width="5" />
<circle cx="133.062cm" cy="3.0625cm" r="0.225cm" />
<rect x="134.125cm" y="2.5cm" width="1.125cm" height="1.125cm" fill="#000" stroke-width="5" />
<circle cx="134.688cm" cy="3.0625cm" r="0.225cm" />
<rect x="135.75cm" y="2.5cm" width="1.125cm" height="1.125cm" fill="#000" stroke-width="5" />
<circle cx="136.312cm" cy="3.0625cm" r="0.225cm" />
<rect x="137.375cm" y="2.5cm" width="1.125cm" height="1.125cm" fill="#000" stroke-width="5" />
<circle cx="137.938cm" cy="3.0625cm" r="0.225cm" />
<rect x="139cm" y="2.5cm" width="1.125cm" height="1.125cm" fill="#4429b1" stroke-width="5" />
<circle cx="139.562cm" cy="3.0625cm" r="0.225cm" />
<rect x="140.625cm" y="2.5cm" width="1.125cm" height="1.125cm" fill="#000" stroke-width="5" />
<circle cx="141.188cm" cy="3.0625cm" r="0.225cm" />
<rect x="142.25cm" y="2.5cm" width="1.125cm" height="1.125cm" fill="#000" stroke-width="5" />
<circle cx="142.812cm" cy="3.0625cm" r="0.225cm" />
<rect x="143.875cm" y="2.5cm" width="1.125cm" height="1.125cm" fill="#695d0" stroke-width="5" />
<circle cx="144.438cm" cy="3.0625cm" r="0.225cm" />
<rect x="145.5cm" y="2.5cm" width="1.125cm" height="1.125cm" fill="#000" stroke-width="5" />
<circle cx="146.062cm" cy="3.0625cm" r="0.225cm" />
<rect x="147.125cm" y="2.5cm" width="1.125cm" height="1.125cm" fill="#000" stroke-width="5" />
<circle cx="147.688cm" cy="3.0625cm" r="0.225cm" />
<rect x="148.75cm" y="2.5cm" width="1.125cm" height="1.125cm" fill="#000" stroke-width="5" />
<circle cx="149.312cm" cy="3.0625cm" r="0.225cm" />
<rect x="150.375cm" y="2.5cm" width="1.125cm" height="1.125cm" fill="#000" stroke-width="5" />
<circle cx="150.938cm" cy="3.0625cm" r="0.225cm" />
<rect x="152cm" y="2.5cm" width="1.125cm" height="1.125cm" fill="#000" stroke-width="5" />
<circle cx="152.562cm" cy="3.0625cm" r="0.225cm" />
<rect x="153.625cm" y="2.5cm" width="1.125cm" height="1.125cm" fill="#000" stroke-width="5" />
<circle cx="154.188cm" cy="3.0625cm" r="0.225cm" />
<rect x="155.25cm" y="2.5cm" width="1.125cm" height="1.125cm" fill="#000" stroke-width="5" />
<circle cx="155.812cm" cy="3.0625cm" r="0.225cm" />
<rect x="156.875cm" y="2.5cm" width="1.125cm" height="1.125cm" fill="#000" stroke-width="5" />
<circle cx="157.438cm" cy="3.0625cm" r="0.225cm" />
<rect x="158.5cm" y="2.5cm" width="1.125cm" height="1.125cm" fill="#000" stroke-width="5" />
<circle cx="159.062cm" cy="3.0625cm" r="0.225cm" />
<rect x="160.125cm" y="2.5cm" width="1.125cm" height="1.125cm" fill="#000" stroke-width="5" />
<circle cx="160.688cm" cy="3.0625cm" r="0.225cm" />
<rect x="161.75cm" y="2.5cm" width="1.125cm" height="1.125cm" fill="#000" stroke-width="5" />
<circle cx="162.312cm" cy="3.0625cm" r="0.225cm" />
<rect x="163.375cm" y="2.5cm" width="1.125cm" height="1.125cm" fill="#000" stroke-width="5" />
<circle cx="163.938cm" cy="3.0625cm" r="0.225cm" />
<rect x="165cm" y="2.5cm" width="1.125cm" height="1.125cm" fill="#000" stroke-width="5" />
<circle cx="165.562cm" cy="3.0625cm" r="0.225cm" />
<rect x="166.625cm" y="2.5cm" width="1.125cm" height="1.125cm" fill="#000" stroke-width="5" />
<circle cx="167.188cm" cy="3.0625cm" r="0.225cm" />
<rect x="168.25cm" y="2.5cm" width="1.125cm" height="1.125cm" fill="#000" stroke-width="5" />
<circle cx="168.812cm" cy="3.0625cm" r="0.225cm" />
<rect x="169.875cm" y="2.5cm" width="1.125cm" height="1.125cm" fill="#000" stroke-width="5" />
<circle cx="170.438cm" cy="3.0625cm" r="0.225cm" />
<rect x="171.5cm" y="2.5cm" width="1.125cm" height="1.125cm" fill="#000" stroke-width="5" />
<circle cx="172.062cm" cy="3.0625cm" r="0.225cm" />
<rect x="173.125cm" y="2.5cm" width="1.125cm" height="1.125cm" fill="#a688b8" stroke-width="5" />
<circle cx="173.688cm" cy="3.0625cm" r="0.225cm" />
<rect x="2.5cm" y="4.625cm" width="1.125cm" height="1.125cm" fill="#f111e9" stroke-width="5" />
<circle cx="3.0625cm" cy="5.1875cm" r="0.225cm" />
<rect x="4.125cm" y="4.625cm" width="1.125cm" height="1.125cm" fill="#ffffff" stroke-width="5" />
<circle cx="4.6875cm" cy="5.1875cm" r="0.225cm" />
<rect x="5.75cm" y="4.625cm" width="1.125cm" height="1.125cm" fill="#000" stroke-width="5" />
<circle cx="6.3125cm" cy="5.1875cm" r="0.225cm" />
<rect x="7.375cm" y="4.625cm" width="1.125cm" height="1.125cm" fill="#ffffff" stroke-width="5" />
<circle cx="7.9375cm" cy="5.1875cm" r="0.225cm" />
<rect x="9cm" y="4.625cm" width="1.125cm" height="1.125cm" fill="#ffffff" stroke-width="5" />
<circle cx="9.5625cm" cy="5.1875cm" r="0.225cm" />
<rect x="10.625cm" y="4.625cm" width="1.125cm" height="1.125cm" fill="#000" stroke-width="5" />
<circle cx="11.1875cm" cy="5.1875cm" r="0.225cm" />
<rect x="12.25cm" y="4.625cm" width="1.125cm" height="1.125cm" fill="#ffffff" stroke-width="5" />
<circle cx="12.8125cm" cy="5.1875cm" r="0.225cm" />
<rect x="13.875cm" y="4.625cm" width="1.125cm" height="1.125cm" fill="#000" stroke-width="5" />
<circle cx="14.4375cm" cy="5.1875cm" r="0.225cm" />
<rect x="15.5cm" y="4.625cm" width="1.125cm" height="1.125cm" fill="#ffffff" stroke-width="5" />
<circle cx="16.0625cm" cy="5.1875cm" r="0.225cm" />
<rect x="17.125cm" y="4.625cm" width="1.125cm" height="1.125cm" fill="#ffffff" stroke-width="5" />
<circle cx="17.6875cm" cy="5.1875cm" r="0.225cm" />
<rect x="18.75cm" y="4.625cm" width="1.125cm" height="1.125cm" fill="#3f3e7" stroke-width="5" />
<circle cx="19.3125cm" cy="5.1875cm" r="0.225cm" />
<rect x="20.375cm" y="4.625cm" width="1.125cm" height="1.125cm" fill="#ffffff" stroke-width="5" />
<circle cx="20.9375cm" cy="5.1875cm" r="0.225cm" />
<rect x="22cm" y="4.625cm" width="1.125cm" height="1.125cm" fill="#000" stroke-width="5" />
<circle cx="22.5625cm" cy="5.1875cm" r="0.225cm" />
<rect x="23.625cm" y="4.625cm" width="1.125cm" height="1.125cm" fill="#000" stroke-width="5" />
<circle cx="24.1875cm" cy="5.1875cm" r="0.225cm" />
<rect x="25.25cm" y="4.625cm" width="1.125cm" height="1.125cm" fill="#ffffff" stroke-width="5" />
<circle cx="25.8125cm" cy="5.1875cm" r="0.225cm" />
<rect x="26.875cm" y="4.625cm" width="1.125cm" height="1.125cm" fill="#c2db25" stroke-width="5" />
<circle cx="27.4375cm" cy="5.1875cm" r="0.225cm" />
<rect x="28.5cm" y="4.625cm" width="1.125cm" height="1.125cm" fill="#4a7442" stroke-width="5" />
<circle cx="29.0625cm" cy="5.1875cm" r="0.225cm" />
<rect x="30.125cm" y="4.625cm" width="1.125cm" height="1.125cm" fill="#000" stroke-width="5" />
<circle cx="30.6875cm" cy="5.1875cm" r="0.225cm" />
<rect x="31.75cm" y="4.625cm" width="1.125cm" height="1.125cm" fill="#000" stroke-width="5" />
<circle cx="32.3125cm" cy="5.1875cm" r="0.225cm" />
<rect x="33.375cm" y="4.625cm" width="1.125cm" height="1.125cm" fill="#000" stroke-width="5" />
<circle cx="33.9375cm" cy="5.1875cm" r="0.225cm" />
<rect x="35cm" y="4.625cm" width="1.125cm" height="1.125cm" fill="#000" stroke-width="5" />
<circle cx="35.5625cm" cy="5.1875cm" r="0.225cm" />
<rect x="36.625cm" y="4.625cm" width="1.125cm" height="1.125cm" fill="#38e71c" stroke-width="5" />
<circle cx="37.1875cm" cy="5.1875cm" r="0.225cm" />
<rect x="38.25cm" y="4.625cm" width="1.125cm" height="1.125cm" fill="#ffffff" stroke-width="5" />
<circle cx="38.8125cm" cy="5.1875cm" r="0.225cm" />
<rect x="39.875cm" y="4.625cm" width="1.125cm" height="1.125cm" fill="#ffffff" stroke-width="5" />
<circle cx="40.4375cm" cy="5.1875cm" r="0.225cm" />
<rect x="41.5cm" y="4.625cm" width="1.125cm" height="1.125cm" fill="#000" stroke-width="5" />
<circle cx="42.0625cm" cy="5.1875cm" r="0.225cm" />
<rect x="43.125cm" y="4.625cm" width="1.125cm" height="1.125cm" fill="#ffffff" stroke-width="5" />
<circle cx="43.6875cm" cy="5.1875cm" r="0.225cm" />
<rect x="44.75cm" y="4.625cm" width="1.125cm" height="1.125cm" fill="#ffffff" stroke-width="5" />
<circle cx="45.3125cm" cy="5.1875cm" r="0.225cm" />
<rect x="46.375cm" y="4.625cm" width="1.125cm" height="1.125cm" fill="#ffffff" stroke-width="5" />
<circle cx="46.9375cm" cy="5.1875cm" r="0.225cm" />
<rect x="48cm" y="4.625cm" width="1.125cm" height="1.125cm" fill="#000" stroke-width="5" />
<circle cx="48.5625cm" cy="5.1875cm" r="0.225cm" />
<rect x="49.625cm" y="4.625cm" width="1.125cm" height="1.125cm" fill="#ffffff" stroke-width="5" />
<circle cx="50.1875cm" cy="5.1875cm" r="0.225cm" />
<rect x="51.25cm" y="4.625cm" width="1.125cm" height="1.125cm" fill="#ffffff" stroke-width="5" />
<circle cx="51.8125cm" cy="5.1875cm" r="0.225cm" />
<rect x="52.875cm" y="4.625cm" width="1.125cm" height="1.125cm" fill="#a47c29" stroke-width="5" />
<circle cx="53.4375cm" cy="5.1875cm" r="0.225cm" />
<rect x="54.5cm" y="4.625cm" width="1.125cm" height="1.125cm" fill="#ffffff" stroke-width="5" />
<circle cx="55.0625cm" cy="5.1875cm" r="0.225cm" />
<rect x="56.125cm" y="4.625cm" width="1.125cm" height="1.125cm" fill="#ffffff" stroke-width="5" />
<circle cx="56.6875cm" cy="5.1875cm" r="0.225cm" />
<rect x="57.75cm" y="4.625cm" width="1.125cm" height="1.125cm" fill="#ffffff" stroke-width="5" />
<circle cx="58.3125cm" cy="5.1875cm" r="0.225cm" />
<rect x="59.375cm" y="4.625cm" width="1.125cm" height="1.125cm" fill="#000" stroke-width="5" />
<circle cx="59.9375cm" cy="5.1875cm" r="0.225cm" />
<rect x="61cm" y="4.625cm" width="1.125cm" height="1.125cm" fill="#ffffff" stroke-width="5" />
<circle cx="61.5625cm" cy="5.1875cm" r="0.225cm" />
<rect x="62.625cm" y="4.625cm" width="1.125cm" height="1.125cm" fill="#ffffff" stroke-width="5" />
<circle cx="63.1875cm" cy="5.1875cm" r="0.225cm" />
<rect x="64.25cm" y="4.625cm" width="1.125cm" height="1.125cm" fill="#ffffff" stroke-width="5" />
<circle cx="64.8125cm" cy="5.1875cm" r="0.225cm" />
<rect x="65.875cm" y="4.625cm" width="1.125cm" height="1.125cm" fill="#ffffff" stroke-width="5" />
<circle cx="66.4375cm" cy="5.1875cm" r="0.225cm" />
<rect x="67.5cm" y="4.625cm" width="1.125cm" height="1.125cm" fill="#38aebb" stroke-width="5" />
<circle cx="68.0625cm" cy="5.1875cm" r="0.225cm" />
<rect x="69.125cm" y="4.625cm" width="1.125cm" height="1.125cm" fill="#a389d" stroke-width="5" />
<circle cx="69.6875cm" cy="5.1875cm" r="0.225cm" />
<rect x="70.75cm" y="4.625cm" width="1.125cm" height="1.125cm" fill="#000" stroke-width="5" />
<circle cx="71.3125cm" cy="5.1875cm" r="0.225cm" />
<rect x="72.375cm" y="4.625cm" width="1.125cm" height="1.125cm" fill="#57a837" stroke-width="5" />
<circle cx="72.9375cm" cy="5.1875cm" r="0.225cm" />
<rect x="74cm" y="4.625cm" width="1.125cm" height="1.125cm" fill="#000" stroke-width="5" />
<circle cx="74.5625cm" cy="5.1875cm" r="0.225cm" />
<rect x="75.625cm" y="4.625cm" width="1.125cm" height="1.125cm" fill="#000" stroke-width="5" />
<circle cx="76.1875cm" cy="5.1875cm" r="0.225cm" />
<rect x="77.25cm" y="4.625cm" width="1.125cm" height="1.125cm" fill="#000" stroke-width="5" />
<circle cx="77.8125cm" cy="5.1875cm" r="0.225cm" />
<rect x="78.875cm" y="4.625cm" width="1.125cm" height="1.125cm" fill="#000" stroke-width="5" />
<circle cx="79.4375cm" cy="5.1875cm" r="0.225cm" />
<rect x="80.5cm" y="4.625cm" width="1.125cm" height="1.125cm" fill="#b7ada8" stroke-width="5" />
<circle cx="81.0625cm" cy="5.1875cm" r="0.225cm" />
<rect x="82.125cm" y="4.625cm" width="1.125cm" height="1.125cm" fill="#000" stroke-width="5" />
<circle cx="82.6875cm" cy="5.1875cm" r="0.225cm" />
<rect x="83.75cm" y="4.625cm" width="1.125cm" height="1.125cm" fill="#000" stroke-width="5" />
<circle cx="84.3125cm" cy="5.1875cm" r="0.225cm" />
<rect x="85.375cm" y="4.625cm" width="1.125cm" height="1.125cm" fill="#000" stroke-width="5" />
<circle cx="85.9375cm" cy="5.1875cm" r="0.225cm" />
<rect x="87cm" y="4.625cm" width="1.125cm" height="1.125cm" fill="#000" stroke-width="5" />
<circle cx="87.5625cm" cy="5.1875cm" r="0.225cm" />
<rect x="88.625cm" y="4.625cm" width="1.125cm" height="1.125cm" fill="#000" stroke-width="5" />
<circle cx="89.1875cm" cy="5.1875cm" r="0.225cm" />
<rect x="90.25cm" y="4.625cm" width="1.125cm" height="1.125cm" fill="#409fdb" stroke-width="5" />
<circle cx="90.8125cm" cy="5.1875cm" r="0.225cm" />
<rect x="91.875cm" y="4.625cm" width="1.125cm" height="1.125cm" fill="#000" stroke-width="5" />
<circle cx="92.4375cm" cy="5.1875cm" r="0.225cm" />
<rect x="93.5cm" y="4.625cm" width="1.125cm" height="1.125cm" fill="#000" stroke-width="5" />
<circle cx="94.0625cm" cy="5.1875cm" r="0.225cm" />
<rect x="95.125cm" y="4.625cm" width="1.125cm" height="1.125cm" fill="#000" stroke-width="5" />
<circle cx="95.6875cm" cy="5.1875cm" r="0.225cm" />
<rect x="96.75cm" y="4.625cm" width="1.125cm" height="1.125cm" fill="#000" stroke-width="5" />
<circle cx="97.3125cm" cy="5.1875cm" r="0.225cm" />
<rect x="98.375cm" y="4.625cm" width="1.125cm" height="1.125cm" fill="#000" stroke-width="5" />
<circle cx="98.9375cm" cy="5.1875cm" r="0.225cm" />
<rect x="100cm" y="4.625cm" width="1.125cm" height="1.125cm" fill="#000" stroke-width="5" />
<circle cx="100.562cm" cy="5.1875cm" r="0.225cm" />
<rect x="101.625cm" y="4.625cm" width="1.125cm" height="1.125cm" fill="#778645" stroke-width="5" />
<circle cx="102.188cm" cy="5.1875cm" r="0.225cm" />
<rect x="103.25cm" y="4.625cm" width="1.125cm" height="1.125cm" fill="#000" stroke-width="5" />
<circle cx="103.812cm" cy="5.1875cm" r="0.225cm" />
<rect x="104.875cm" y="4.625cm" width="1.125cm" height="1.125cm" fill="#000" stroke-width="5" />
<circle cx="105.438cm" cy="5.1875cm" r="0.225cm" />
<rect x="106.5cm" y="4.625cm" width="1.125cm" height="1.125cm" fill="#000" stroke-width="5" />
<circle cx="107.062cm" cy="5.1875cm" r="0.225cm" />
<rect x="108.125cm" y="4.625cm" width="1.125cm" height="1.125cm" fill="#000" stroke-width="5" />
<circle cx="108.688cm" cy="5.1875cm" r="0.225cm" />
<rect x="109.75cm" y="4.625cm" width="1.125cm" height="1.125cm" fill="#a0c88f" stroke-width="5" />
<circle cx="110.312cm" cy="5.1875cm" r="0.225cm" />
<rect x="111.375cm" y="4.625cm" width="1.125cm" height="1.125cm" fill="#000" stroke-width="5" />
<circle cx="111.938cm" cy="5.1875cm" r="0.225cm" />
<rect x="113cm" y="4.625cm" width="1.125cm" height="1.125cm" fill="#000" stroke-width="5" />
<circle cx="113.562cm" cy="5.1875cm" r="0.225cm" />
<rect x="114.625cm" y="4.625cm" width="1.125cm" height="1.125cm" fill="#000" stroke-width="5" />
<circle cx="115.188cm" cy="5.1875cm" r="0.225cm" />
<rect x="116.25cm" y="4.625cm" width="1.125cm" height="1.125cm" fill="#8e6ab0" stroke-width="5" />
<circle cx="116.812cm" cy="5.1875cm" r="0.225cm" />
<rect x="117.875cm" y="4.625cm" width="1.125cm" height="1.125cm" fill="#ffffff" stroke-width="5" />
<circle cx="118.438cm" cy="5.1875cm" r="0.225cm" />
<rect x="119.5cm" y="4.625cm" width="1.125cm" height="1.125cm" fill="#ffffff" stroke-width="5" />
<circle cx="120.062cm" cy="5.1875cm" r="0.225cm" />
<rect x="121.125cm" y="4.625cm" width="1.125cm" height="1.125cm" fill="#ffffff" stroke-width="5" />
<circle cx="121.688cm" cy="5.1875cm" r="0.225cm" />
<rect x="122.75cm" y="4.625cm" width="1.125cm" height="1.125cm" fill="#ffffff" stroke-width="5" />
<circle cx="123.312cm" cy="5.1875cm" r="0.225cm" />
<rect x="124.375cm" y="4.625cm" width="1.125cm" height="1.125cm" fill="#ffffff" stroke-width="5" />
<circle cx="124.938cm" cy="5.1875cm" r="0.225cm" />
<rect x="126cm" y="4.625cm" width="1.125cm" height="1.125cm" fill="#ffffff" stroke-width="5" />
<circle cx="126.562cm" cy="5.1875cm" r="0.225cm" />
<rect x="127.625cm" y="4.625cm" width="1.125cm" height="1.125cm" fill="#ffffff" stroke-width="5" />
<circle cx="128.188cm" cy="5.1875cm" r="0.225cm" />
<rect x="129.25cm" y="4.625cm" width="1.125cm" height="1.125cm" fill="#ffffff" stroke-width="5" />
<circle cx="129.812cm" cy="5.1875cm" r="0.225cm" />
<rect x="130.875cm" y="4.625cm" width="1.125cm" height="1.125cm" fill="#ffffff" stroke-width="5" />
<circle cx="131.438cm" cy="5.1875cm" r="0.225cm" />
<rect x="132.5cm" y="4.625cm" width="1.125cm" height="1.125cm" fill="#ffffff" stroke-width="5" />
<circle cx="133.062cm" cy="5.1875cm" r="0.225cm" />
<rect x="134.125cm" y="4.625cm" width="1.125cm" height="1.125cm" fill="#ffffff" stroke-width="5" />
<circle cx="134.688cm" cy="5.1875cm" r="0.225cm" />
<rect x="135.75cm" y="4.625cm" width="1.125cm" height="1.125cm" fill="#ffffff" stroke-width="5" />
<circle cx="136.312cm" cy="5.1875cm" r="0.225cm" />
<rect x="137.375cm" y="4.625cm" width="1.125cm" height="1.125cm" fill="#ffffff" stroke-width="5" />
<circle cx="137.938cm" cy="5.1875cm" r="0.225cm" />
<rect x="139cm" y="4.625cm" width="1.125cm" height="1.125cm" fill="#4429b1" stroke-width="5" />
<circle cx="139.562cm" cy="5.1875cm" r="0.225cm" />
<rect x="140.625cm" y="4.625cm" width="1.125cm" height="1.125cm" fill="#000" stroke-width="5" />
<circle cx="141.188cm" cy="5.1875cm" r="0.225cm" />
<rect x="142.25cm" y="4.625cm" width="1.125cm" height="1.125cm" fill="#ffffff" stroke-width="5" />
<circle cx="142.812cm" cy="5.1875cm" r="0.225cm" />
<rect x="143.875cm" y="4.625cm" width="1.125cm" height="1.125cm" fill="#695d0" stroke-width="5" />
<circle cx="144.438cm" cy="5.1875cm" r="0.225cm" />
<rect x="145.5cm" y="4.625cm" width="1.125cm" height="1.125cm" fill="#000" stroke-width="5" />
<circle cx="146.062cm" cy="5.1875cm" r="0.225cm" />
<rect x="147.125cm" y="4.625cm" width="1.125cm" height="1.125cm" fill="#ffffff" stroke-width="5" />
<circle cx="147.688cm" cy="5.1875cm" r="0.225cm" />
<rect x="148.75cm" y="4.625cm" width="1.125cm" height="1.125cm" fill="#000" stroke-width="5" />
<circle cx="149.312cm" cy="5.1875cm" r="0.225cm" />
<rect x="150.375cm" y="4.625cm" width="1.125cm" height="1.125cm" fill="#000" stroke-width="5" />
<circle cx="150.938cm" cy="5.1875cm" r="0.225cm" />
<rect x="152cm" y="4.625cm" width="1.125cm" height="1.125cm" fill="#ffffff" stroke-width="5" />
<circle cx="152.562cm" cy="5.1875cm" r="0.225cm" />
<rect x="153.625cm" y="4.625cm" width="1.125cm" height="1.125cm" fill="#000" stroke-width="5" />
<circle cx="154.188cm" cy="5.1875cm" r="0.225cm" />
<rect x="155.25cm" y="4.625cm" width="1.125cm" height="1.125cm" fill="#000" stroke-width="5" />
<circle cx="155.812cm" cy="5.1875cm" r="0.225cm" />
<rect x="156.875cm" y="4.625cm" width="1.125cm" height="1.125cm" fill="#000" stroke-width="5" />
<circle cx="157.438cm" cy="5.1875cm" r="0.225cm" />
<rect x="158.5cm" y="4.625cm" width="1.125cm" height="1.125cm" fill="#ffffff" stroke-width="5" />
<circle cx="159.062cm" cy="5.1875cm" r="0.225cm" />
<rect x="160.125cm" y="4.625cm" width="1.125cm" height="1.125cm" fill="#000" stroke-width="5" />
<circle cx="160.688cm" cy="5.1875cm" r="0.225cm" />
<rect x="161.75cm" y="4.625cm" width="1.125cm" height="1.125cm" fill="#000" stroke-width="5" />
<circle cx="162.312cm" cy="5.1875cm" r="0.225cm" />
<rect x="163.375cm" y="4.625cm" width="1.125cm" height="1.125cm" fill="#000" stroke-width="5" />
<circle cx="163.938cm" cy="5.1875cm" r="0.225cm" />
<rect x="165cm" y="4.625cm" width="1.125cm" height="1.125cm" fill="#ffffff" stroke-width="5" />
<circle cx="165.562cm" cy="5.1875cm" r="0.225cm" />
<rect x="166.625cm" y="4.625cm" width="1.125cm" height="1.125cm" fill="#000" stroke-width="5" />
<circle cx="167.188cm" cy="5.1875cm" r="0.225cm" />
<rect x="168.25cm" y="4.625cm" width="1.125cm" height="1.125cm" fill="#000" stroke-width="5" />
<circle cx="168.812cm" cy="5.1875cm" r="0.225cm" />
<rect x="169.875cm" y="4.625cm" width="1.125cm" height="1.125cm" fill="#ffffff" stroke-width="5" />
<circle cx="170.438cm" cy="5.1875cm" r="0.225cm" />
<rect x="171.5cm" y="4.625cm" width="1.125cm" height="1.125cm" fill="#000" stroke-width="5" />
<circle cx="172.062cm" cy="5.1875cm" r="0.225cm" />
<rect x="173.125cm" y="4.625cm" width="1.125cm" height="1.125cm" fill="#a688b8" stroke-width="5" />
<circle cx="173.688cm" cy="5.1875cm" r="0.225cm" />
<text x="2.5cm" y="2.3875cm" font-family="Verdana" font-size="6" fill="black" >
AT2G17680
</text>
<text x="4.125cm" y="2.3875cm" font-family="Verdana" font-size="6" fill="black" >
AT2G17690
</text>
<text x="5.75cm" y="2.3875cm" font-family="Verdana" font-size="6" fill="black" >
AT2G17695
</text>
<text x="7.375cm" y="2.3875cm" font-family="Verdana" font-size="6" fill="black" >
AT2G17700
</text>
<text x="9cm" y="2.3875cm" font-family="Verdana" font-size="6" fill="black" >
AT2G17705
</text>
<text x="10.625cm" y="2.3875cm" font-family="Verdana" font-size="6" fill="black" >
AT2G17710
</text>
<text x="12.25cm" y="2.3875cm" font-family="Verdana" font-size="6" fill="black" >
AT2G17720
</text>
<text x="13.875cm" y="2.3875cm" font-family="Verdana" font-size="6" fill="black" >
AT2G17723
</text>
<text x="15.5cm" y="2.3875cm" font-family="Verdana" font-size="6" fill="black" >
AT2G17730
</text>
<text x="17.125cm" y="2.3875cm" font-family="Verdana" font-size="6" fill="black" >
AT2G17750
</text>
<text x="18.75cm" y="2.3875cm" font-family="Verdana" font-size="6" fill="black" >
AT2G17760
</text>
<text x="20.375cm" y="2.3875cm" font-family="Verdana" font-size="6" fill="black" >
AT2G17770
</text>
<text x="22cm" y="2.3875cm" font-family="Verdana" font-size="6" fill="black" >
AT2G17780
</text>
<text x="23.625cm" y="2.3875cm" font-family="Verdana" font-size="6" fill="black" >
AT2G17785
</text>
<text x="25.25cm" y="2.3875cm" font-family="Verdana" font-size="6" fill="black" >
AT2G17787
</text>
<text x="26.875cm" y="2.3875cm" font-family="Verdana" font-size="6" fill="black" >
AT2G17790
</text>
<text x="28.5cm" y="2.3875cm" font-family="Verdana" font-size="6" fill="black" >
AT2G17800
</text>
<text x="31.75cm" y="2.3875cm" font-family="Verdana" font-size="6" fill="black" >
AT2G17820
</text>
<text x="33.375cm" y="2.3875cm" font-family="Verdana" font-size="6" fill="black" >
AT2G17830
</text>
<text x="36.625cm" y="2.3875cm" font-family="Verdana" font-size="6" fill="black" >
AT2G17840
</text>
<text x="38.25cm" y="2.3875cm" font-family="Verdana" font-size="6" fill="black" >
AT2G17845
</text>
<text x="39.875cm" y="2.3875cm" font-family="Verdana" font-size="6" fill="black" >
AT2G17850
</text>
<text x="41.5cm" y="2.3875cm" font-family="Verdana" font-size="6" fill="black" >
AT2G17860
</text>
<text x="43.125cm" y="2.3875cm" font-family="Verdana" font-size="6" fill="black" >
AT2G17870
</text>
<text x="44.75cm" y="2.3875cm" font-family="Verdana" font-size="6" fill="black" >
AT2G17880
</text>
<text x="46.375cm" y="2.3875cm" font-family="Verdana" font-size="6" fill="black" >
AT2G17890
</text>
<text x="48cm" y="2.3875cm" font-family="Verdana" font-size="6" fill="black" >
AT2G17900
</text>
<text x="49.625cm" y="2.3875cm" font-family="Verdana" font-size="6" fill="black" >
AT2G17920
</text>
<text x="51.25cm" y="2.3875cm" font-family="Verdana" font-size="6" fill="black" >
AT2G17930
</text>
<text x="52.875cm" y="2.3875cm" font-family="Verdana" font-size="6" fill="black" >
AT2G17940
</text>
<text x="54.5cm" y="2.3875cm" font-family="Verdana" font-size="6" fill="black" >
AT2G17950
</text>
<text x="56.125cm" y="2.3875cm" font-family="Verdana" font-size="6" fill="black" >
AT2G17960
</text>
<text x="57.75cm" y="2.3875cm" font-family="Verdana" font-size="6" fill="black" >
AT2G17970
</text>
<text x="59.375cm" y="2.3875cm" font-family="Verdana" font-size="6" fill="black" >
AT2G17972
</text>
<text x="61cm" y="2.3875cm" font-family="Verdana" font-size="6" fill="black" >
AT2G17975
</text>
<text x="62.625cm" y="2.3875cm" font-family="Verdana" font-size="6" fill="black" >
AT2G17980
</text>
<text x="64.25cm" y="2.3875cm" font-family="Verdana" font-size="6" fill="black" >
AT2G17990
</text>
<text x="65.875cm" y="2.3875cm" font-family="Verdana" font-size="6" fill="black" >
AT2G18000
</text>
<text x="67.5cm" y="2.3875cm" font-family="Verdana" font-size="6" fill="black" >
AT2G18010
</text>
<text x="69.125cm" y="2.3875cm" font-family="Verdana" font-size="6" fill="black" >
AT2G18020
</text>
<text x="70.75cm" y="2.3875cm" font-family="Verdana" font-size="6" fill="black" >
AT2G18030
</text>
<text x="72.375cm" y="2.3875cm" font-family="Verdana" font-size="6" fill="black" >
AT2G18040
</text>
<text x="74cm" y="2.3875cm" font-family="Verdana" font-size="6" fill="black" >
AT2G18050
</text>
<text x="75.625cm" y="2.3875cm" font-family="Verdana" font-size="6" fill="black" >
AT2G18060
</text>
<text x="77.25cm" y="2.3875cm" font-family="Verdana" font-size="6" fill="black" >
AT2G18070
</text>
<text x="78.875cm" y="2.3875cm" font-family="Verdana" font-size="6" fill="black" >
AT2G18080
</text>
<text x="80.5cm" y="2.3875cm" font-family="Verdana" font-size="6" fill="black" >
AT2G18090
</text>
<text x="83.75cm" y="2.3875cm" font-family="Verdana" font-size="6" fill="black" >
AT2G18100
</text>
<text x="87cm" y="2.3875cm" font-family="Verdana" font-size="6" fill="black" >
AT2G18110
</text>
<text x="90.25cm" y="2.3875cm" font-family="Verdana" font-size="6" fill="black" >
AT2G18120
</text>
<text x="95.125cm" y="2.3875cm" font-family="Verdana" font-size="6" fill="black" >
AT2G18130
</text>
<text x="101.625cm" y="2.3875cm" font-family="Verdana" font-size="6" fill="black" >
AT2G18140
</text>
<text x="103.25cm" y="2.3875cm" font-family="Verdana" font-size="6" fill="black" >
AT2G18160
</text>
<text x="104.875cm" y="2.3875cm" font-family="Verdana" font-size="6" fill="black" >
AT2G18170
</text>
<text x="108.125cm" y="2.3875cm" font-family="Verdana" font-size="6" fill="black" >
AT2G18180
</text>
<text x="109.75cm" y="2.3875cm" font-family="Verdana" font-size="6" fill="black" >
AT2G18190
</text>
<text x="111.375cm" y="2.3875cm" font-family="Verdana" font-size="6" fill="black" >
AT2G18196
</text>
<text x="114.625cm" y="2.3875cm" font-family="Verdana" font-size="6" fill="black" >
AT2G18200
</text>
<text x="116.25cm" y="2.3875cm" font-family="Verdana" font-size="6" fill="black" >
AT2G18210
</text>
<text x="117.875cm" y="2.3875cm" font-family="Verdana" font-size="6" fill="black" >
AT2G18220
</text>
<text x="119.5cm" y="2.3875cm" font-family="Verdana" font-size="6" fill="black" >
AT2G18230
</text>
<text x="121.125cm" y="2.3875cm" font-family="Verdana" font-size="6" fill="black" >
AT2G18240
</text>
<text x="122.75cm" y="2.3875cm" font-family="Verdana" font-size="6" fill="black" >
AT2G18245
</text>
<text x="124.375cm" y="2.3875cm" font-family="Verdana" font-size="6" fill="black" >
AT2G18250
</text>
<text x="126cm" y="2.3875cm" font-family="Verdana" font-size="6" fill="black" >
AT2G18260
</text>
<text x="127.625cm" y="2.3875cm" font-family="Verdana" font-size="6" fill="black" >
AT2G18270
</text>
<text x="129.25cm" y="2.3875cm" font-family="Verdana" font-size="6" fill="black" >
AT2G18280
</text>
<text x="130.875cm" y="2.3875cm" font-family="Verdana" font-size="6" fill="black" >
AT2G18290
</text>
<text x="132.5cm" y="2.3875cm" font-family="Verdana" font-size="6" fill="black" >
AT2G18300
</text>
<text x="134.125cm" y="2.3875cm" font-family="Verdana" font-size="6" fill="black" >
AT2G18320
</text>
<text x="135.75cm" y="2.3875cm" font-family="Verdana" font-size="6" fill="black" >
AT2G18330
</text>
<text x="137.375cm" y="2.3875cm" font-family="Verdana" font-size="6" fill="black" >
AT2G18340
</text>
<text x="139cm" y="2.3875cm" font-family="Verdana" font-size="6" fill="black" >
AT2G18350
</text>
<text x="140.625cm" y="2.3875cm" font-family="Verdana" font-size="6" fill="black" >
AT2G18360
</text>
<text x="142.25cm" y="2.3875cm" font-family="Verdana" font-size="6" fill="black" >
AT2G18370
</text>
<text x="143.875cm" y="2.3875cm" font-family="Verdana" font-size="6" fill="black" >
AT2G18380
</text>
<text x="145.5cm" y="2.3875cm" font-family="Verdana" font-size="6" fill="black" >
AT2G18390
</text>
<text x="147.125cm" y="2.3875cm" font-family="Verdana" font-size="6" fill="black" >
AT2G18400
</text>
<text x="148.75cm" y="2.3875cm" font-family="Verdana" font-size="6" fill="black" >
AT2G18410
</text>
<text x="150.375cm" y="2.3875cm" font-family="Verdana" font-size="6" fill="black" >
AT2G18420
</text>
<text x="152cm" y="2.3875cm" font-family="Verdana" font-size="6" fill="black" >
AT2G18440
</text>
<text x="153.625cm" y="2.3875cm" font-family="Verdana" font-size="6" fill="black" >
AT2G18450
</text>
<text x="155.25cm" y="2.3875cm" font-family="Verdana" font-size="6" fill="black" >
AT2G18460
</text>
<text x="156.875cm" y="2.3875cm" font-family="Verdana" font-size="6" fill="black" >
AT2G18465
</text>
<text x="158.5cm" y="2.3875cm" font-family="Verdana" font-size="6" fill="black" >
AT2G18470
</text>
<text x="160.125cm" y="2.3875cm" font-family="Verdana" font-size="6" fill="black" >
AT2G18480
</text>
<text x="161.75cm" y="2.3875cm" font-family="Verdana" font-size="6" fill="black" >
AT2G18490
</text>
<text x="163.375cm" y="2.3875cm" font-family="Verdana" font-size="6" fill="black" >
AT2G18500
</text>
<text x="165cm" y="2.3875cm" font-family="Verdana" font-size="6" fill="black" >
AT2G18510
</text>
<text x="166.625cm" y="2.3875cm" font-family="Verdana" font-size="6" fill="black" >
AT2G18520
</text>
<text x="168.25cm" y="2.3875cm" font-family="Verdana" font-size="6" fill="black" >
AT2G18530
</text>
<text x="169.875cm" y="2.3875cm" font-family="Verdana" font-size="6" fill="black" >
AT2G18540
</text>
<text x="171.5cm" y="2.3875cm" font-family="Verdana" font-size="6" fill="black" >
AT2G18550
</text>
<text x="173.125cm" y="2.3875cm" font-family="Verdana" font-size="6" fill="black" >
AT2G18560
</text>
<text x="2.5cm" y="4.5125cm" font-family="Verdana" font-size="6" fill="black" >
AT3G51400
</text>
<text x="5.75cm" y="4.5125cm" font-family="Verdana" font-size="6" fill="black" >
AT3G51390
</text>
<text x="10.625cm" y="4.5125cm" font-family="Verdana" font-size="6" fill="black" >
AT3G51380
</text>
<text x="13.875cm" y="4.5125cm" font-family="Verdana" font-size="6" fill="black" >
AT3G51370
</text>
<text x="18.75cm" y="4.5125cm" font-family="Verdana" font-size="6" fill="black" >
AT3G51330
</text>
<text x="22cm" y="4.5125cm" font-family="Verdana" font-size="6" fill="black" >
AT3G51325
</text>
<text x="23.625cm" y="4.5125cm" font-family="Verdana" font-size="6" fill="black" >
AT3G51320
</text>
<text x="26.875cm" y="4.5125cm" font-family="Verdana" font-size="6" fill="black" >
AT3G51310
</text>
<text x="28.5cm" y="4.5125cm" font-family="Verdana" font-size="6" fill="black" >
AT3G51300
</text>
<text x="30.125cm" y="4.5125cm" font-family="Verdana" font-size="6" fill="black" >
AT3G51290
</text>
<text x="31.75cm" y="4.5125cm" font-family="Verdana" font-size="6" fill="black" >
AT3G51280
</text>
<text x="33.375cm" y="4.5125cm" font-family="Verdana" font-size="6" fill="black" >
AT3G51270
</text>
<text x="35cm" y="4.5125cm" font-family="Verdana" font-size="6" fill="black" >
AT3G51260
</text>
<text x="36.625cm" y="4.5125cm" font-family="Verdana" font-size="6" fill="black" >
AT3G51250
</text>
<text x="41.5cm" y="4.5125cm" font-family="Verdana" font-size="6" fill="black" >
AT3G51240
</text>
<text x="48cm" y="4.5125cm" font-family="Verdana" font-size="6" fill="black" >
AT3G51230
</text>
<text x="52.875cm" y="4.5125cm" font-family="Verdana" font-size="6" fill="black" >
AT3G51220
</text>
<text x="59.375cm" y="4.5125cm" font-family="Verdana" font-size="6" fill="black" >
AT3G51210
</text>
<text x="67.5cm" y="4.5125cm" font-family="Verdana" font-size="6" fill="black" >
AT3G51200
</text>
<text x="69.125cm" y="4.5125cm" font-family="Verdana" font-size="6" fill="black" >
AT3G51190
</text>
<text x="70.75cm" y="4.5125cm" font-family="Verdana" font-size="6" fill="black" >
AT3G51180
</text>
<text x="72.375cm" y="4.5125cm" font-family="Verdana" font-size="6" fill="black" >
AT3G51171
</text>
<text x="74cm" y="4.5125cm" font-family="Verdana" font-size="6" fill="black" >
AT3G51160
</text>
<text x="75.625cm" y="4.5125cm" font-family="Verdana" font-size="6" fill="black" >
AT3G51150
</text>
<text x="77.25cm" y="4.5125cm" font-family="Verdana" font-size="6" fill="black" >
AT3G51140
</text>
<text x="78.875cm" y="4.5125cm" font-family="Verdana" font-size="6" fill="black" >
AT3G51130
</text>
<text x="80.5cm" y="4.5125cm" font-family="Verdana" font-size="6" fill="black" >
AT3G51120
</text>
<text x="82.125cm" y="4.5125cm" font-family="Verdana" font-size="6" fill="black" >
AT3G51110
</text>
<text x="83.75cm" y="4.5125cm" font-family="Verdana" font-size="6" fill="black" >
AT3G51100
</text>
<text x="85.375cm" y="4.5125cm" font-family="Verdana" font-size="6" fill="black" >
AT3G51090
</text>
<text x="87cm" y="4.5125cm" font-family="Verdana" font-size="6" fill="black" >
AT3G51080
</text>
<text x="88.625cm" y="4.5125cm" font-family="Verdana" font-size="6" fill="black" >
AT3G51070
</text>
<text x="90.25cm" y="4.5125cm" font-family="Verdana" font-size="6" fill="black" >
AT3G51060
</text>
<text x="91.875cm" y="4.5125cm" font-family="Verdana" font-size="6" fill="black" >
AT3G51050
</text>
<text x="93.5cm" y="4.5125cm" font-family="Verdana" font-size="6" fill="black" >
AT3G51040
</text>
<text x="95.125cm" y="4.5125cm" font-family="Verdana" font-size="6" fill="black" >
AT3G51030
</text>
<text x="96.75cm" y="4.5125cm" font-family="Verdana" font-size="6" fill="black" >
AT3G51020
</text>
<text x="98.375cm" y="4.5125cm" font-family="Verdana" font-size="6" fill="black" >
AT3G51010
</text>
<text x="100cm" y="4.5125cm" font-family="Verdana" font-size="6" fill="black" >
AT3G51000
</text>
<text x="101.625cm" y="4.5125cm" font-family="Verdana" font-size="6" fill="black" >
AT3G50990
</text>
<text x="103.25cm" y="4.5125cm" font-family="Verdana" font-size="6" fill="black" >
AT3G50980
</text>
<text x="104.875cm" y="4.5125cm" font-family="Verdana" font-size="6" fill="black" >
AT3G50970
</text>
<text x="106.5cm" y="4.5125cm" font-family="Verdana" font-size="6" fill="black" >
AT3G50960
</text>
<text x="108.125cm" y="4.5125cm" font-family="Verdana" font-size="6" fill="black" >
AT3G50950
</text>
<text x="109.75cm" y="4.5125cm" font-family="Verdana" font-size="6" fill="black" >
AT3G50930
</text>
<text x="111.375cm" y="4.5125cm" font-family="Verdana" font-size="6" fill="black" >
AT3G50925
</text>
<text x="113cm" y="4.5125cm" font-family="Verdana" font-size="6" fill="black" >
AT3G50920
</text>
<text x="114.625cm" y="4.5125cm" font-family="Verdana" font-size="6" fill="black" >
AT3G50910
</text>
<text x="116.25cm" y="4.5125cm" font-family="Verdana" font-size="6" fill="black" >
AT3G50900
</text>
<text x="139cm" y="4.5125cm" font-family="Verdana" font-size="6" fill="black" >
AT3G50890
</text>
<text x="140.625cm" y="4.5125cm" font-family="Verdana" font-size="6" fill="black" >
AT3G50880
</text>
<text x="143.875cm" y="4.5125cm" font-family="Verdana" font-size="6" fill="black" >
AT3G50870
</text>
<text x="145.5cm" y="4.5125cm" font-family="Verdana" font-size="6" fill="black" >
AT3G50860
</text>
<text x="148.75cm" y="4.5125cm" font-family="Verdana" font-size="6" fill="black" >
AT3G50850
</text>
<text x="150.375cm" y="4.5125cm" font-family="Verdana" font-size="6" fill="black" >
AT3G50840
</text>
<text x="153.625cm" y="4.5125cm" font-family="Verdana" font-size="6" fill="black" >
AT3G50830
</text>
<text x="155.25cm" y="4.5125cm" font-family="Verdana" font-size="6" fill="black" >
AT3G50820
</text>
<text x="156.875cm" y="4.5125cm" font-family="Verdana" font-size="6" fill="black" >
AT3G50810
</text>
<text x="160.125cm" y="4.5125cm" font-family="Verdana" font-size="6" fill="black" >
AT3G50800
</text>
<text x="161.75cm" y="4.5125cm" font-family="Verdana" font-size="6" fill="black" >
AT3G50790
</text>
<text x="163.375cm" y="4.5125cm" font-family="Verdana" font-size="6" fill="black" >
AT3G50780
</text>
<text x="166.625cm" y="4.5125cm" font-family="Verdana" font-size="6" fill="black" >
AT3G50770
</text>
<text x="168.25cm" y="4.5125cm" font-family="Verdana" font-size="6" fill="black" >
AT3G50760
</text>
<text x="171.5cm" y="4.5125cm" font-family="Verdana" font-size="6" fill="black" >
AT3G50750
</text>
<text x="173.125cm" y="4.5125cm" font-family="Verdana" font-size="6" fill="black" >
AT3G50740
</text>
<text x="0.5cm" y="3.0625cm" font-family="Verdana" font-size="25" fill="black" >
ath 2
</text>
<text x="0.5cm" y="5.1875cm" font-family="Verdana" font-size="25" fill="black" >
ath 3
</text>
</svg>
