<?xml version="1.0" standalone="yes"?>
<svg xmlns="http://www.w3.org/2000/svg" width="119.5cm" height="8.875cm" >
<rect x="2.5cm" y="2.5cm" width="1.125cm" height="1.125cm" fill="#ffffff" stroke-width="5" />
<circle cx="3.0625cm" cy="3.0625cm" r="0.225cm" />
<rect x="4.125cm" y="2.5cm" width="1.125cm" height="1.125cm" fill="#c5dd34" stroke-width="5" />
<circle cx="4.6875cm" cy="3.0625cm" r="0.225cm" />
<rect x="5.75cm" y="2.5cm" width="1.125cm" height="1.125cm" fill="#d58cba" stroke-width="5" />
<circle cx="6.3125cm" cy="3.0625cm" r="0.225cm" />
<rect x="7.375cm" y="2.5cm" width="1.125cm" height="1.125cm" fill="#ffffff" stroke-width="5" />
<circle cx="7.9375cm" cy="3.0625cm" r="0.225cm" />
<rect x="9cm" y="2.5cm" width="1.125cm" height="1.125cm" fill="#9d096" stroke-width="5" />
<circle cx="9.5625cm" cy="3.0625cm" r="0.225cm" />
<rect x="10.625cm" y="2.5cm" width="1.125cm" height="1.125cm" fill="#ffffff" stroke-width="5" />
<circle cx="11.1875cm" cy="3.0625cm" r="0.225cm" />
<rect x="12.25cm" y="2.5cm" width="1.125cm" height="1.125cm" fill="#df3dd7" stroke-width="5" />
<circle cx="12.8125cm" cy="3.0625cm" r="0.225cm" />
<rect x="13.875cm" y="2.5cm" width="1.125cm" height="1.125cm" fill="#000" stroke-width="5" />
<circle cx="14.4375cm" cy="3.0625cm" r="0.225cm" />
<rect x="15.5cm" y="2.5cm" width="1.125cm" height="1.125cm" fill="#000" stroke-width="5" />
<circle cx="16.0625cm" cy="3.0625cm" r="0.225cm" />
<rect x="17.125cm" y="2.5cm" width="1.125cm" height="1.125cm" fill="#7dff76" stroke-width="5" />
<circle cx="17.6875cm" cy="3.0625cm" r="0.225cm" />
<rect x="18.75cm" y="2.5cm" width="1.125cm" height="1.125cm" fill="#ffffff" stroke-width="5" />
<circle cx="19.3125cm" cy="3.0625cm" r="0.225cm" />
<rect x="20.375cm" y="2.5cm" width="1.125cm" height="1.125cm" fill="#ffffff" stroke-width="5" />
<circle cx="20.9375cm" cy="3.0625cm" r="0.225cm" />
<rect x="22cm" y="2.5cm" width="1.125cm" height="1.125cm" fill="#ffffff" stroke-width="5" />
<circle cx="22.5625cm" cy="3.0625cm" r="0.225cm" />
<rect x="23.625cm" y="2.5cm" width="1.125cm" height="1.125cm" fill="#f46c2a" stroke-width="5" />
<circle cx="24.1875cm" cy="3.0625cm" r="0.225cm" />
<rect x="25.25cm" y="2.5cm" width="1.125cm" height="1.125cm" fill="#ffffff" stroke-width="5" />
<circle cx="25.8125cm" cy="3.0625cm" r="0.225cm" />
<rect x="26.875cm" y="2.5cm" width="1.125cm" height="1.125cm" fill="#ffffff" stroke-width="5" />
<circle cx="27.4375cm" cy="3.0625cm" r="0.225cm" />
<rect x="28.5cm" y="2.5cm" width="1.125cm" height="1.125cm" fill="#000" stroke-width="5" />
<circle cx="29.0625cm" cy="3.0625cm" r="0.225cm" />
<rect x="30.125cm" y="2.5cm" width="1.125cm" height="1.125cm" fill="#ffffff" stroke-width="5" />
<circle cx="30.6875cm" cy="3.0625cm" r="0.225cm" />
<rect x="31.75cm" y="2.5cm" width="1.125cm" height="1.125cm" fill="#ffffff" stroke-width="5" />
<circle cx="32.3125cm" cy="3.0625cm" r="0.225cm" />
<rect x="33.375cm" y="2.5cm" width="1.125cm" height="1.125cm" fill="#000" stroke-width="5" />
<circle cx="33.9375cm" cy="3.0625cm" r="0.225cm" />
<rect x="35cm" y="2.5cm" width="1.125cm" height="1.125cm" fill="#ffffff" stroke-width="5" />
<circle cx="35.5625cm" cy="3.0625cm" r="0.225cm" />
<rect x="36.625cm" y="2.5cm" width="1.125cm" height="1.125cm" fill="#000" stroke-width="5" />
<circle cx="37.1875cm" cy="3.0625cm" r="0.225cm" />
<rect x="38.25cm" y="2.5cm" width="1.125cm" height="1.125cm" fill="#ffffff" stroke-width="5" />
<circle cx="38.8125cm" cy="3.0625cm" r="0.225cm" />
<rect x="39.875cm" y="2.5cm" width="1.125cm" height="1.125cm" fill="#ffffff" stroke-width="5" />
<circle cx="40.4375cm" cy="3.0625cm" r="0.225cm" />
<rect x="41.5cm" y="2.5cm" width="1.125cm" height="1.125cm" fill="#000" stroke-width="5" />
<circle cx="42.0625cm" cy="3.0625cm" r="0.225cm" />
<rect x="43.125cm" y="2.5cm" width="1.125cm" height="1.125cm" fill="#ffffff" stroke-width="5" />
<circle cx="43.6875cm" cy="3.0625cm" r="0.225cm" />
<rect x="44.75cm" y="2.5cm" width="1.125cm" height="1.125cm" fill="#ffffff" stroke-width="5" />
<circle cx="45.3125cm" cy="3.0625cm" r="0.225cm" />
<rect x="46.375cm" y="2.5cm" width="1.125cm" height="1.125cm" fill="#626ac" stroke-width="5" />
<circle cx="46.9375cm" cy="3.0625cm" r="0.225cm" />
<rect x="48cm" y="2.5cm" width="1.125cm" height="1.125cm" fill="#ffffff" stroke-width="5" />
<circle cx="48.5625cm" cy="3.0625cm" r="0.225cm" />
<rect x="49.625cm" y="2.5cm" width="1.125cm" height="1.125cm" fill="#ffffff" stroke-width="5" />
<circle cx="50.1875cm" cy="3.0625cm" r="0.225cm" />
<rect x="51.25cm" y="2.5cm" width="1.125cm" height="1.125cm" fill="#8bab6c" stroke-width="5" />
<circle cx="51.8125cm" cy="3.0625cm" r="0.225cm" />
<rect x="52.875cm" y="2.5cm" width="1.125cm" height="1.125cm" fill="#4fa054" stroke-width="5" />
<circle cx="53.4375cm" cy="3.0625cm" r="0.225cm" />
<rect x="54.5cm" y="2.5cm" width="1.125cm" height="1.125cm" fill="#ffffff" stroke-width="5" />
<circle cx="55.0625cm" cy="3.0625cm" r="0.225cm" />
<rect x="56.125cm" y="2.5cm" width="1.125cm" height="1.125cm" fill="#dd243f" stroke-width="5" />
<circle cx="56.6875cm" cy="3.0625cm" r="0.225cm" />
<rect x="57.75cm" y="2.5cm" width="1.125cm" height="1.125cm" fill="#000" stroke-width="5" />
<circle cx="58.3125cm" cy="3.0625cm" r="0.225cm" />
<rect x="59.375cm" y="2.5cm" width="1.125cm" height="1.125cm" fill="#000" stroke-width="5" />
<circle cx="59.9375cm" cy="3.0625cm" r="0.225cm" />
<rect x="61cm" y="2.5cm" width="1.125cm" height="1.125cm" fill="#000" stroke-width="5" />
<circle cx="61.5625cm" cy="3.0625cm" r="0.225cm" />
<rect x="62.625cm" y="2.5cm" width="1.125cm" height="1.125cm" fill="#000" stroke-width="5" />
<circle cx="63.1875cm" cy="3.0625cm" r="0.225cm" />
<rect x="64.25cm" y="2.5cm" width="1.125cm" height="1.125cm" fill="#84edc5" stroke-width="5" />
<circle cx="64.8125cm" cy="3.0625cm" r="0.225cm" />
<rect x="65.875cm" y="2.5cm" width="1.125cm" height="1.125cm" fill="#b9a441" stroke-width="5" />
<circle cx="66.4375cm" cy="3.0625cm" r="0.225cm" />
<rect x="67.5cm" y="2.5cm" width="1.125cm" height="1.125cm" fill="#000" stroke-width="5" />
<circle cx="68.0625cm" cy="3.0625cm" r="0.225cm" />
<rect x="69.125cm" y="2.5cm" width="1.125cm" height="1.125cm" fill="#000" stroke-width="5" />
<circle cx="69.6875cm" cy="3.0625cm" r="0.225cm" />
<rect x="70.75cm" y="2.5cm" width="1.125cm" height="1.125cm" fill="#b5cc7b" stroke-width="5" />
<circle cx="71.3125cm" cy="3.0625cm" r="0.225cm" />
<rect x="72.375cm" y="2.5cm" width="1.125cm" height="1.125cm" fill="#ffffff" stroke-width="5" />
<circle cx="72.9375cm" cy="3.0625cm" r="0.225cm" />
<rect x="74cm" y="2.5cm" width="1.125cm" height="1.125cm" fill="#ffffff" stroke-width="5" />
<circle cx="74.5625cm" cy="3.0625cm" r="0.225cm" />
<rect x="75.625cm" y="2.5cm" width="1.125cm" height="1.125cm" fill="#7972de" stroke-width="5" />
<circle cx="76.1875cm" cy="3.0625cm" r="0.225cm" />
<rect x="77.25cm" y="2.5cm" width="1.125cm" height="1.125cm" fill="#ffffff" stroke-width="5" />
<circle cx="77.8125cm" cy="3.0625cm" r="0.225cm" />
<rect x="78.875cm" y="2.5cm" width="1.125cm" height="1.125cm" fill="#ffffff" stroke-width="5" />
<circle cx="79.4375cm" cy="3.0625cm" r="0.225cm" />
<rect x="80.5cm" y="2.5cm" width="1.125cm" height="1.125cm" fill="#ffffff" stroke-width="5" />
<circle cx="81.0625cm" cy="3.0625cm" r="0.225cm" />
<rect x="82.125cm" y="2.5cm" width="1.125cm" height="1.125cm" fill="#ffffff" stroke-width="5" />
<circle cx="82.6875cm" cy="3.0625cm" r="0.225cm" />
<rect x="83.75cm" y="2.5cm" width="1.125cm" height="1.125cm" fill="#ffffff" stroke-width="5" />
<circle cx="84.3125cm" cy="3.0625cm" r="0.225cm" />
<rect x="85.375cm" y="2.5cm" width="1.125cm" height="1.125cm" fill="#ffffff" stroke-width="5" />
<circle cx="85.9375cm" cy="3.0625cm" r="0.225cm" />
<rect x="87cm" y="2.5cm" width="1.125cm" height="1.125cm" fill="#9a8af5" stroke-width="5" />
<circle cx="87.5625cm" cy="3.0625cm" r="0.225cm" />
<rect x="88.625cm" y="2.5cm" width="1.125cm" height="1.125cm" fill="#000" stroke-width="5" />
<circle cx="89.1875cm" cy="3.0625cm" r="0.225cm" />
<rect x="90.25cm" y="2.5cm" width="1.125cm" height="1.125cm" fill="#146958" stroke-width="5" />
<circle cx="90.8125cm" cy="3.0625cm" r="0.225cm" />
<rect x="91.875cm" y="2.5cm" width="1.125cm" height="1.125cm" fill="#ffffff" stroke-width="5" />
<circle cx="92.4375cm" cy="3.0625cm" r="0.225cm" />
<rect x="93.5cm" y="2.5cm" width="1.125cm" height="1.125cm" fill="#ffffff" stroke-width="5" />
<circle cx="94.0625cm" cy="3.0625cm" r="0.225cm" />
<rect x="95.125cm" y="2.5cm" width="1.125cm" height="1.125cm" fill="#ffffff" stroke-width="5" />
<circle cx="95.6875cm" cy="3.0625cm" r="0.225cm" />
<rect x="96.75cm" y="2.5cm" width="1.125cm" height="1.125cm" fill="#38da6e" stroke-width="5" />
<circle cx="97.3125cm" cy="3.0625cm" r="0.225cm" />
<rect x="98.375cm" y="2.5cm" width="1.125cm" height="1.125cm" fill="#000" stroke-width="5" />
<circle cx="98.9375cm" cy="3.0625cm" r="0.225cm" />
<rect x="100cm" y="2.5cm" width="1.125cm" height="1.125cm" fill="#000" stroke-width="5" />
<circle cx="100.562cm" cy="3.0625cm" r="0.225cm" />
<rect x="101.625cm" y="2.5cm" width="1.125cm" height="1.125cm" fill="#000" stroke-width="5" />
<circle cx="102.188cm" cy="3.0625cm" r="0.225cm" />
<rect x="103.25cm" y="2.5cm" width="1.125cm" height="1.125cm" fill="#000" stroke-width="5" />
<circle cx="103.812cm" cy="3.0625cm" r="0.225cm" />
<rect x="104.875cm" y="2.5cm" width="1.125cm" height="1.125cm" fill="#ffffff" stroke-width="5" />
<circle cx="105.438cm" cy="3.0625cm" r="0.225cm" />
<rect x="106.5cm" y="2.5cm" width="1.125cm" height="1.125cm" fill="#000" stroke-width="5" />
<circle cx="107.062cm" cy="3.0625cm" r="0.225cm" />
<rect x="108.125cm" y="2.5cm" width="1.125cm" height="1.125cm" fill="#000" stroke-width="5" />
<circle cx="108.688cm" cy="3.0625cm" r="0.225cm" />
<rect x="109.75cm" y="2.5cm" width="1.125cm" height="1.125cm" fill="#000" stroke-width="5" />
<circle cx="110.312cm" cy="3.0625cm" r="0.225cm" />
<rect x="111.375cm" y="2.5cm" width="1.125cm" height="1.125cm" fill="#251386" stroke-width="5" />
<circle cx="111.938cm" cy="3.0625cm" r="0.225cm" />
<rect x="113cm" y="2.5cm" width="1.125cm" height="1.125cm" fill="#65d6b1" stroke-width="5" />
<circle cx="113.562cm" cy="3.0625cm" r="0.225cm" />
<rect x="114.625cm" y="2.5cm" width="1.125cm" height="1.125cm" fill="#000" stroke-width="5" />
<circle cx="115.188cm" cy="3.0625cm" r="0.225cm" />
<rect x="116.25cm" y="2.5cm" width="1.125cm" height="1.125cm" fill="#000" stroke-width="5" />
<circle cx="116.812cm" cy="3.0625cm" r="0.225cm" />
<rect x="117.875cm" y="2.5cm" width="1.125cm" height="1.125cm" fill="#c698dd" stroke-width="5" />
<circle cx="118.438cm" cy="3.0625cm" r="0.225cm" />
<rect x="2.5cm" y="4.625cm" width="1.125cm" height="1.125cm" fill="#ae19a4" stroke-width="5" />
<circle cx="3.0625cm" cy="5.1875cm" r="0.225cm" />
<rect x="4.125cm" y="4.625cm" width="1.125cm" height="1.125cm" fill="#c5dd34" stroke-width="5" />
<circle cx="4.6875cm" cy="5.1875cm" r="0.225cm" />
<rect x="5.75cm" y="4.625cm" width="1.125cm" height="1.125cm" fill="#d58cba" stroke-width="5" />
<circle cx="6.3125cm" cy="5.1875cm" r="0.225cm" />
<rect x="7.375cm" y="4.625cm" width="1.125cm" height="1.125cm" fill="#000" stroke-width="5" />
<circle cx="7.9375cm" cy="5.1875cm" r="0.225cm" />
<rect x="9cm" y="4.625cm" width="1.125cm" height="1.125cm" fill="#9d096" stroke-width="5" />
<circle cx="9.5625cm" cy="5.1875cm" r="0.225cm" />
<rect x="10.625cm" y="4.625cm" width="1.125cm" height="1.125cm" fill="#000" stroke-width="5" />
<circle cx="11.1875cm" cy="5.1875cm" r="0.225cm" />
<rect x="12.25cm" y="4.625cm" width="1.125cm" height="1.125cm" fill="#df3dd7" stroke-width="5" />
<circle cx="12.8125cm" cy="5.1875cm" r="0.225cm" />
<rect x="13.875cm" y="4.625cm" width="1.125cm" height="1.125cm" fill="#ffffff" stroke-width="5" />
<circle cx="14.4375cm" cy="5.1875cm" r="0.225cm" />
<rect x="15.5cm" y="4.625cm" width="1.125cm" height="1.125cm" fill="#ffffff" stroke-width="5" />
<circle cx="16.0625cm" cy="5.1875cm" r="0.225cm" />
<rect x="17.125cm" y="4.625cm" width="1.125cm" height="1.125cm" fill="#7dff76" stroke-width="5" />
<circle cx="17.6875cm" cy="5.1875cm" r="0.225cm" />
<rect x="18.75cm" y="4.625cm" width="1.125cm" height="1.125cm" fill="#ffffff" stroke-width="5" />
<circle cx="19.3125cm" cy="5.1875cm" r="0.225cm" />
<rect x="20.375cm" y="4.625cm" width="1.125cm" height="1.125cm" fill="#000" stroke-width="5" />
<circle cx="20.9375cm" cy="5.1875cm" r="0.225cm" />
<rect x="22cm" y="4.625cm" width="1.125cm" height="1.125cm" fill="#000" stroke-width="5" />
<circle cx="22.5625cm" cy="5.1875cm" r="0.225cm" />
<rect x="23.625cm" y="4.625cm" width="1.125cm" height="1.125cm" fill="#ffffff" stroke-width="5" />
<circle cx="24.1875cm" cy="5.1875cm" r="0.225cm" />
<rect x="25.25cm" y="4.625cm" width="1.125cm" height="1.125cm" fill="#000" stroke-width="5" />
<circle cx="25.8125cm" cy="5.1875cm" r="0.225cm" />
<rect x="26.875cm" y="4.625cm" width="1.125cm" height="1.125cm" fill="#ffffff" stroke-width="5" />
<circle cx="27.4375cm" cy="5.1875cm" r="0.225cm" />
<rect x="28.5cm" y="4.625cm" width="1.125cm" height="1.125cm" fill="#e1824c" stroke-width="5" />
<circle cx="29.0625cm" cy="5.1875cm" r="0.225cm" />
<rect x="30.125cm" y="4.625cm" width="1.125cm" height="1.125cm" fill="#63442" stroke-width="5" />
<circle cx="30.6875cm" cy="5.1875cm" r="0.225cm" />
<rect x="31.75cm" y="4.625cm" width="1.125cm" height="1.125cm" fill="#ffffff" stroke-width="5" />
<circle cx="32.3125cm" cy="5.1875cm" r="0.225cm" />
<rect x="33.375cm" y="4.625cm" width="1.125cm" height="1.125cm" fill="#000" stroke-width="5" />
<circle cx="33.9375cm" cy="5.1875cm" r="0.225cm" />
<rect x="35cm" y="4.625cm" width="1.125cm" height="1.125cm" fill="#ffffff" stroke-width="5" />
<circle cx="35.5625cm" cy="5.1875cm" r="0.225cm" />
<rect x="36.625cm" y="4.625cm" width="1.125cm" height="1.125cm" fill="#26f0a1" stroke-width="5" />
<circle cx="37.1875cm" cy="5.1875cm" r="0.225cm" />
<rect x="38.25cm" y="4.625cm" width="1.125cm" height="1.125cm" fill="#ffffff" stroke-width="5" />
<circle cx="38.8125cm" cy="5.1875cm" r="0.225cm" />
<rect x="39.875cm" y="4.625cm" width="1.125cm" height="1.125cm" fill="#ffffff" stroke-width="5" />
<circle cx="40.4375cm" cy="5.1875cm" r="0.225cm" />
<rect x="41.5cm" y="4.625cm" width="1.125cm" height="1.125cm" fill="#ffffff" stroke-width="5" />
<circle cx="42.0625cm" cy="5.1875cm" r="0.225cm" />
<rect x="43.125cm" y="4.625cm" width="1.125cm" height="1.125cm" fill="#ffffff" stroke-width="5" />
<circle cx="43.6875cm" cy="5.1875cm" r="0.225cm" />
<rect x="44.75cm" y="4.625cm" width="1.125cm" height="1.125cm" fill="#ffffff" stroke-width="5" />
<circle cx="45.3125cm" cy="5.1875cm" r="0.225cm" />
<rect x="46.375cm" y="4.625cm" width="1.125cm" height="1.125cm" fill="#626ac" stroke-width="5" />
<circle cx="46.9375cm" cy="5.1875cm" r="0.225cm" />
<rect x="48cm" y="4.625cm" width="1.125cm" height="1.125cm" fill="#000" stroke-width="5" />
<circle cx="48.5625cm" cy="5.1875cm" r="0.225cm" />
<rect x="49.625cm" y="4.625cm" width="1.125cm" height="1.125cm" fill="#000" stroke-width="5" />
<circle cx="50.1875cm" cy="5.1875cm" r="0.225cm" />
<rect x="51.25cm" y="4.625cm" width="1.125cm" height="1.125cm" fill="#8bab6c" stroke-width="5" />
<circle cx="51.8125cm" cy="5.1875cm" r="0.225cm" />
<rect x="52.875cm" y="4.625cm" width="1.125cm" height="1.125cm" fill="#4fa054" stroke-width="5" />
<circle cx="53.4375cm" cy="5.1875cm" r="0.225cm" />
<rect x="54.5cm" y="4.625cm" width="1.125cm" height="1.125cm" fill="#000" stroke-width="5" />
<circle cx="55.0625cm" cy="5.1875cm" r="0.225cm" />
<rect x="56.125cm" y="4.625cm" width="1.125cm" height="1.125cm" fill="#dd243f" stroke-width="5" />
<circle cx="56.6875cm" cy="5.1875cm" r="0.225cm" />
<rect x="57.75cm" y="4.625cm" width="1.125cm" height="1.125cm" fill="#ffffff" stroke-width="5" />
<circle cx="58.3125cm" cy="5.1875cm" r="0.225cm" />
<rect x="59.375cm" y="4.625cm" width="1.125cm" height="1.125cm" fill="#000" stroke-width="5" />
<circle cx="59.9375cm" cy="5.1875cm" r="0.225cm" />
<rect x="61cm" y="4.625cm" width="1.125cm" height="1.125cm" fill="#000" stroke-width="5" />
<circle cx="61.5625cm" cy="5.1875cm" r="0.225cm" />
<rect x="62.625cm" y="4.625cm" width="1.125cm" height="1.125cm" fill="#ffffff" stroke-width="5" />
<circle cx="63.1875cm" cy="5.1875cm" r="0.225cm" />
<rect x="64.25cm" y="4.625cm" width="1.125cm" height="1.125cm" fill="#84edc5" stroke-width="5" />
<circle cx="64.8125cm" cy="5.1875cm" r="0.225cm" />
<rect x="65.875cm" y="4.625cm" width="1.125cm" height="1.125cm" fill="#b9a441" stroke-width="5" />
<circle cx="66.4375cm" cy="5.1875cm" r="0.225cm" />
<rect x="67.5cm" y="4.625cm" width="1.125cm" height="1.125cm" fill="#ffffff" stroke-width="5" />
<circle cx="68.0625cm" cy="5.1875cm" r="0.225cm" />
<rect x="69.125cm" y="4.625cm" width="1.125cm" height="1.125cm" fill="#ffffff" stroke-width="5" />
<circle cx="69.6875cm" cy="5.1875cm" r="0.225cm" />
<rect x="70.75cm" y="4.625cm" width="1.125cm" height="1.125cm" fill="#b5cc7b" stroke-width="5" />
<circle cx="71.3125cm" cy="5.1875cm" r="0.225cm" />
<rect x="72.375cm" y="4.625cm" width="1.125cm" height="1.125cm" fill="#000" stroke-width="5" />
<circle cx="72.9375cm" cy="5.1875cm" r="0.225cm" />
<rect x="74cm" y="4.625cm" width="1.125cm" height="1.125cm" fill="#000" stroke-width="5" />
<circle cx="74.5625cm" cy="5.1875cm" r="0.225cm" />
<rect x="75.625cm" y="4.625cm" width="1.125cm" height="1.125cm" fill="#7972de" stroke-width="5" />
<circle cx="76.1875cm" cy="5.1875cm" r="0.225cm" />
<rect x="77.25cm" y="4.625cm" width="1.125cm" height="1.125cm" fill="#000" stroke-width="5" />
<circle cx="77.8125cm" cy="5.1875cm" r="0.225cm" />
<rect x="78.875cm" y="4.625cm" width="1.125cm" height="1.125cm" fill="#000" stroke-width="5" />
<circle cx="79.4375cm" cy="5.1875cm" r="0.225cm" />
<rect x="80.5cm" y="4.625cm" width="1.125cm" height="1.125cm" fill="#000" stroke-width="5" />
<circle cx="81.0625cm" cy="5.1875cm" r="0.225cm" />
<rect x="82.125cm" y="4.625cm" width="1.125cm" height="1.125cm" fill="#000" stroke-width="5" />
<circle cx="82.6875cm" cy="5.1875cm" r="0.225cm" />
<rect x="83.75cm" y="4.625cm" width="1.125cm" height="1.125cm" fill="#000" stroke-width="5" />
<circle cx="84.3125cm" cy="5.1875cm" r="0.225cm" />
<rect x="85.375cm" y="4.625cm" width="1.125cm" height="1.125cm" fill="#000" stroke-width="5" />
<circle cx="85.9375cm" cy="5.1875cm" r="0.225cm" />
<rect x="87cm" y="4.625cm" width="1.125cm" height="1.125cm" fill="#9a8af5" stroke-width="5" />
<circle cx="87.5625cm" cy="5.1875cm" r="0.225cm" />
<rect x="88.625cm" y="4.625cm" width="1.125cm" height="1.125cm" fill="#000" stroke-width="5" />
<circle cx="89.1875cm" cy="5.1875cm" r="0.225cm" />
<rect x="90.25cm" y="4.625cm" width="1.125cm" height="1.125cm" fill="#146958" stroke-width="5" />
<circle cx="90.8125cm" cy="5.1875cm" r="0.225cm" />
<rect x="91.875cm" y="4.625cm" width="1.125cm" height="1.125cm" fill="#000" stroke-width="5" />
<circle cx="92.4375cm" cy="5.1875cm" r="0.225cm" />
<rect x="93.5cm" y="4.625cm" width="1.125cm" height="1.125cm" fill="#000" stroke-width="5" />
<circle cx="94.0625cm" cy="5.1875cm" r="0.225cm" />
<rect x="95.125cm" y="4.625cm" width="1.125cm" height="1.125cm" fill="#000" stroke-width="5" />
<circle cx="95.6875cm" cy="5.1875cm" r="0.225cm" />
<rect x="96.75cm" y="4.625cm" width="1.125cm" height="1.125cm" fill="#38da6e" stroke-width="5" />
<circle cx="97.3125cm" cy="5.1875cm" r="0.225cm" />
<rect x="98.375cm" y="4.625cm" width="1.125cm" height="1.125cm" fill="#000" stroke-width="5" />
<circle cx="98.9375cm" cy="5.1875cm" r="0.225cm" />
<rect x="100cm" y="4.625cm" width="1.125cm" height="1.125cm" fill="#000" stroke-width="5" />
<circle cx="100.562cm" cy="5.1875cm" r="0.225cm" />
<rect x="101.625cm" y="4.625cm" width="1.125cm" height="1.125cm" fill="#000" stroke-width="5" />
<circle cx="102.188cm" cy="5.1875cm" r="0.225cm" />
<rect x="103.25cm" y="4.625cm" width="1.125cm" height="1.125cm" fill="#000" stroke-width="5" />
<circle cx="103.812cm" cy="5.1875cm" r="0.225cm" />
<rect x="104.875cm" y="4.625cm" width="1.125cm" height="1.125cm" fill="#000" stroke-width="5" />
<circle cx="105.438cm" cy="5.1875cm" r="0.225cm" />
<rect x="106.5cm" y="4.625cm" width="1.125cm" height="1.125cm" fill="#000" stroke-width="5" />
<circle cx="107.062cm" cy="5.1875cm" r="0.225cm" />
<rect x="108.125cm" y="4.625cm" width="1.125cm" height="1.125cm" fill="#3a8e1e" stroke-width="5" />
<circle cx="108.688cm" cy="5.1875cm" r="0.225cm" />
<rect x="109.75cm" y="4.625cm" width="1.125cm" height="1.125cm" fill="#ffffff" stroke-width="5" />
<circle cx="110.312cm" cy="5.1875cm" r="0.225cm" />
<rect x="111.375cm" y="4.625cm" width="1.125cm" height="1.125cm" fill="#ffffff" stroke-width="5" />
<circle cx="111.938cm" cy="5.1875cm" r="0.225cm" />
<rect x="113cm" y="4.625cm" width="1.125cm" height="1.125cm" fill="#65d6b1" stroke-width="5" />
<circle cx="113.562cm" cy="5.1875cm" r="0.225cm" />
<rect x="114.625cm" y="4.625cm" width="1.125cm" height="1.125cm" fill="#000" stroke-width="5" />
<circle cx="115.188cm" cy="5.1875cm" r="0.225cm" />
<rect x="116.25cm" y="4.625cm" width="1.125cm" height="1.125cm" fill="#000" stroke-width="5" />
<circle cx="116.812cm" cy="5.1875cm" r="0.225cm" />
<rect x="117.875cm" y="4.625cm" width="1.125cm" height="1.125cm" fill="#ffffff" stroke-width="5" />
<circle cx="118.438cm" cy="5.1875cm" r="0.225cm" />
<rect x="2.5cm" y="6.75cm" width="1.125cm" height="1.125cm" fill="#ae19a4" stroke-width="5" />
<circle cx="3.0625cm" cy="7.3125cm" r="0.225cm" />
<rect x="4.125cm" y="6.75cm" width="1.125cm" height="1.125cm" fill="#ffffff" stroke-width="5" />
<circle cx="4.6875cm" cy="7.3125cm" r="0.225cm" />
<rect x="5.75cm" y="6.75cm" width="1.125cm" height="1.125cm" fill="#ffffff" stroke-width="5" />
<circle cx="6.3125cm" cy="7.3125cm" r="0.225cm" />
<rect x="7.375cm" y="6.75cm" width="1.125cm" height="1.125cm" fill="#ffffff" stroke-width="5" />
<circle cx="7.9375cm" cy="7.3125cm" r="0.225cm" />
<rect x="9cm" y="6.75cm" width="1.125cm" height="1.125cm" fill="#ffffff" stroke-width="5" />
<circle cx="9.5625cm" cy="7.3125cm" r="0.225cm" />
<rect x="10.625cm" y="6.75cm" width="1.125cm" height="1.125cm" fill="#ffffff" stroke-width="5" />
<circle cx="11.1875cm" cy="7.3125cm" r="0.225cm" />
<rect x="12.25cm" y="6.75cm" width="1.125cm" height="1.125cm" fill="#ffffff" stroke-width="5" />
<circle cx="12.8125cm" cy="7.3125cm" r="0.225cm" />
<rect x="13.875cm" y="6.75cm" width="1.125cm" height="1.125cm" fill="#ffffff" stroke-width="5" />
<circle cx="14.4375cm" cy="7.3125cm" r="0.225cm" />
<rect x="15.5cm" y="6.75cm" width="1.125cm" height="1.125cm" fill="#ffffff" stroke-width="5" />
<circle cx="16.0625cm" cy="7.3125cm" r="0.225cm" />
<rect x="17.125cm" y="6.75cm" width="1.125cm" height="1.125cm" fill="#7dff76" stroke-width="5" />
<circle cx="17.6875cm" cy="7.3125cm" r="0.225cm" />
<rect x="18.75cm" y="6.75cm" width="1.125cm" height="1.125cm" fill="#000" stroke-width="5" />
<circle cx="19.3125cm" cy="7.3125cm" r="0.225cm" />
<rect x="20.375cm" y="6.75cm" width="1.125cm" height="1.125cm" fill="#000" stroke-width="5" />
<circle cx="20.9375cm" cy="7.3125cm" r="0.225cm" />
<rect x="22cm" y="6.75cm" width="1.125cm" height="1.125cm" fill="#000" stroke-width="5" />
<circle cx="22.5625cm" cy="7.3125cm" r="0.225cm" />
<rect x="23.625cm" y="6.75cm" width="1.125cm" height="1.125cm" fill="#f46c2a" stroke-width="5" />
<circle cx="24.1875cm" cy="7.3125cm" r="0.225cm" />
<rect x="25.25cm" y="6.75cm" width="1.125cm" height="1.125cm" fill="#000" stroke-width="5" />
<circle cx="25.8125cm" cy="7.3125cm" r="0.225cm" />
<rect x="26.875cm" y="6.75cm" width="1.125cm" height="1.125cm" fill="#000" stroke-width="5" />
<circle cx="27.4375cm" cy="7.3125cm" r="0.225cm" />
<rect x="28.5cm" y="6.75cm" width="1.125cm" height="1.125cm" fill="#e1824c" stroke-width="5" />
<circle cx="29.0625cm" cy="7.3125cm" r="0.225cm" />
<rect x="30.125cm" y="6.75cm" width="1.125cm" height="1.125cm" fill="#63442" stroke-width="5" />
<circle cx="30.6875cm" cy="7.3125cm" r="0.225cm" />
<rect x="31.75cm" y="6.75cm" width="1.125cm" height="1.125cm" fill="#000" stroke-width="5" />
<circle cx="32.3125cm" cy="7.3125cm" r="0.225cm" />
<rect x="33.375cm" y="6.75cm" width="1.125cm" height="1.125cm" fill="#000" stroke-width="5" />
<circle cx="33.9375cm" cy="7.3125cm" r="0.225cm" />
<rect x="35cm" y="6.75cm" width="1.125cm" height="1.125cm" fill="#000" stroke-width="5" />
<circle cx="35.5625cm" cy="7.3125cm" r="0.225cm" />
<rect x="36.625cm" y="6.75cm" width="1.125cm" height="1.125cm" fill="#26f0a1" stroke-width="5" />
<circle cx="37.1875cm" cy="7.3125cm" r="0.225cm" />
<rect x="38.25cm" y="6.75cm" width="1.125cm" height="1.125cm" fill="#000" stroke-width="5" />
<circle cx="38.8125cm" cy="7.3125cm" r="0.225cm" />
<rect x="39.875cm" y="6.75cm" width="1.125cm" height="1.125cm" fill="#000" stroke-width="5" />
<circle cx="40.4375cm" cy="7.3125cm" r="0.225cm" />
<rect x="41.5cm" y="6.75cm" width="1.125cm" height="1.125cm" fill="#000" stroke-width="5" />
<circle cx="42.0625cm" cy="7.3125cm" r="0.225cm" />
<rect x="43.125cm" y="6.75cm" width="1.125cm" height="1.125cm" fill="#000" stroke-width="5" />
<circle cx="43.6875cm" cy="7.3125cm" r="0.225cm" />
<rect x="44.75cm" y="6.75cm" width="1.125cm" height="1.125cm" fill="#000" stroke-width="5" />
<circle cx="45.3125cm" cy="7.3125cm" r="0.225cm" />
<rect x="46.375cm" y="6.75cm" width="1.125cm" height="1.125cm" fill="#626ac" stroke-width="5" />
<circle cx="46.9375cm" cy="7.3125cm" r="0.225cm" />
<rect x="48cm" y="6.75cm" width="1.125cm" height="1.125cm" fill="#ffffff" stroke-width="5" />
<circle cx="48.5625cm" cy="7.3125cm" r="0.225cm" />
<rect x="49.625cm" y="6.75cm" width="1.125cm" height="1.125cm" fill="#ffffff" stroke-width="5" />
<circle cx="50.1875cm" cy="7.3125cm" r="0.225cm" />
<rect x="51.25cm" y="6.75cm" width="1.125cm" height="1.125cm" fill="#ffffff" stroke-width="5" />
<circle cx="51.8125cm" cy="7.3125cm" r="0.225cm" />
<rect x="52.875cm" y="6.75cm" width="1.125cm" height="1.125cm" fill="#ffffff" stroke-width="5" />
<circle cx="53.4375cm" cy="7.3125cm" r="0.225cm" />
<rect x="54.5cm" y="6.75cm" width="1.125cm" height="1.125cm" fill="#ffffff" stroke-width="5" />
<circle cx="55.0625cm" cy="7.3125cm" r="0.225cm" />
<rect x="56.125cm" y="6.75cm" width="1.125cm" height="1.125cm" fill="#ffffff" stroke-width="5" />
<circle cx="56.6875cm" cy="7.3125cm" r="0.225cm" />
<rect x="57.75cm" y="6.75cm" width="1.125cm" height="1.125cm" fill="#ffffff" stroke-width="5" />
<circle cx="58.3125cm" cy="7.3125cm" r="0.225cm" />
<rect x="59.375cm" y="6.75cm" width="1.125cm" height="1.125cm" fill="#ffffff" stroke-width="5" />
<circle cx="59.9375cm" cy="7.3125cm" r="0.225cm" />
<rect x="61cm" y="6.75cm" width="1.125cm" height="1.125cm" fill="#ffffff" stroke-width="5" />
<circle cx="61.5625cm" cy="7.3125cm" r="0.225cm" />
<rect x="62.625cm" y="6.75cm" width="1.125cm" height="1.125cm" fill="#ffffff" stroke-width="5" />
<circle cx="63.1875cm" cy="7.3125cm" r="0.225cm" />
<rect x="64.25cm" y="6.75cm" width="1.125cm" height="1.125cm" fill="#ffffff" stroke-width="5" />
<circle cx="64.8125cm" cy="7.3125cm" r="0.225cm" />
<rect x="65.875cm" y="6.75cm" width="1.125cm" height="1.125cm" fill="#b9a441" stroke-width="5" />
<circle cx="66.4375cm" cy="7.3125cm" r="0.225cm" />
<rect x="67.5cm" y="6.75cm" width="1.125cm" height="1.125cm" fill="#000" stroke-width="5" />
<circle cx="68.0625cm" cy="7.3125cm" r="0.225cm" />
<rect x="69.125cm" y="6.75cm" width="1.125cm" height="1.125cm" fill="#000" stroke-width="5" />
<circle cx="69.6875cm" cy="7.3125cm" r="0.225cm" />
<rect x="70.75cm" y="6.75cm" width="1.125cm" height="1.125cm" fill="#b5cc7b" stroke-width="5" />
<circle cx="71.3125cm" cy="7.3125cm" r="0.225cm" />
<rect x="72.375cm" y="6.75cm" width="1.125cm" height="1.125cm" fill="#000" stroke-width="5" />
<circle cx="72.9375cm" cy="7.3125cm" r="0.225cm" />
<rect x="74cm" y="6.75cm" width="1.125cm" height="1.125cm" fill="#ffffff" stroke-width="5" />
<circle cx="74.5625cm" cy="7.3125cm" r="0.225cm" />
<rect x="75.625cm" y="6.75cm" width="1.125cm" height="1.125cm" fill="#000" stroke-width="5" />
<circle cx="76.1875cm" cy="7.3125cm" r="0.225cm" />
<rect x="77.25cm" y="6.75cm" width="1.125cm" height="1.125cm" fill="#000" stroke-width="5" />
<circle cx="77.8125cm" cy="7.3125cm" r="0.225cm" />
<rect x="78.875cm" y="6.75cm" width="1.125cm" height="1.125cm" fill="#ffffff" stroke-width="5" />
<circle cx="79.4375cm" cy="7.3125cm" r="0.225cm" />
<rect x="80.5cm" y="6.75cm" width="1.125cm" height="1.125cm" fill="#000" stroke-width="5" />
<circle cx="81.0625cm" cy="7.3125cm" r="0.225cm" />
<rect x="82.125cm" y="6.75cm" width="1.125cm" height="1.125cm" fill="#000" stroke-width="5" />
<circle cx="82.6875cm" cy="7.3125cm" r="0.225cm" />
<rect x="83.75cm" y="6.75cm" width="1.125cm" height="1.125cm" fill="#ffffff" stroke-width="5" />
<circle cx="84.3125cm" cy="7.3125cm" r="0.225cm" />
<rect x="85.375cm" y="6.75cm" width="1.125cm" height="1.125cm" fill="#000" stroke-width="5" />
<circle cx="85.9375cm" cy="7.3125cm" r="0.225cm" />
<rect x="87cm" y="6.75cm" width="1.125cm" height="1.125cm" fill="#000" stroke-width="5" />
<circle cx="87.5625cm" cy="7.3125cm" r="0.225cm" />
<rect x="88.625cm" y="6.75cm" width="1.125cm" height="1.125cm" fill="#000" stroke-width="5" />
<circle cx="89.1875cm" cy="7.3125cm" r="0.225cm" />
<rect x="90.25cm" y="6.75cm" width="1.125cm" height="1.125cm" fill="#ffffff" stroke-width="5" />
<circle cx="90.8125cm" cy="7.3125cm" r="0.225cm" />
<rect x="91.875cm" y="6.75cm" width="1.125cm" height="1.125cm" fill="#000" stroke-width="5" />
<circle cx="92.4375cm" cy="7.3125cm" r="0.225cm" />
<rect x="93.5cm" y="6.75cm" width="1.125cm" height="1.125cm" fill="#000" stroke-width="5" />
<circle cx="94.0625cm" cy="7.3125cm" r="0.225cm" />
<rect x="95.125cm" y="6.75cm" width="1.125cm" height="1.125cm" fill="#ffffff" stroke-width="5" />
<circle cx="95.6875cm" cy="7.3125cm" r="0.225cm" />
<rect x="96.75cm" y="6.75cm" width="1.125cm" height="1.125cm" fill="#000" stroke-width="5" />
<circle cx="97.3125cm" cy="7.3125cm" r="0.225cm" />
<rect x="98.375cm" y="6.75cm" width="1.125cm" height="1.125cm" fill="#000" stroke-width="5" />
<circle cx="98.9375cm" cy="7.3125cm" r="0.225cm" />
<rect x="100cm" y="6.75cm" width="1.125cm" height="1.125cm" fill="#ffffff" stroke-width="5" />
<circle cx="100.562cm" cy="7.3125cm" r="0.225cm" />
<rect x="101.625cm" y="6.75cm" width="1.125cm" height="1.125cm" fill="#000" stroke-width="5" />
<circle cx="102.188cm" cy="7.3125cm" r="0.225cm" />
<rect x="103.25cm" y="6.75cm" width="1.125cm" height="1.125cm" fill="#000" stroke-width="5" />
<circle cx="103.812cm" cy="7.3125cm" r="0.225cm" />
<rect x="104.875cm" y="6.75cm" width="1.125cm" height="1.125cm" fill="#ffffff" stroke-width="5" />
<circle cx="105.438cm" cy="7.3125cm" r="0.225cm" />
<rect x="106.5cm" y="6.75cm" width="1.125cm" height="1.125cm" fill="#000" stroke-width="5" />
<circle cx="107.062cm" cy="7.3125cm" r="0.225cm" />
<rect x="108.125cm" y="6.75cm" width="1.125cm" height="1.125cm" fill="#3a8e1e" stroke-width="5" />
<circle cx="108.688cm" cy="7.3125cm" r="0.225cm" />
<rect x="109.75cm" y="6.75cm" width="1.125cm" height="1.125cm" fill="#000" stroke-width="5" />
<circle cx="110.312cm" cy="7.3125cm" r="0.225cm" />
<rect x="111.375cm" y="6.75cm" width="1.125cm" height="1.125cm" fill="#251386" stroke-width="5" />
<circle cx="111.938cm" cy="7.3125cm" r="0.225cm" />
<rect x="113cm" y="6.75cm" width="1.125cm" height="1.125cm" fill="#ffffff" stroke-width="5" />
<circle cx="113.562cm" cy="7.3125cm" r="0.225cm" />
<rect x="114.625cm" y="6.75cm" width="1.125cm" height="1.125cm" fill="#ffffff" stroke-width="5" />
<circle cx="115.188cm" cy="7.3125cm" r="0.225cm" />
<rect x="116.25cm" y="6.75cm" width="1.125cm" height="1.125cm" fill="#ffffff" stroke-width="5" />
<circle cx="116.812cm" cy="7.3125cm" r="0.225cm" />
<rect x="117.875cm" y="6.75cm" width="1.125cm" height="1.125cm" fill="#c698dd" stroke-width="5" />
<circle cx="118.438cm" cy="7.3125cm" r="0.225cm" />
<text x="4.125cm" y="2.3875cm" font-family="Verdana" font-size="6" fill="black" >
AT3G49940
</text>
<text x="5.75cm" y="2.3875cm" font-family="Verdana" font-size="6" fill="black" >
AT3G49950
</text>
<text x="9cm" y="2.3875cm" font-family="Verdana" font-size="6" fill="black" >
AT3G49960
</text>
<text x="12.25cm" y="2.3875cm" font-family="Verdana" font-size="6" fill="black" >
AT3G49970
</text>
<text x="13.875cm" y="2.3875cm" font-family="Verdana" font-size="6" fill="black" >
AT3G49980
</text>
<text x="15.5cm" y="2.3875cm" font-family="Verdana" font-size="6" fill="black" >
AT3G49990
</text>
<text x="17.125cm" y="2.3875cm" font-family="Verdana" font-size="6" fill="black" >
AT3G50000
</text>
<text x="23.625cm" y="2.3875cm" font-family="Verdana" font-size="6" fill="black" >
AT3G50010
</text>
<text x="28.5cm" y="2.3875cm" font-family="Verdana" font-size="6" fill="black" >
AT3G50020
</text>
<text x="33.375cm" y="2.3875cm" font-family="Verdana" font-size="6" fill="black" >
AT3G50030
</text>
<text x="36.625cm" y="2.3875cm" font-family="Verdana" font-size="6" fill="black" >
AT3G50040
</text>
<text x="41.5cm" y="2.3875cm" font-family="Verdana" font-size="6" fill="black" >
AT3G50050
</text>
<text x="46.375cm" y="2.3875cm" font-family="Verdana" font-size="6" fill="black" >
AT3G50060
</text>
<text x="51.25cm" y="2.3875cm" font-family="Verdana" font-size="6" fill="black" >
AT3G50070
</text>
<text x="52.875cm" y="2.3875cm" font-family="Verdana" font-size="6" fill="black" >
AT3G50080
</text>
<text x="56.125cm" y="2.3875cm" font-family="Verdana" font-size="6" fill="black" >
AT3G50090
</text>
<text x="57.75cm" y="2.3875cm" font-family="Verdana" font-size="6" fill="black" >
AT3G50110
</text>
<text x="59.375cm" y="2.3875cm" font-family="Verdana" font-size="6" fill="black" >
AT3G50120
</text>
<text x="61cm" y="2.3875cm" font-family="Verdana" font-size="6" fill="black" >
AT3G50200
</text>
<text x="62.625cm" y="2.3875cm" font-family="Verdana" font-size="6" fill="black" >
AT3G50210
</text>
<text x="64.25cm" y="2.3875cm" font-family="Verdana" font-size="6" fill="black" >
AT3G50220
</text>
<text x="65.875cm" y="2.3875cm" font-family="Verdana" font-size="6" fill="black" >
AT3G50230
</text>
<text x="67.5cm" y="2.3875cm" font-family="Verdana" font-size="6" fill="black" >
AT3G50240
</text>
<text x="69.125cm" y="2.3875cm" font-family="Verdana" font-size="6" fill="black" >
AT3G50250
</text>
<text x="70.75cm" y="2.3875cm" font-family="Verdana" font-size="6" fill="black" >
AT3G50260
</text>
<text x="75.625cm" y="2.3875cm" font-family="Verdana" font-size="6" fill="black" >
AT3G50270
</text>
<text x="87cm" y="2.3875cm" font-family="Verdana" font-size="6" fill="black" >
AT3G50310
</text>
<text x="88.625cm" y="2.3875cm" font-family="Verdana" font-size="6" fill="black" >
AT3G50320
</text>
<text x="90.25cm" y="2.3875cm" font-family="Verdana" font-size="6" fill="black" >
AT3G50330
</text>
<text x="96.75cm" y="2.3875cm" font-family="Verdana" font-size="6" fill="black" >
AT3G50340
</text>
<text x="98.375cm" y="2.3875cm" font-family="Verdana" font-size="6" fill="black" >
AT3G50350
</text>
<text x="100cm" y="2.3875cm" font-family="Verdana" font-size="6" fill="black" >
AT3G50360
</text>
<text x="101.625cm" y="2.3875cm" font-family="Verdana" font-size="6" fill="black" >
AT3G50370
</text>
<text x="103.25cm" y="2.3875cm" font-family="Verdana" font-size="6" fill="black" >
AT3G50373
</text>
<text x="106.5cm" y="2.3875cm" font-family="Verdana" font-size="6" fill="black" >
AT3G50376
</text>
<text x="108.125cm" y="2.3875cm" font-family="Verdana" font-size="6" fill="black" >
AT3G50380
</text>
<text x="109.75cm" y="2.3875cm" font-family="Verdana" font-size="6" fill="black" >
AT3G50390
</text>
<text x="111.375cm" y="2.3875cm" font-family="Verdana" font-size="6" fill="black" >
AT3G50400
</text>
<text x="113cm" y="2.3875cm" font-family="Verdana" font-size="6" fill="black" >
AT3G50410
</text>
<text x="114.625cm" y="2.3875cm" font-family="Verdana" font-size="6" fill="black" >
AT3G50420
</text>
<text x="116.25cm" y="2.3875cm" font-family="Verdana" font-size="6" fill="black" >
AT3G50430
</text>
<text x="117.875cm" y="2.3875cm" font-family="Verdana" font-size="6" fill="black" >
AT3G50440
</text>
<text x="2.5cm" y="4.5125cm" font-family="Verdana" font-size="6" fill="black" >
AT5G67430
</text>
<text x="4.125cm" y="4.5125cm" font-family="Verdana" font-size="6" fill="black" >
AT5G67420
</text>
<text x="5.75cm" y="4.5125cm" font-family="Verdana" font-size="6" fill="black" >
AT5G67411
</text>
<text x="7.375cm" y="4.5125cm" font-family="Verdana" font-size="6" fill="black" >
AT5G67410
</text>
<text x="9cm" y="4.5125cm" font-family="Verdana" font-size="6" fill="black" >
AT5G67400
</text>
<text x="10.625cm" y="4.5125cm" font-family="Verdana" font-size="6" fill="black" >
AT5G67390
</text>
<text x="12.25cm" y="4.5125cm" font-family="Verdana" font-size="6" fill="black" >
AT5G67385
</text>
<text x="17.125cm" y="4.5125cm" font-family="Verdana" font-size="6" fill="black" >
AT5G67380
</text>
<text x="20.375cm" y="4.5125cm" font-family="Verdana" font-size="6" fill="black" >
AT5G67370
</text>
<text x="22cm" y="4.5125cm" font-family="Verdana" font-size="6" fill="black" >
AT5G67360
</text>
<text x="25.25cm" y="4.5125cm" font-family="Verdana" font-size="6" fill="black" >
AT5G67350
</text>
<text x="28.5cm" y="4.5125cm" font-family="Verdana" font-size="6" fill="black" >
AT5G67340
</text>
<text x="30.125cm" y="4.5125cm" font-family="Verdana" font-size="6" fill="black" >
AT5G67330
</text>
<text x="33.375cm" y="4.5125cm" font-family="Verdana" font-size="6" fill="black" >
AT5G67320
</text>
<text x="36.625cm" y="4.5125cm" font-family="Verdana" font-size="6" fill="black" >
AT5G67310
</text>
<text x="46.375cm" y="4.5125cm" font-family="Verdana" font-size="6" fill="black" >
AT5G67300
</text>
<text x="48cm" y="4.5125cm" font-family="Verdana" font-size="6" fill="black" >
AT5G67290
</text>
<text x="49.625cm" y="4.5125cm" font-family="Verdana" font-size="6" fill="black" >
AT5G67270
</text>
<text x="51.25cm" y="4.5125cm" font-family="Verdana" font-size="6" fill="black" >
AT5G67260
</text>
<text x="52.875cm" y="4.5125cm" font-family="Verdana" font-size="6" fill="black" >
AT5G67250
</text>
<text x="54.5cm" y="4.5125cm" font-family="Verdana" font-size="6" fill="black" >
AT5G67245
</text>
<text x="56.125cm" y="4.5125cm" font-family="Verdana" font-size="6" fill="black" >
AT5G67240
</text>
<text x="59.375cm" y="4.5125cm" font-family="Verdana" font-size="6" fill="black" >
AT5G67230
</text>
<text x="61cm" y="4.5125cm" font-family="Verdana" font-size="6" fill="black" >
AT5G67220
</text>
<text x="64.25cm" y="4.5125cm" font-family="Verdana" font-size="6" fill="black" >
AT5G67210
</text>
<text x="65.875cm" y="4.5125cm" font-family="Verdana" font-size="6" fill="black" >
AT5G67200
</text>
<text x="70.75cm" y="4.5125cm" font-family="Verdana" font-size="6" fill="black" >
AT5G67190
</text>
<text x="72.375cm" y="4.5125cm" font-family="Verdana" font-size="6" fill="black" >
AT5G67180
</text>
<text x="74cm" y="4.5125cm" font-family="Verdana" font-size="6" fill="black" >
AT5G67170
</text>
<text x="75.625cm" y="4.5125cm" font-family="Verdana" font-size="6" fill="black" >
AT5G67150
</text>
<text x="77.25cm" y="4.5125cm" font-family="Verdana" font-size="6" fill="black" >
AT5G67140
</text>
<text x="78.875cm" y="4.5125cm" font-family="Verdana" font-size="6" fill="black" >
AT5G67130
</text>
<text x="80.5cm" y="4.5125cm" font-family="Verdana" font-size="6" fill="black" >
AT5G67120
</text>
<text x="82.125cm" y="4.5125cm" font-family="Verdana" font-size="6" fill="black" >
AT5G67110
</text>
<text x="83.75cm" y="4.5125cm" font-family="Verdana" font-size="6" fill="black" >
AT5G67100
</text>
<text x="85.375cm" y="4.5125cm" font-family="Verdana" font-size="6" fill="black" >
AT5G67090
</text>
<text x="87cm" y="4.5125cm" font-family="Verdana" font-size="6" fill="black" >
AT5G67080
</text>
<text x="88.625cm" y="4.5125cm" font-family="Verdana" font-size="6" fill="black" >
AT5G67070
</text>
<text x="90.25cm" y="4.5125cm" font-family="Verdana" font-size="6" fill="black" >
AT5G67060
</text>
<text x="91.875cm" y="4.5125cm" font-family="Verdana" font-size="6" fill="black" >
AT5G67050
</text>
<text x="93.5cm" y="4.5125cm" font-family="Verdana" font-size="6" fill="black" >
AT5G67040
</text>
<text x="95.125cm" y="4.5125cm" font-family="Verdana" font-size="6" fill="black" >
AT5G67030
</text>
<text x="96.75cm" y="4.5125cm" font-family="Verdana" font-size="6" fill="black" >
AT5G67020
</text>
<text x="98.375cm" y="4.5125cm" font-family="Verdana" font-size="6" fill="black" >
AT5G67000
</text>
<text x="100cm" y="4.5125cm" font-family="Verdana" font-size="6" fill="black" >
AT5G66990
</text>
<text x="101.625cm" y="4.5125cm" font-family="Verdana" font-size="6" fill="black" >
AT5G66985
</text>
<text x="103.25cm" y="4.5125cm" font-family="Verdana" font-size="6" fill="black" >
AT5G66980
</text>
<text x="104.875cm" y="4.5125cm" font-family="Verdana" font-size="6" fill="black" >
AT5G66970
</text>
<text x="106.5cm" y="4.5125cm" font-family="Verdana" font-size="6" fill="black" >
AT5G66960
</text>
<text x="108.125cm" y="4.5125cm" font-family="Verdana" font-size="6" fill="black" >
AT5G66950
</text>
<text x="113cm" y="4.5125cm" font-family="Verdana" font-size="6" fill="black" >
AT5G66940
</text>
<text x="114.625cm" y="4.5125cm" font-family="Verdana" font-size="6" fill="black" >
AT5G66930
</text>
<text x="116.25cm" y="4.5125cm" font-family="Verdana" font-size="6" fill="black" >
AT5G66920
</text>
<text x="2.5cm" y="6.6375cm" font-family="Verdana" font-size="6" fill="black" >
AT2G23060
</text>
<text x="17.125cm" y="6.6375cm" font-family="Verdana" font-size="6" fill="black" >
AT2G23070
</text>
<text x="18.75cm" y="6.6375cm" font-family="Verdana" font-size="6" fill="black" >
AT2G23090
</text>
<text x="20.375cm" y="6.6375cm" font-family="Verdana" font-size="6" fill="black" >
AT2G23093
</text>
<text x="22cm" y="6.6375cm" font-family="Verdana" font-size="6" fill="black" >
AT2G23096
</text>
<text x="23.625cm" y="6.6375cm" font-family="Verdana" font-size="6" fill="black" >
AT2G23100
</text>
<text x="25.25cm" y="6.6375cm" font-family="Verdana" font-size="6" fill="black" >
AT2G23110
</text>
<text x="26.875cm" y="6.6375cm" font-family="Verdana" font-size="6" fill="black" >
AT2G23130
</text>
<text x="28.5cm" y="6.6375cm" font-family="Verdana" font-size="6" fill="black" >
AT2G23140
</text>
<text x="30.125cm" y="6.6375cm" font-family="Verdana" font-size="6" fill="black" >
AT2G23150
</text>
<text x="31.75cm" y="6.6375cm" font-family="Verdana" font-size="6" fill="black" >
AT2G23160
</text>
<text x="33.375cm" y="6.6375cm" font-family="Verdana" font-size="6" fill="black" >
AT2G23170
</text>
<text x="35cm" y="6.6375cm" font-family="Verdana" font-size="6" fill="black" >
AT2G23180
</text>
<text x="36.625cm" y="6.6375cm" font-family="Verdana" font-size="6" fill="black" >
AT2G23190
</text>
<text x="38.25cm" y="6.6375cm" font-family="Verdana" font-size="6" fill="black" >
AT2G23200
</text>
<text x="39.875cm" y="6.6375cm" font-family="Verdana" font-size="6" fill="black" >
AT2G23210
</text>
<text x="41.5cm" y="6.6375cm" font-family="Verdana" font-size="6" fill="black" >
AT2G23230
</text>
<text x="43.125cm" y="6.6375cm" font-family="Verdana" font-size="6" fill="black" >
AT2G23240
</text>
<text x="44.75cm" y="6.6375cm" font-family="Verdana" font-size="6" fill="black" >
AT2G23270
</text>
<text x="46.375cm" y="6.6375cm" font-family="Verdana" font-size="6" fill="black" >
AT2G23290
</text>
<text x="65.875cm" y="6.6375cm" font-family="Verdana" font-size="6" fill="black" >
AT2G23300
</text>
<text x="67.5cm" y="6.6375cm" font-family="Verdana" font-size="6" fill="black" >
AT2G23310
</text>
<text x="69.125cm" y="6.6375cm" font-family="Verdana" font-size="6" fill="black" >
AT2G23320
</text>
<text x="70.75cm" y="6.6375cm" font-family="Verdana" font-size="6" fill="black" >
AT2G23340
</text>
<text x="72.375cm" y="6.6375cm" font-family="Verdana" font-size="6" fill="black" >
AT2G23350
</text>
<text x="75.625cm" y="6.6375cm" font-family="Verdana" font-size="6" fill="black" >
AT2G23360
</text>
<text x="77.25cm" y="6.6375cm" font-family="Verdana" font-size="6" fill="black" >
AT2G23370
</text>
<text x="80.5cm" y="6.6375cm" font-family="Verdana" font-size="6" fill="black" >
AT2G23380
</text>
<text x="82.125cm" y="6.6375cm" font-family="Verdana" font-size="6" fill="black" >
AT2G23390
</text>
<text x="85.375cm" y="6.6375cm" font-family="Verdana" font-size="6" fill="black" >
AT2G23400
</text>
<text x="87cm" y="6.6375cm" font-family="Verdana" font-size="6" fill="black" >
AT2G23420
</text>
<text x="88.625cm" y="6.6375cm" font-family="Verdana" font-size="6" fill="black" >
AT2G23430
</text>
<text x="91.875cm" y="6.6375cm" font-family="Verdana" font-size="6" fill="black" >
AT2G23440
</text>
<text x="93.5cm" y="6.6375cm" font-family="Verdana" font-size="6" fill="black" >
AT2G23450
</text>
<text x="96.75cm" y="6.6375cm" font-family="Verdana" font-size="6" fill="black" >
AT2G23460
</text>
<text x="98.375cm" y="6.6375cm" font-family="Verdana" font-size="6" fill="black" >
AT2G23470
</text>
<text x="101.625cm" y="6.6375cm" font-family="Verdana" font-size="6" fill="black" >
AT2G23480
</text>
<text x="103.25cm" y="6.6375cm" font-family="Verdana" font-size="6" fill="black" >
AT2G23490
</text>
<text x="106.5cm" y="6.6375cm" font-family="Verdana" font-size="6" fill="black" >
AT2G23510
</text>
<text x="108.125cm" y="6.6375cm" font-family="Verdana" font-size="6" fill="black" >
AT2G23520
</text>
<text x="109.75cm" y="6.6375cm" font-family="Verdana" font-size="6" fill="black" >
AT2G23530
</text>
<text x="111.375cm" y="6.6375cm" font-family="Verdana" font-size="6" fill="black" >
AT2G23540
</text>
<text x="117.875cm" y="6.6375cm" font-family="Verdana" font-size="6" fill="black" >
AT2G23550
</text>
<text x="0.5cm" y="3.0625cm" font-family="Verdana" font-size="25" fill="black" >
ath 3
</text>
<text x="0.5cm" y="5.1875cm" font-family="Verdana" font-size="25" fill="black" >
ath 5
</text>
<text x="0.5cm" y="7.3125cm" font-family="Verdana" font-size="25" fill="black" >
ath 2
</text>
</svg>
