<?xml version="1.0" standalone="yes"?>
<svg xmlns="http://www.w3.org/2000/svg" width="74cm" height="6.75cm" >
<rect x="2.5cm" y="2.5cm" width="1.125cm" height="1.125cm" fill="#1f56e2" stroke-width="5" />
<circle cx="3.0625cm" cy="3.0625cm" r="0.225cm" />
<rect x="4.125cm" y="2.5cm" width="1.125cm" height="1.125cm" fill="#ea1e36" stroke-width="5" />
<circle cx="4.6875cm" cy="3.0625cm" r="0.225cm" />
<rect x="5.75cm" y="2.5cm" width="1.125cm" height="1.125cm" fill="#000" stroke-width="5" />
<circle cx="6.3125cm" cy="3.0625cm" r="0.225cm" />
<rect x="7.375cm" y="2.5cm" width="1.125cm" height="1.125cm" fill="#000" stroke-width="5" />
<circle cx="7.9375cm" cy="3.0625cm" r="0.225cm" />
<rect x="9cm" y="2.5cm" width="1.125cm" height="1.125cm" fill="#000" stroke-width="5" />
<circle cx="9.5625cm" cy="3.0625cm" r="0.225cm" />
<rect x="10.625cm" y="2.5cm" width="1.125cm" height="1.125cm" fill="#000" stroke-width="5" />
<circle cx="11.1875cm" cy="3.0625cm" r="0.225cm" />
<rect x="12.25cm" y="2.5cm" width="1.125cm" height="1.125cm" fill="#000" stroke-width="5" />
<circle cx="12.8125cm" cy="3.0625cm" r="0.225cm" />
<rect x="13.875cm" y="2.5cm" width="1.125cm" height="1.125cm" fill="#000" stroke-width="5" />
<circle cx="14.4375cm" cy="3.0625cm" r="0.225cm" />
<rect x="15.5cm" y="2.5cm" width="1.125cm" height="1.125cm" fill="#d5a381" stroke-width="5" />
<circle cx="16.0625cm" cy="3.0625cm" r="0.225cm" />
<rect x="17.125cm" y="2.5cm" width="1.125cm" height="1.125cm" fill="#ffffff" stroke-width="5" />
<circle cx="17.6875cm" cy="3.0625cm" r="0.225cm" />
<rect x="18.75cm" y="2.5cm" width="1.125cm" height="1.125cm" fill="#ffffff" stroke-width="5" />
<circle cx="19.3125cm" cy="3.0625cm" r="0.225cm" />
<rect x="20.375cm" y="2.5cm" width="1.125cm" height="1.125cm" fill="#ffffff" stroke-width="5" />
<circle cx="20.9375cm" cy="3.0625cm" r="0.225cm" />
<rect x="22cm" y="2.5cm" width="1.125cm" height="1.125cm" fill="#ffffff" stroke-width="5" />
<circle cx="22.5625cm" cy="3.0625cm" r="0.225cm" />
<rect x="23.625cm" y="2.5cm" width="1.125cm" height="1.125cm" fill="#2ff014" stroke-width="5" />
<circle cx="24.1875cm" cy="3.0625cm" r="0.225cm" />
<rect x="25.25cm" y="2.5cm" width="1.125cm" height="1.125cm" fill="#000" stroke-width="5" />
<circle cx="25.8125cm" cy="3.0625cm" r="0.225cm" />
<rect x="26.875cm" y="2.5cm" width="1.125cm" height="1.125cm" fill="#8ba5df" stroke-width="5" />
<circle cx="27.4375cm" cy="3.0625cm" r="0.225cm" />
<rect x="28.5cm" y="2.5cm" width="1.125cm" height="1.125cm" fill="#000" stroke-width="5" />
<circle cx="29.0625cm" cy="3.0625cm" r="0.225cm" />
<rect x="30.125cm" y="2.5cm" width="1.125cm" height="1.125cm" fill="#a35524" stroke-width="5" />
<circle cx="30.6875cm" cy="3.0625cm" r="0.225cm" />
<rect x="31.75cm" y="2.5cm" width="1.125cm" height="1.125cm" fill="#000" stroke-width="5" />
<circle cx="32.3125cm" cy="3.0625cm" r="0.225cm" />
<rect x="33.375cm" y="2.5cm" width="1.125cm" height="1.125cm" fill="#000" stroke-width="5" />
<circle cx="33.9375cm" cy="3.0625cm" r="0.225cm" />
<rect x="35cm" y="2.5cm" width="1.125cm" height="1.125cm" fill="#000" stroke-width="5" />
<circle cx="35.5625cm" cy="3.0625cm" r="0.225cm" />
<rect x="36.625cm" y="2.5cm" width="1.125cm" height="1.125cm" fill="#000" stroke-width="5" />
<circle cx="37.1875cm" cy="3.0625cm" r="0.225cm" />
<rect x="38.25cm" y="2.5cm" width="1.125cm" height="1.125cm" fill="#000" stroke-width="5" />
<circle cx="38.8125cm" cy="3.0625cm" r="0.225cm" />
<rect x="39.875cm" y="2.5cm" width="1.125cm" height="1.125cm" fill="#000" stroke-width="5" />
<circle cx="40.4375cm" cy="3.0625cm" r="0.225cm" />
<rect x="41.5cm" y="2.5cm" width="1.125cm" height="1.125cm" fill="#000" stroke-width="5" />
<circle cx="42.0625cm" cy="3.0625cm" r="0.225cm" />
<rect x="43.125cm" y="2.5cm" width="1.125cm" height="1.125cm" fill="#000" stroke-width="5" />
<circle cx="43.6875cm" cy="3.0625cm" r="0.225cm" />
<rect x="44.75cm" y="2.5cm" width="1.125cm" height="1.125cm" fill="#000" stroke-width="5" />
<circle cx="45.3125cm" cy="3.0625cm" r="0.225cm" />
<rect x="46.375cm" y="2.5cm" width="1.125cm" height="1.125cm" fill="#000" stroke-width="5" />
<circle cx="46.9375cm" cy="3.0625cm" r="0.225cm" />
<rect x="48cm" y="2.5cm" width="1.125cm" height="1.125cm" fill="#000" stroke-width="5" />
<circle cx="48.5625cm" cy="3.0625cm" r="0.225cm" />
<rect x="49.625cm" y="2.5cm" width="1.125cm" height="1.125cm" fill="#000" stroke-width="5" />
<circle cx="50.1875cm" cy="3.0625cm" r="0.225cm" />
<rect x="51.25cm" y="2.5cm" width="1.125cm" height="1.125cm" fill="#000" stroke-width="5" />
<circle cx="51.8125cm" cy="3.0625cm" r="0.225cm" />
<rect x="52.875cm" y="2.5cm" width="1.125cm" height="1.125cm" fill="#000" stroke-width="5" />
<circle cx="53.4375cm" cy="3.0625cm" r="0.225cm" />
<rect x="54.5cm" y="2.5cm" width="1.125cm" height="1.125cm" fill="#000" stroke-width="5" />
<circle cx="55.0625cm" cy="3.0625cm" r="0.225cm" />
<rect x="56.125cm" y="2.5cm" width="1.125cm" height="1.125cm" fill="#000" stroke-width="5" />
<circle cx="56.6875cm" cy="3.0625cm" r="0.225cm" />
<rect x="57.75cm" y="2.5cm" width="1.125cm" height="1.125cm" fill="#92fffb" stroke-width="5" />
<circle cx="58.3125cm" cy="3.0625cm" r="0.225cm" />
<rect x="59.375cm" y="2.5cm" width="1.125cm" height="1.125cm" fill="#43bdd8" stroke-width="5" />
<circle cx="59.9375cm" cy="3.0625cm" r="0.225cm" />
<rect x="61cm" y="2.5cm" width="1.125cm" height="1.125cm" fill="#000" stroke-width="5" />
<circle cx="61.5625cm" cy="3.0625cm" r="0.225cm" />
<rect x="62.625cm" y="2.5cm" width="1.125cm" height="1.125cm" fill="#000" stroke-width="5" />
<circle cx="63.1875cm" cy="3.0625cm" r="0.225cm" />
<rect x="64.25cm" y="2.5cm" width="1.125cm" height="1.125cm" fill="#000" stroke-width="5" />
<circle cx="64.8125cm" cy="3.0625cm" r="0.225cm" />
<rect x="65.875cm" y="2.5cm" width="1.125cm" height="1.125cm" fill="#000" stroke-width="5" />
<circle cx="66.4375cm" cy="3.0625cm" r="0.225cm" />
<rect x="67.5cm" y="2.5cm" width="1.125cm" height="1.125cm" fill="#000" stroke-width="5" />
<circle cx="68.0625cm" cy="3.0625cm" r="0.225cm" />
<rect x="69.125cm" y="2.5cm" width="1.125cm" height="1.125cm" fill="#000" stroke-width="5" />
<circle cx="69.6875cm" cy="3.0625cm" r="0.225cm" />
<rect x="70.75cm" y="2.5cm" width="1.125cm" height="1.125cm" fill="#000" stroke-width="5" />
<circle cx="71.3125cm" cy="3.0625cm" r="0.225cm" />
<rect x="72.375cm" y="2.5cm" width="1.125cm" height="1.125cm" fill="#ae8ab1" stroke-width="5" />
<circle cx="72.9375cm" cy="3.0625cm" r="0.225cm" />
<rect x="2.5cm" y="4.625cm" width="1.125cm" height="1.125cm" fill="#1f56e2" stroke-width="5" />
<circle cx="3.0625cm" cy="5.1875cm" r="0.225cm" />
<rect x="4.125cm" y="4.625cm" width="1.125cm" height="1.125cm" fill="#ea1e36" stroke-width="5" />
<circle cx="4.6875cm" cy="5.1875cm" r="0.225cm" />
<rect x="5.75cm" y="4.625cm" width="1.125cm" height="1.125cm" fill="#ffffff" stroke-width="5" />
<circle cx="6.3125cm" cy="5.1875cm" r="0.225cm" />
<rect x="7.375cm" y="4.625cm" width="1.125cm" height="1.125cm" fill="#ffffff" stroke-width="5" />
<circle cx="7.9375cm" cy="5.1875cm" r="0.225cm" />
<rect x="9cm" y="4.625cm" width="1.125cm" height="1.125cm" fill="#ffffff" stroke-width="5" />
<circle cx="9.5625cm" cy="5.1875cm" r="0.225cm" />
<rect x="10.625cm" y="4.625cm" width="1.125cm" height="1.125cm" fill="#ffffff" stroke-width="5" />
<circle cx="11.1875cm" cy="5.1875cm" r="0.225cm" />
<rect x="12.25cm" y="4.625cm" width="1.125cm" height="1.125cm" fill="#ffffff" stroke-width="5" />
<circle cx="12.8125cm" cy="5.1875cm" r="0.225cm" />
<rect x="13.875cm" y="4.625cm" width="1.125cm" height="1.125cm" fill="#ffffff" stroke-width="5" />
<circle cx="14.4375cm" cy="5.1875cm" r="0.225cm" />
<rect x="15.5cm" y="4.625cm" width="1.125cm" height="1.125cm" fill="#d5a381" stroke-width="5" />
<circle cx="16.0625cm" cy="5.1875cm" r="0.225cm" />
<rect x="17.125cm" y="4.625cm" width="1.125cm" height="1.125cm" fill="#000" stroke-width="5" />
<circle cx="17.6875cm" cy="5.1875cm" r="0.225cm" />
<rect x="18.75cm" y="4.625cm" width="1.125cm" height="1.125cm" fill="#000" stroke-width="5" />
<circle cx="19.3125cm" cy="5.1875cm" r="0.225cm" />
<rect x="20.375cm" y="4.625cm" width="1.125cm" height="1.125cm" fill="#000" stroke-width="5" />
<circle cx="20.9375cm" cy="5.1875cm" r="0.225cm" />
<rect x="22cm" y="4.625cm" width="1.125cm" height="1.125cm" fill="#000" stroke-width="5" />
<circle cx="22.5625cm" cy="5.1875cm" r="0.225cm" />
<rect x="23.625cm" y="4.625cm" width="1.125cm" height="1.125cm" fill="#2ff014" stroke-width="5" />
<circle cx="24.1875cm" cy="5.1875cm" r="0.225cm" />
<rect x="25.25cm" y="4.625cm" width="1.125cm" height="1.125cm" fill="#ffffff" stroke-width="5" />
<circle cx="25.8125cm" cy="5.1875cm" r="0.225cm" />
<rect x="26.875cm" y="4.625cm" width="1.125cm" height="1.125cm" fill="#8ba5df" stroke-width="5" />
<circle cx="27.4375cm" cy="5.1875cm" r="0.225cm" />
<rect x="28.5cm" y="4.625cm" width="1.125cm" height="1.125cm" fill="#ffffff" stroke-width="5" />
<circle cx="29.0625cm" cy="5.1875cm" r="0.225cm" />
<rect x="30.125cm" y="4.625cm" width="1.125cm" height="1.125cm" fill="#a35524" stroke-width="5" />
<circle cx="30.6875cm" cy="5.1875cm" r="0.225cm" />
<rect x="31.75cm" y="4.625cm" width="1.125cm" height="1.125cm" fill="#ffffff" stroke-width="5" />
<circle cx="32.3125cm" cy="5.1875cm" r="0.225cm" />
<rect x="33.375cm" y="4.625cm" width="1.125cm" height="1.125cm" fill="#ffffff" stroke-width="5" />
<circle cx="33.9375cm" cy="5.1875cm" r="0.225cm" />
<rect x="35cm" y="4.625cm" width="1.125cm" height="1.125cm" fill="#000" stroke-width="5" />
<circle cx="35.5625cm" cy="5.1875cm" r="0.225cm" />
<rect x="36.625cm" y="4.625cm" width="1.125cm" height="1.125cm" fill="#ffffff" stroke-width="5" />
<circle cx="37.1875cm" cy="5.1875cm" r="0.225cm" />
<rect x="38.25cm" y="4.625cm" width="1.125cm" height="1.125cm" fill="#ffffff" stroke-width="5" />
<circle cx="38.8125cm" cy="5.1875cm" r="0.225cm" />
<rect x="39.875cm" y="4.625cm" width="1.125cm" height="1.125cm" fill="#000" stroke-width="5" />
<circle cx="40.4375cm" cy="5.1875cm" r="0.225cm" />
<rect x="41.5cm" y="4.625cm" width="1.125cm" height="1.125cm" fill="#ffffff" stroke-width="5" />
<circle cx="42.0625cm" cy="5.1875cm" r="0.225cm" />
<rect x="43.125cm" y="4.625cm" width="1.125cm" height="1.125cm" fill="#000" stroke-width="5" />
<circle cx="43.6875cm" cy="5.1875cm" r="0.225cm" />
<rect x="44.75cm" y="4.625cm" width="1.125cm" height="1.125cm" fill="#ffffff" stroke-width="5" />
<circle cx="45.3125cm" cy="5.1875cm" r="0.225cm" />
<rect x="46.375cm" y="4.625cm" width="1.125cm" height="1.125cm" fill="#ffffff" stroke-width="5" />
<circle cx="46.9375cm" cy="5.1875cm" r="0.225cm" />
<rect x="48cm" y="4.625cm" width="1.125cm" height="1.125cm" fill="#000" stroke-width="5" />
<circle cx="48.5625cm" cy="5.1875cm" r="0.225cm" />
<rect x="49.625cm" y="4.625cm" width="1.125cm" height="1.125cm" fill="#ffffff" stroke-width="5" />
<circle cx="50.1875cm" cy="5.1875cm" r="0.225cm" />
<rect x="51.25cm" y="4.625cm" width="1.125cm" height="1.125cm" fill="#ffffff" stroke-width="5" />
<circle cx="51.8125cm" cy="5.1875cm" r="0.225cm" />
<rect x="52.875cm" y="4.625cm" width="1.125cm" height="1.125cm" fill="#43bdd8" stroke-width="5" />
<circle cx="53.4375cm" cy="5.1875cm" r="0.225cm" />
<rect x="54.5cm" y="4.625cm" width="1.125cm" height="1.125cm" fill="#ffffff" stroke-width="5" />
<circle cx="55.0625cm" cy="5.1875cm" r="0.225cm" />
<rect x="56.125cm" y="4.625cm" width="1.125cm" height="1.125cm" fill="#ffffff" stroke-width="5" />
<circle cx="56.6875cm" cy="5.1875cm" r="0.225cm" />
<rect x="57.75cm" y="4.625cm" width="1.125cm" height="1.125cm" fill="#92fffb" stroke-width="5" />
<circle cx="58.3125cm" cy="5.1875cm" r="0.225cm" />
<rect x="59.375cm" y="4.625cm" width="1.125cm" height="1.125cm" fill="#000" stroke-width="5" />
<circle cx="59.9375cm" cy="5.1875cm" r="0.225cm" />
<rect x="61cm" y="4.625cm" width="1.125cm" height="1.125cm" fill="#ffffff" stroke-width="5" />
<circle cx="61.5625cm" cy="5.1875cm" r="0.225cm" />
<rect x="62.625cm" y="4.625cm" width="1.125cm" height="1.125cm" fill="#000" stroke-width="5" />
<circle cx="63.1875cm" cy="5.1875cm" r="0.225cm" />
<rect x="64.25cm" y="4.625cm" width="1.125cm" height="1.125cm" fill="#000" stroke-width="5" />
<circle cx="64.8125cm" cy="5.1875cm" r="0.225cm" />
<rect x="65.875cm" y="4.625cm" width="1.125cm" height="1.125cm" fill="#ffffff" stroke-width="5" />
<circle cx="66.4375cm" cy="5.1875cm" r="0.225cm" />
<rect x="67.5cm" y="4.625cm" width="1.125cm" height="1.125cm" fill="#000" stroke-width="5" />
<circle cx="68.0625cm" cy="5.1875cm" r="0.225cm" />
<rect x="69.125cm" y="4.625cm" width="1.125cm" height="1.125cm" fill="#000" stroke-width="5" />
<circle cx="69.6875cm" cy="5.1875cm" r="0.225cm" />
<rect x="70.75cm" y="4.625cm" width="1.125cm" height="1.125cm" fill="#ffffff" stroke-width="5" />
<circle cx="71.3125cm" cy="5.1875cm" r="0.225cm" />
<rect x="72.375cm" y="4.625cm" width="1.125cm" height="1.125cm" fill="#ae8ab1" stroke-width="5" />
<circle cx="72.9375cm" cy="5.1875cm" r="0.225cm" />
<text x="2.5cm" y="2.3875cm" font-family="Verdana" font-size="6" fill="black" >
AT4G00355
</text>
<text x="4.125cm" y="2.3875cm" font-family="Verdana" font-size="6" fill="black" >
AT4G00360
</text>
<text x="5.75cm" y="2.3875cm" font-family="Verdana" font-size="6" fill="black" >
AT4G00370
</text>
<text x="7.375cm" y="2.3875cm" font-family="Verdana" font-size="6" fill="black" >
AT4G00380
</text>
<text x="9cm" y="2.3875cm" font-family="Verdana" font-size="6" fill="black" >
AT4G00390
</text>
<text x="10.625cm" y="2.3875cm" font-family="Verdana" font-size="6" fill="black" >
AT4G00400
</text>
<text x="12.25cm" y="2.3875cm" font-family="Verdana" font-size="6" fill="black" >
AT4G00416
</text>
<text x="13.875cm" y="2.3875cm" font-family="Verdana" font-size="6" fill="black" >
AT4G00420
</text>
<text x="15.5cm" y="2.3875cm" font-family="Verdana" font-size="6" fill="black" >
AT4G00430
</text>
<text x="23.625cm" y="2.3875cm" font-family="Verdana" font-size="6" fill="black" >
AT4G00440
</text>
<text x="25.25cm" y="2.3875cm" font-family="Verdana" font-size="6" fill="black" >
AT4G00450
</text>
<text x="26.875cm" y="2.3875cm" font-family="Verdana" font-size="6" fill="black" >
AT4G00460
</text>
<text x="28.5cm" y="2.3875cm" font-family="Verdana" font-size="6" fill="black" >
AT4G00480
</text>
<text x="30.125cm" y="2.3875cm" font-family="Verdana" font-size="6" fill="black" >
AT4G00490
</text>
<text x="31.75cm" y="2.3875cm" font-family="Verdana" font-size="6" fill="black" >
AT4G00500
</text>
<text x="33.375cm" y="2.3875cm" font-family="Verdana" font-size="6" fill="black" >
AT4G00510
</text>
<text x="35cm" y="2.3875cm" font-family="Verdana" font-size="6" fill="black" >
AT4G00525
</text>
<text x="36.625cm" y="2.3875cm" font-family="Verdana" font-size="6" fill="black" >
AT4G00530
</text>
<text x="38.25cm" y="2.3875cm" font-family="Verdana" font-size="6" fill="black" >
AT4G00540
</text>
<text x="39.875cm" y="2.3875cm" font-family="Verdana" font-size="6" fill="black" >
AT4G00550
</text>
<text x="41.5cm" y="2.3875cm" font-family="Verdana" font-size="6" fill="black" >
AT4G00560
</text>
<text x="43.125cm" y="2.3875cm" font-family="Verdana" font-size="6" fill="black" >
AT4G00570
</text>
<text x="44.75cm" y="2.3875cm" font-family="Verdana" font-size="6" fill="black" >
AT4G00580
</text>
<text x="46.375cm" y="2.3875cm" font-family="Verdana" font-size="6" fill="black" >
AT4G00585
</text>
<text x="48cm" y="2.3875cm" font-family="Verdana" font-size="6" fill="black" >
AT4G00590
</text>
<text x="49.625cm" y="2.3875cm" font-family="Verdana" font-size="6" fill="black" >
AT4G00600
</text>
<text x="51.25cm" y="2.3875cm" font-family="Verdana" font-size="6" fill="black" >
AT4G00610
</text>
<text x="52.875cm" y="2.3875cm" font-family="Verdana" font-size="6" fill="black" >
AT4G00630
</text>
<text x="54.5cm" y="2.3875cm" font-family="Verdana" font-size="6" fill="black" >
AT4G00640
</text>
<text x="56.125cm" y="2.3875cm" font-family="Verdana" font-size="6" fill="black" >
AT4G00650
</text>
<text x="57.75cm" y="2.3875cm" font-family="Verdana" font-size="6" fill="black" >
AT4G00660
</text>
<text x="59.375cm" y="2.3875cm" font-family="Verdana" font-size="6" fill="black" >
AT4G00670
</text>
<text x="61cm" y="2.3875cm" font-family="Verdana" font-size="6" fill="black" >
AT4G00680
</text>
<text x="62.625cm" y="2.3875cm" font-family="Verdana" font-size="6" fill="black" >
AT4G00690
</text>
<text x="64.25cm" y="2.3875cm" font-family="Verdana" font-size="6" fill="black" >
AT4G00695
</text>
<text x="65.875cm" y="2.3875cm" font-family="Verdana" font-size="6" fill="black" >
AT4G00700
</text>
<text x="67.5cm" y="2.3875cm" font-family="Verdana" font-size="6" fill="black" >
AT4G00710
</text>
<text x="69.125cm" y="2.3875cm" font-family="Verdana" font-size="6" fill="black" >
AT4G00720
</text>
<text x="70.75cm" y="2.3875cm" font-family="Verdana" font-size="6" fill="black" >
AT4G00730
</text>
<text x="72.375cm" y="2.3875cm" font-family="Verdana" font-size="6" fill="black" >
AT4G00740
</text>
<text x="2.5cm" y="4.5125cm" font-family="Verdana" font-size="6" fill="black" >
AT2G45980
</text>
<text x="4.125cm" y="4.5125cm" font-family="Verdana" font-size="6" fill="black" >
AT2G45970
</text>
<text x="15.5cm" y="4.5125cm" font-family="Verdana" font-size="6" fill="black" >
AT2G45960
</text>
<text x="17.125cm" y="4.5125cm" font-family="Verdana" font-size="6" fill="black" >
AT2G45950
</text>
<text x="18.75cm" y="4.5125cm" font-family="Verdana" font-size="6" fill="black" >
AT2G45930
</text>
<text x="20.375cm" y="4.5125cm" font-family="Verdana" font-size="6" fill="black" >
AT2G45920
</text>
<text x="22cm" y="4.5125cm" font-family="Verdana" font-size="6" fill="black" >
AT2G45910
</text>
<text x="23.625cm" y="4.5125cm" font-family="Verdana" font-size="6" fill="black" >
AT2G45900
</text>
<text x="26.875cm" y="4.5125cm" font-family="Verdana" font-size="6" fill="black" >
AT2G45890
</text>
<text x="30.125cm" y="4.5125cm" font-family="Verdana" font-size="6" fill="black" >
AT2G45880
</text>
<text x="35cm" y="4.5125cm" font-family="Verdana" font-size="6" fill="black" >
AT2G45870
</text>
<text x="39.875cm" y="4.5125cm" font-family="Verdana" font-size="6" fill="black" >
AT2G45860
</text>
<text x="43.125cm" y="4.5125cm" font-family="Verdana" font-size="6" fill="black" >
AT2G45850
</text>
<text x="48cm" y="4.5125cm" font-family="Verdana" font-size="6" fill="black" >
AT2G45830
</text>
<text x="52.875cm" y="4.5125cm" font-family="Verdana" font-size="6" fill="black" >
AT2G45820
</text>
<text x="57.75cm" y="4.5125cm" font-family="Verdana" font-size="6" fill="black" >
AT2G45810
</text>
<text x="59.375cm" y="4.5125cm" font-family="Verdana" font-size="6" fill="black" >
AT2G45800
</text>
<text x="62.625cm" y="4.5125cm" font-family="Verdana" font-size="6" fill="black" >
AT2G45790
</text>
<text x="64.25cm" y="4.5125cm" font-family="Verdana" font-size="6" fill="black" >
AT2G45780
</text>
<text x="67.5cm" y="4.5125cm" font-family="Verdana" font-size="6" fill="black" >
AT2G45770
</text>
<text x="69.125cm" y="4.5125cm" font-family="Verdana" font-size="6" fill="black" >
AT2G45760
</text>
<text x="72.375cm" y="4.5125cm" font-family="Verdana" font-size="6" fill="black" >
AT2G45750
</text>
<text x="0.5cm" y="3.0625cm" font-family="Verdana" font-size="25" fill="black" >
ath 4
</text>
<text x="0.5cm" y="5.1875cm" font-family="Verdana" font-size="25" fill="black" >
ath 2
</text>
<line x1="59.9375cm" y1="3.0625cm" x2="53.4375cm" y2="5.1875cm" stroke="black" stroke-width="2" />
</svg>
