<?xml version="1.0" standalone="yes"?>
<svg xmlns="http://www.w3.org/2000/svg" width="46.375cm" height="6.75cm" >
<rect x="2.5cm" y="2.5cm" width="1.125cm" height="1.125cm" fill="#362882" stroke-width="5" />
<circle cx="3.0625cm" cy="3.0625cm" r="0.225cm" />
<rect x="4.125cm" y="2.5cm" width="1.125cm" height="1.125cm" fill="#000" stroke-width="5" />
<circle cx="4.6875cm" cy="3.0625cm" r="0.225cm" />
<rect x="5.75cm" y="2.5cm" width="1.125cm" height="1.125cm" fill="#000" stroke-width="5" />
<circle cx="6.3125cm" cy="3.0625cm" r="0.225cm" />
<rect x="7.375cm" y="2.5cm" width="1.125cm" height="1.125cm" fill="#000" stroke-width="5" />
<circle cx="7.9375cm" cy="3.0625cm" r="0.225cm" />
<rect x="9cm" y="2.5cm" width="1.125cm" height="1.125cm" fill="#000" stroke-width="5" />
<circle cx="9.5625cm" cy="3.0625cm" r="0.225cm" />
<rect x="10.625cm" y="2.5cm" width="1.125cm" height="1.125cm" fill="#ffffff" stroke-width="5" />
<circle cx="11.1875cm" cy="3.0625cm" r="0.225cm" />
<rect x="12.25cm" y="2.5cm" width="1.125cm" height="1.125cm" fill="#000" stroke-width="5" />
<circle cx="12.8125cm" cy="3.0625cm" r="0.225cm" />
<rect x="13.875cm" y="2.5cm" width="1.125cm" height="1.125cm" fill="#000" stroke-width="5" />
<circle cx="14.4375cm" cy="3.0625cm" r="0.225cm" />
<rect x="15.5cm" y="2.5cm" width="1.125cm" height="1.125cm" fill="#000" stroke-width="5" />
<circle cx="16.0625cm" cy="3.0625cm" r="0.225cm" />
<rect x="17.125cm" y="2.5cm" width="1.125cm" height="1.125cm" fill="#38c528" stroke-width="5" />
<circle cx="17.6875cm" cy="3.0625cm" r="0.225cm" />
<rect x="18.75cm" y="2.5cm" width="1.125cm" height="1.125cm" fill="#ffffff" stroke-width="5" />
<circle cx="19.3125cm" cy="3.0625cm" r="0.225cm" />
<rect x="20.375cm" y="2.5cm" width="1.125cm" height="1.125cm" fill="#ffffff" stroke-width="5" />
<circle cx="20.9375cm" cy="3.0625cm" r="0.225cm" />
<rect x="22cm" y="2.5cm" width="1.125cm" height="1.125cm" fill="#ffffff" stroke-width="5" />
<circle cx="22.5625cm" cy="3.0625cm" r="0.225cm" />
<rect x="23.625cm" y="2.5cm" width="1.125cm" height="1.125cm" fill="#000" stroke-width="5" />
<circle cx="24.1875cm" cy="3.0625cm" r="0.225cm" />
<rect x="25.25cm" y="2.5cm" width="1.125cm" height="1.125cm" fill="#ffffff" stroke-width="5" />
<circle cx="25.8125cm" cy="3.0625cm" r="0.225cm" />
<rect x="26.875cm" y="2.5cm" width="1.125cm" height="1.125cm" fill="#ffffff" stroke-width="5" />
<circle cx="27.4375cm" cy="3.0625cm" r="0.225cm" />
<rect x="28.5cm" y="2.5cm" width="1.125cm" height="1.125cm" fill="#ffffff" stroke-width="5" />
<circle cx="29.0625cm" cy="3.0625cm" r="0.225cm" />
<rect x="30.125cm" y="2.5cm" width="1.125cm" height="1.125cm" fill="#000" stroke-width="5" />
<circle cx="30.6875cm" cy="3.0625cm" r="0.225cm" />
<rect x="31.75cm" y="2.5cm" width="1.125cm" height="1.125cm" fill="#ffffff" stroke-width="5" />
<circle cx="32.3125cm" cy="3.0625cm" r="0.225cm" />
<rect x="33.375cm" y="2.5cm" width="1.125cm" height="1.125cm" fill="#ffffff" stroke-width="5" />
<circle cx="33.9375cm" cy="3.0625cm" r="0.225cm" />
<rect x="35cm" y="2.5cm" width="1.125cm" height="1.125cm" fill="#ffffff" stroke-width="5" />
<circle cx="35.5625cm" cy="3.0625cm" r="0.225cm" />
<rect x="36.625cm" y="2.5cm" width="1.125cm" height="1.125cm" fill="#ffed87" stroke-width="5" />
<circle cx="37.1875cm" cy="3.0625cm" r="0.225cm" />
<rect x="38.25cm" y="2.5cm" width="1.125cm" height="1.125cm" fill="#ffffff" stroke-width="5" />
<circle cx="38.8125cm" cy="3.0625cm" r="0.225cm" />
<rect x="39.875cm" y="2.5cm" width="1.125cm" height="1.125cm" fill="#000" stroke-width="5" />
<circle cx="40.4375cm" cy="3.0625cm" r="0.225cm" />
<rect x="41.5cm" y="2.5cm" width="1.125cm" height="1.125cm" fill="#ffffff" stroke-width="5" />
<circle cx="42.0625cm" cy="3.0625cm" r="0.225cm" />
<rect x="43.125cm" y="2.5cm" width="1.125cm" height="1.125cm" fill="#ffffff" stroke-width="5" />
<circle cx="43.6875cm" cy="3.0625cm" r="0.225cm" />
<rect x="44.75cm" y="2.5cm" width="1.125cm" height="1.125cm" fill="#a8706d" stroke-width="5" />
<circle cx="45.3125cm" cy="3.0625cm" r="0.225cm" />
<rect x="2.5cm" y="4.625cm" width="1.125cm" height="1.125cm" fill="#362882" stroke-width="5" />
<circle cx="3.0625cm" cy="5.1875cm" r="0.225cm" />
<rect x="4.125cm" y="4.625cm" width="1.125cm" height="1.125cm" fill="#000" stroke-width="5" />
<circle cx="4.6875cm" cy="5.1875cm" r="0.225cm" />
<rect x="5.75cm" y="4.625cm" width="1.125cm" height="1.125cm" fill="#000" stroke-width="5" />
<circle cx="6.3125cm" cy="5.1875cm" r="0.225cm" />
<rect x="7.375cm" y="4.625cm" width="1.125cm" height="1.125cm" fill="#000" stroke-width="5" />
<circle cx="7.9375cm" cy="5.1875cm" r="0.225cm" />
<rect x="9cm" y="4.625cm" width="1.125cm" height="1.125cm" fill="#000" stroke-width="5" />
<circle cx="9.5625cm" cy="5.1875cm" r="0.225cm" />
<rect x="10.625cm" y="4.625cm" width="1.125cm" height="1.125cm" fill="#000" stroke-width="5" />
<circle cx="11.1875cm" cy="5.1875cm" r="0.225cm" />
<rect x="12.25cm" y="4.625cm" width="1.125cm" height="1.125cm" fill="#000" stroke-width="5" />
<circle cx="12.8125cm" cy="5.1875cm" r="0.225cm" />
<rect x="13.875cm" y="4.625cm" width="1.125cm" height="1.125cm" fill="#000" stroke-width="5" />
<circle cx="14.4375cm" cy="5.1875cm" r="0.225cm" />
<rect x="15.5cm" y="4.625cm" width="1.125cm" height="1.125cm" fill="#000" stroke-width="5" />
<circle cx="16.0625cm" cy="5.1875cm" r="0.225cm" />
<rect x="17.125cm" y="4.625cm" width="1.125cm" height="1.125cm" fill="#38c528" stroke-width="5" />
<circle cx="17.6875cm" cy="5.1875cm" r="0.225cm" />
<rect x="18.75cm" y="4.625cm" width="1.125cm" height="1.125cm" fill="#000" stroke-width="5" />
<circle cx="19.3125cm" cy="5.1875cm" r="0.225cm" />
<rect x="20.375cm" y="4.625cm" width="1.125cm" height="1.125cm" fill="#000" stroke-width="5" />
<circle cx="20.9375cm" cy="5.1875cm" r="0.225cm" />
<rect x="22cm" y="4.625cm" width="1.125cm" height="1.125cm" fill="#000" stroke-width="5" />
<circle cx="22.5625cm" cy="5.1875cm" r="0.225cm" />
<rect x="23.625cm" y="4.625cm" width="1.125cm" height="1.125cm" fill="#000" stroke-width="5" />
<circle cx="24.1875cm" cy="5.1875cm" r="0.225cm" />
<rect x="25.25cm" y="4.625cm" width="1.125cm" height="1.125cm" fill="#000" stroke-width="5" />
<circle cx="25.8125cm" cy="5.1875cm" r="0.225cm" />
<rect x="26.875cm" y="4.625cm" width="1.125cm" height="1.125cm" fill="#000" stroke-width="5" />
<circle cx="27.4375cm" cy="5.1875cm" r="0.225cm" />
<rect x="28.5cm" y="4.625cm" width="1.125cm" height="1.125cm" fill="#000" stroke-width="5" />
<circle cx="29.0625cm" cy="5.1875cm" r="0.225cm" />
<rect x="30.125cm" y="4.625cm" width="1.125cm" height="1.125cm" fill="#000" stroke-width="5" />
<circle cx="30.6875cm" cy="5.1875cm" r="0.225cm" />
<rect x="31.75cm" y="4.625cm" width="1.125cm" height="1.125cm" fill="#000" stroke-width="5" />
<circle cx="32.3125cm" cy="5.1875cm" r="0.225cm" />
<rect x="33.375cm" y="4.625cm" width="1.125cm" height="1.125cm" fill="#000" stroke-width="5" />
<circle cx="33.9375cm" cy="5.1875cm" r="0.225cm" />
<rect x="35cm" y="4.625cm" width="1.125cm" height="1.125cm" fill="#000" stroke-width="5" />
<circle cx="35.5625cm" cy="5.1875cm" r="0.225cm" />
<rect x="36.625cm" y="4.625cm" width="1.125cm" height="1.125cm" fill="#ffed87" stroke-width="5" />
<circle cx="37.1875cm" cy="5.1875cm" r="0.225cm" />
<rect x="38.25cm" y="4.625cm" width="1.125cm" height="1.125cm" fill="#000" stroke-width="5" />
<circle cx="38.8125cm" cy="5.1875cm" r="0.225cm" />
<rect x="39.875cm" y="4.625cm" width="1.125cm" height="1.125cm" fill="#000" stroke-width="5" />
<circle cx="40.4375cm" cy="5.1875cm" r="0.225cm" />
<rect x="41.5cm" y="4.625cm" width="1.125cm" height="1.125cm" fill="#000" stroke-width="5" />
<circle cx="42.0625cm" cy="5.1875cm" r="0.225cm" />
<rect x="43.125cm" y="4.625cm" width="1.125cm" height="1.125cm" fill="#000" stroke-width="5" />
<circle cx="43.6875cm" cy="5.1875cm" r="0.225cm" />
<rect x="44.75cm" y="4.625cm" width="1.125cm" height="1.125cm" fill="#a8706d" stroke-width="5" />
<circle cx="45.3125cm" cy="5.1875cm" r="0.225cm" />
<text x="2.5cm" y="2.3875cm" font-family="Verdana" font-size="6" fill="black" >
AT3G04010
</text>
<text x="4.125cm" y="2.3875cm" font-family="Verdana" font-size="6" fill="black" >
AT3G04020
</text>
<text x="5.75cm" y="2.3875cm" font-family="Verdana" font-size="6" fill="black" >
AT3G04030
</text>
<text x="7.375cm" y="2.3875cm" font-family="Verdana" font-size="6" fill="black" >
AT3G04040
</text>
<text x="9cm" y="2.3875cm" font-family="Verdana" font-size="6" fill="black" >
AT3G04050
</text>
<text x="12.25cm" y="2.3875cm" font-family="Verdana" font-size="6" fill="black" >
AT3G04060
</text>
<text x="13.875cm" y="2.3875cm" font-family="Verdana" font-size="6" fill="black" >
AT3G04080
</text>
<text x="15.5cm" y="2.3875cm" font-family="Verdana" font-size="6" fill="black" >
AT3G04090
</text>
<text x="17.125cm" y="2.3875cm" font-family="Verdana" font-size="6" fill="black" >
AT3G04100
</text>
<text x="23.625cm" y="2.3875cm" font-family="Verdana" font-size="6" fill="black" >
AT3G04110
</text>
<text x="30.125cm" y="2.3875cm" font-family="Verdana" font-size="6" fill="black" >
AT3G04120
</text>
<text x="36.625cm" y="2.3875cm" font-family="Verdana" font-size="6" fill="black" >
AT3G04130
</text>
<text x="39.875cm" y="2.3875cm" font-family="Verdana" font-size="6" fill="black" >
AT3G04140
</text>
<text x="44.75cm" y="2.3875cm" font-family="Verdana" font-size="6" fill="black" >
AT3G04150
</text>
<text x="2.5cm" y="4.5125cm" font-family="Verdana" font-size="6" fill="black" >
AT1G18650
</text>
<text x="4.125cm" y="4.5125cm" font-family="Verdana" font-size="6" fill="black" >
AT1G18660
</text>
<text x="5.75cm" y="4.5125cm" font-family="Verdana" font-size="6" fill="black" >
AT1G18670
</text>
<text x="7.375cm" y="4.5125cm" font-family="Verdana" font-size="6" fill="black" >
AT1G18680
</text>
<text x="9cm" y="4.5125cm" font-family="Verdana" font-size="6" fill="black" >
AT1G18690
</text>
<text x="10.625cm" y="4.5125cm" font-family="Verdana" font-size="6" fill="black" >
AT1G18700
</text>
<text x="12.25cm" y="4.5125cm" font-family="Verdana" font-size="6" fill="black" >
AT1G18720
</text>
<text x="13.875cm" y="4.5125cm" font-family="Verdana" font-size="6" fill="black" >
AT1G18730
</text>
<text x="15.5cm" y="4.5125cm" font-family="Verdana" font-size="6" fill="black" >
AT1G18740
</text>
<text x="17.125cm" y="4.5125cm" font-family="Verdana" font-size="6" fill="black" >
AT1G18750
</text>
<text x="18.75cm" y="4.5125cm" font-family="Verdana" font-size="6" fill="black" >
AT1G18760
</text>
<text x="20.375cm" y="4.5125cm" font-family="Verdana" font-size="6" fill="black" >
AT1G18790
</text>
<text x="22cm" y="4.5125cm" font-family="Verdana" font-size="6" fill="black" >
AT1G18800
</text>
<text x="23.625cm" y="4.5125cm" font-family="Verdana" font-size="6" fill="black" >
AT1G18810
</text>
<text x="25.25cm" y="4.5125cm" font-family="Verdana" font-size="6" fill="black" >
AT1G18830
</text>
<text x="26.875cm" y="4.5125cm" font-family="Verdana" font-size="6" fill="black" >
AT1G18840
</text>
<text x="28.5cm" y="4.5125cm" font-family="Verdana" font-size="6" fill="black" >
AT1G18850
</text>
<text x="30.125cm" y="4.5125cm" font-family="Verdana" font-size="6" fill="black" >
AT1G18860
</text>
<text x="31.75cm" y="4.5125cm" font-family="Verdana" font-size="6" fill="black" >
AT1G18870
</text>
<text x="33.375cm" y="4.5125cm" font-family="Verdana" font-size="6" fill="black" >
AT1G18880
</text>
<text x="35cm" y="4.5125cm" font-family="Verdana" font-size="6" fill="black" >
AT1G18890
</text>
<text x="36.625cm" y="4.5125cm" font-family="Verdana" font-size="6" fill="black" >
AT1G18900
</text>
<text x="38.25cm" y="4.5125cm" font-family="Verdana" font-size="6" fill="black" >
AT1G18910
</text>
<text x="39.875cm" y="4.5125cm" font-family="Verdana" font-size="6" fill="black" >
AT1G18940
</text>
<text x="41.5cm" y="4.5125cm" font-family="Verdana" font-size="6" fill="black" >
AT1G18950
</text>
<text x="43.125cm" y="4.5125cm" font-family="Verdana" font-size="6" fill="black" >
AT1G18960
</text>
<text x="44.75cm" y="4.5125cm" font-family="Verdana" font-size="6" fill="black" >
AT1G18970
</text>
<text x="0.5cm" y="3.0625cm" font-family="Verdana" font-size="25" fill="black" >
ath 3
</text>
<text x="0.5cm" y="5.1875cm" font-family="Verdana" font-size="25" fill="black" >
ath 1
</text>
</svg>
