<?xml version="1.0" standalone="yes"?>
<svg xmlns="http://www.w3.org/2000/svg" width="51.25cm" height="6.75cm" >
<rect x="2.5cm" y="2.5cm" width="1.125cm" height="1.125cm" fill="#11a862" stroke-width="5" />
<circle cx="3.0625cm" cy="3.0625cm" r="0.225cm" />
<rect x="4.125cm" y="2.5cm" width="1.125cm" height="1.125cm" fill="#000" stroke-width="5" />
<circle cx="4.6875cm" cy="3.0625cm" r="0.225cm" />
<rect x="5.75cm" y="2.5cm" width="1.125cm" height="1.125cm" fill="#ffffff" stroke-width="5" />
<circle cx="6.3125cm" cy="3.0625cm" r="0.225cm" />
<rect x="7.375cm" y="2.5cm" width="1.125cm" height="1.125cm" fill="#000" stroke-width="5" />
<circle cx="7.9375cm" cy="3.0625cm" r="0.225cm" />
<rect x="9cm" y="2.5cm" width="1.125cm" height="1.125cm" fill="#000" stroke-width="5" />
<circle cx="9.5625cm" cy="3.0625cm" r="0.225cm" />
<rect x="10.625cm" y="2.5cm" width="1.125cm" height="1.125cm" fill="#ffffff" stroke-width="5" />
<circle cx="11.1875cm" cy="3.0625cm" r="0.225cm" />
<rect x="12.25cm" y="2.5cm" width="1.125cm" height="1.125cm" fill="#000" stroke-width="5" />
<circle cx="12.8125cm" cy="3.0625cm" r="0.225cm" />
<rect x="13.875cm" y="2.5cm" width="1.125cm" height="1.125cm" fill="#000" stroke-width="5" />
<circle cx="14.4375cm" cy="3.0625cm" r="0.225cm" />
<rect x="15.5cm" y="2.5cm" width="1.125cm" height="1.125cm" fill="#ffffff" stroke-width="5" />
<circle cx="16.0625cm" cy="3.0625cm" r="0.225cm" />
<rect x="17.125cm" y="2.5cm" width="1.125cm" height="1.125cm" fill="#000" stroke-width="5" />
<circle cx="17.6875cm" cy="3.0625cm" r="0.225cm" />
<rect x="18.75cm" y="2.5cm" width="1.125cm" height="1.125cm" fill="#000" stroke-width="5" />
<circle cx="19.3125cm" cy="3.0625cm" r="0.225cm" />
<rect x="20.375cm" y="2.5cm" width="1.125cm" height="1.125cm" fill="#ffffff" stroke-width="5" />
<circle cx="20.9375cm" cy="3.0625cm" r="0.225cm" />
<rect x="22cm" y="2.5cm" width="1.125cm" height="1.125cm" fill="#000" stroke-width="5" />
<circle cx="22.5625cm" cy="3.0625cm" r="0.225cm" />
<rect x="23.625cm" y="2.5cm" width="1.125cm" height="1.125cm" fill="#000" stroke-width="5" />
<circle cx="24.1875cm" cy="3.0625cm" r="0.225cm" />
<rect x="25.25cm" y="2.5cm" width="1.125cm" height="1.125cm" fill="#ffffff" stroke-width="5" />
<circle cx="25.8125cm" cy="3.0625cm" r="0.225cm" />
<rect x="26.875cm" y="2.5cm" width="1.125cm" height="1.125cm" fill="#000" stroke-width="5" />
<circle cx="27.4375cm" cy="3.0625cm" r="0.225cm" />
<rect x="28.5cm" y="2.5cm" width="1.125cm" height="1.125cm" fill="#000" stroke-width="5" />
<circle cx="29.0625cm" cy="3.0625cm" r="0.225cm" />
<rect x="30.125cm" y="2.5cm" width="1.125cm" height="1.125cm" fill="#ffffff" stroke-width="5" />
<circle cx="30.6875cm" cy="3.0625cm" r="0.225cm" />
<rect x="31.75cm" y="2.5cm" width="1.125cm" height="1.125cm" fill="#000" stroke-width="5" />
<circle cx="32.3125cm" cy="3.0625cm" r="0.225cm" />
<rect x="33.375cm" y="2.5cm" width="1.125cm" height="1.125cm" fill="#000" stroke-width="5" />
<circle cx="33.9375cm" cy="3.0625cm" r="0.225cm" />
<rect x="35cm" y="2.5cm" width="1.125cm" height="1.125cm" fill="#ffffff" stroke-width="5" />
<circle cx="35.5625cm" cy="3.0625cm" r="0.225cm" />
<rect x="36.625cm" y="2.5cm" width="1.125cm" height="1.125cm" fill="#000" stroke-width="5" />
<circle cx="37.1875cm" cy="3.0625cm" r="0.225cm" />
<rect x="38.25cm" y="2.5cm" width="1.125cm" height="1.125cm" fill="#1dc5f1" stroke-width="5" />
<circle cx="38.8125cm" cy="3.0625cm" r="0.225cm" />
<rect x="39.875cm" y="2.5cm" width="1.125cm" height="1.125cm" fill="#000" stroke-width="5" />
<circle cx="40.4375cm" cy="3.0625cm" r="0.225cm" />
<rect x="41.5cm" y="2.5cm" width="1.125cm" height="1.125cm" fill="#000" stroke-width="5" />
<circle cx="42.0625cm" cy="3.0625cm" r="0.225cm" />
<rect x="43.125cm" y="2.5cm" width="1.125cm" height="1.125cm" fill="#cb4b73" stroke-width="5" />
<circle cx="43.6875cm" cy="3.0625cm" r="0.225cm" />
<rect x="44.75cm" y="2.5cm" width="1.125cm" height="1.125cm" fill="#ffffff" stroke-width="5" />
<circle cx="45.3125cm" cy="3.0625cm" r="0.225cm" />
<rect x="46.375cm" y="2.5cm" width="1.125cm" height="1.125cm" fill="#000" stroke-width="5" />
<circle cx="46.9375cm" cy="3.0625cm" r="0.225cm" />
<rect x="48cm" y="2.5cm" width="1.125cm" height="1.125cm" fill="#ffffff" stroke-width="5" />
<circle cx="48.5625cm" cy="3.0625cm" r="0.225cm" />
<rect x="49.625cm" y="2.5cm" width="1.125cm" height="1.125cm" fill="#85d29c" stroke-width="5" />
<circle cx="50.1875cm" cy="3.0625cm" r="0.225cm" />
<rect x="2.5cm" y="4.625cm" width="1.125cm" height="1.125cm" fill="#11a862" stroke-width="5" />
<circle cx="3.0625cm" cy="5.1875cm" r="0.225cm" />
<rect x="4.125cm" y="4.625cm" width="1.125cm" height="1.125cm" fill="#000" stroke-width="5" />
<circle cx="4.6875cm" cy="5.1875cm" r="0.225cm" />
<rect x="5.75cm" y="4.625cm" width="1.125cm" height="1.125cm" fill="#000" stroke-width="5" />
<circle cx="6.3125cm" cy="5.1875cm" r="0.225cm" />
<rect x="7.375cm" y="4.625cm" width="1.125cm" height="1.125cm" fill="#000" stroke-width="5" />
<circle cx="7.9375cm" cy="5.1875cm" r="0.225cm" />
<rect x="9cm" y="4.625cm" width="1.125cm" height="1.125cm" fill="#000" stroke-width="5" />
<circle cx="9.5625cm" cy="5.1875cm" r="0.225cm" />
<rect x="10.625cm" y="4.625cm" width="1.125cm" height="1.125cm" fill="#000" stroke-width="5" />
<circle cx="11.1875cm" cy="5.1875cm" r="0.225cm" />
<rect x="12.25cm" y="4.625cm" width="1.125cm" height="1.125cm" fill="#000" stroke-width="5" />
<circle cx="12.8125cm" cy="5.1875cm" r="0.225cm" />
<rect x="13.875cm" y="4.625cm" width="1.125cm" height="1.125cm" fill="#000" stroke-width="5" />
<circle cx="14.4375cm" cy="5.1875cm" r="0.225cm" />
<rect x="15.5cm" y="4.625cm" width="1.125cm" height="1.125cm" fill="#000" stroke-width="5" />
<circle cx="16.0625cm" cy="5.1875cm" r="0.225cm" />
<rect x="17.125cm" y="4.625cm" width="1.125cm" height="1.125cm" fill="#000" stroke-width="5" />
<circle cx="17.6875cm" cy="5.1875cm" r="0.225cm" />
<rect x="18.75cm" y="4.625cm" width="1.125cm" height="1.125cm" fill="#000" stroke-width="5" />
<circle cx="19.3125cm" cy="5.1875cm" r="0.225cm" />
<rect x="20.375cm" y="4.625cm" width="1.125cm" height="1.125cm" fill="#000" stroke-width="5" />
<circle cx="20.9375cm" cy="5.1875cm" r="0.225cm" />
<rect x="22cm" y="4.625cm" width="1.125cm" height="1.125cm" fill="#000" stroke-width="5" />
<circle cx="22.5625cm" cy="5.1875cm" r="0.225cm" />
<rect x="23.625cm" y="4.625cm" width="1.125cm" height="1.125cm" fill="#000" stroke-width="5" />
<circle cx="24.1875cm" cy="5.1875cm" r="0.225cm" />
<rect x="25.25cm" y="4.625cm" width="1.125cm" height="1.125cm" fill="#000" stroke-width="5" />
<circle cx="25.8125cm" cy="5.1875cm" r="0.225cm" />
<rect x="26.875cm" y="4.625cm" width="1.125cm" height="1.125cm" fill="#000" stroke-width="5" />
<circle cx="27.4375cm" cy="5.1875cm" r="0.225cm" />
<rect x="28.5cm" y="4.625cm" width="1.125cm" height="1.125cm" fill="#000" stroke-width="5" />
<circle cx="29.0625cm" cy="5.1875cm" r="0.225cm" />
<rect x="30.125cm" y="4.625cm" width="1.125cm" height="1.125cm" fill="#000" stroke-width="5" />
<circle cx="30.6875cm" cy="5.1875cm" r="0.225cm" />
<rect x="31.75cm" y="4.625cm" width="1.125cm" height="1.125cm" fill="#000" stroke-width="5" />
<circle cx="32.3125cm" cy="5.1875cm" r="0.225cm" />
<rect x="33.375cm" y="4.625cm" width="1.125cm" height="1.125cm" fill="#000" stroke-width="5" />
<circle cx="33.9375cm" cy="5.1875cm" r="0.225cm" />
<rect x="35cm" y="4.625cm" width="1.125cm" height="1.125cm" fill="#000" stroke-width="5" />
<circle cx="35.5625cm" cy="5.1875cm" r="0.225cm" />
<rect x="36.625cm" y="4.625cm" width="1.125cm" height="1.125cm" fill="#000" stroke-width="5" />
<circle cx="37.1875cm" cy="5.1875cm" r="0.225cm" />
<rect x="38.25cm" y="4.625cm" width="1.125cm" height="1.125cm" fill="#1dc5f1" stroke-width="5" />
<circle cx="38.8125cm" cy="5.1875cm" r="0.225cm" />
<rect x="39.875cm" y="4.625cm" width="1.125cm" height="1.125cm" fill="#000" stroke-width="5" />
<circle cx="40.4375cm" cy="5.1875cm" r="0.225cm" />
<rect x="41.5cm" y="4.625cm" width="1.125cm" height="1.125cm" fill="#ffffff" stroke-width="5" />
<circle cx="42.0625cm" cy="5.1875cm" r="0.225cm" />
<rect x="43.125cm" y="4.625cm" width="1.125cm" height="1.125cm" fill="#cb4b73" stroke-width="5" />
<circle cx="43.6875cm" cy="5.1875cm" r="0.225cm" />
<rect x="44.75cm" y="4.625cm" width="1.125cm" height="1.125cm" fill="#000" stroke-width="5" />
<circle cx="45.3125cm" cy="5.1875cm" r="0.225cm" />
<rect x="46.375cm" y="4.625cm" width="1.125cm" height="1.125cm" fill="#000" stroke-width="5" />
<circle cx="46.9375cm" cy="5.1875cm" r="0.225cm" />
<rect x="48cm" y="4.625cm" width="1.125cm" height="1.125cm" fill="#000" stroke-width="5" />
<circle cx="48.5625cm" cy="5.1875cm" r="0.225cm" />
<rect x="49.625cm" y="4.625cm" width="1.125cm" height="1.125cm" fill="#85d29c" stroke-width="5" />
<circle cx="50.1875cm" cy="5.1875cm" r="0.225cm" />
<text x="2.5cm" y="2.3875cm" font-family="Verdana" font-size="6" fill="black" >
AT4G21170
</text>
<text x="4.125cm" y="2.3875cm" font-family="Verdana" font-size="6" fill="black" >
AT4G21180
</text>
<text x="7.375cm" y="2.3875cm" font-family="Verdana" font-size="6" fill="black" >
AT4G21190
</text>
<text x="9cm" y="2.3875cm" font-family="Verdana" font-size="6" fill="black" >
AT4G21200
</text>
<text x="12.25cm" y="2.3875cm" font-family="Verdana" font-size="6" fill="black" >
AT4G21210
</text>
<text x="13.875cm" y="2.3875cm" font-family="Verdana" font-size="6" fill="black" >
AT4G21215
</text>
<text x="17.125cm" y="2.3875cm" font-family="Verdana" font-size="6" fill="black" >
AT4G21220
</text>
<text x="18.75cm" y="2.3875cm" font-family="Verdana" font-size="6" fill="black" >
AT4G21230
</text>
<text x="22cm" y="2.3875cm" font-family="Verdana" font-size="6" fill="black" >
AT4G21240
</text>
<text x="23.625cm" y="2.3875cm" font-family="Verdana" font-size="6" fill="black" >
AT4G21250
</text>
<text x="26.875cm" y="2.3875cm" font-family="Verdana" font-size="6" fill="black" >
AT4G21270
</text>
<text x="28.5cm" y="2.3875cm" font-family="Verdana" font-size="6" fill="black" >
AT4G21280
</text>
<text x="31.75cm" y="2.3875cm" font-family="Verdana" font-size="6" fill="black" >
AT4G21300
</text>
<text x="33.375cm" y="2.3875cm" font-family="Verdana" font-size="6" fill="black" >
AT4G21310
</text>
<text x="36.625cm" y="2.3875cm" font-family="Verdana" font-size="6" fill="black" >
AT4G21320
</text>
<text x="38.25cm" y="2.3875cm" font-family="Verdana" font-size="6" fill="black" >
AT4G21323
</text>
<text x="39.875cm" y="2.3875cm" font-family="Verdana" font-size="6" fill="black" >
AT4G21330
</text>
<text x="41.5cm" y="2.3875cm" font-family="Verdana" font-size="6" fill="black" >
AT4G21340
</text>
<text x="43.125cm" y="2.3875cm" font-family="Verdana" font-size="6" fill="black" >
AT4G21350
</text>
<text x="46.375cm" y="2.3875cm" font-family="Verdana" font-size="6" fill="black" >
AT4G21430
</text>
<text x="49.625cm" y="2.3875cm" font-family="Verdana" font-size="6" fill="black" >
AT4G21440
</text>
<text x="2.5cm" y="4.5125cm" font-family="Verdana" font-size="6" fill="black" >
AT5G67570
</text>
<text x="4.125cm" y="4.5125cm" font-family="Verdana" font-size="6" fill="black" >
AT5G67560
</text>
<text x="5.75cm" y="4.5125cm" font-family="Verdana" font-size="6" fill="black" >
AT5G67550
</text>
<text x="7.375cm" y="4.5125cm" font-family="Verdana" font-size="6" fill="black" >
AT5G67540
</text>
<text x="9cm" y="4.5125cm" font-family="Verdana" font-size="6" fill="black" >
AT5G67530
</text>
<text x="10.625cm" y="4.5125cm" font-family="Verdana" font-size="6" fill="black" >
AT5G67520
</text>
<text x="12.25cm" y="4.5125cm" font-family="Verdana" font-size="6" fill="black" >
AT5G67510
</text>
<text x="13.875cm" y="4.5125cm" font-family="Verdana" font-size="6" fill="black" >
AT5G67500
</text>
<text x="15.5cm" y="4.5125cm" font-family="Verdana" font-size="6" fill="black" >
AT5G67490
</text>
<text x="17.125cm" y="4.5125cm" font-family="Verdana" font-size="6" fill="black" >
AT5G67480
</text>
<text x="18.75cm" y="4.5125cm" font-family="Verdana" font-size="6" fill="black" >
AT5G67470
</text>
<text x="20.375cm" y="4.5125cm" font-family="Verdana" font-size="6" fill="black" >
AT5G67460
</text>
<text x="22cm" y="4.5125cm" font-family="Verdana" font-size="6" fill="black" >
AT5G67450
</text>
<text x="23.625cm" y="4.5125cm" font-family="Verdana" font-size="6" fill="black" >
AT5G67430
</text>
<text x="25.25cm" y="4.5125cm" font-family="Verdana" font-size="6" fill="black" >
AT5G67420
</text>
<text x="26.875cm" y="4.5125cm" font-family="Verdana" font-size="6" fill="black" >
AT5G67411
</text>
<text x="28.5cm" y="4.5125cm" font-family="Verdana" font-size="6" fill="black" >
AT5G67410
</text>
<text x="30.125cm" y="4.5125cm" font-family="Verdana" font-size="6" fill="black" >
AT5G67400
</text>
<text x="31.75cm" y="4.5125cm" font-family="Verdana" font-size="6" fill="black" >
AT5G67390
</text>
<text x="33.375cm" y="4.5125cm" font-family="Verdana" font-size="6" fill="black" >
AT5G67385
</text>
<text x="35cm" y="4.5125cm" font-family="Verdana" font-size="6" fill="black" >
AT5G67380
</text>
<text x="36.625cm" y="4.5125cm" font-family="Verdana" font-size="6" fill="black" >
AT5G67370
</text>
<text x="38.25cm" y="4.5125cm" font-family="Verdana" font-size="6" fill="black" >
AT5G67360
</text>
<text x="39.875cm" y="4.5125cm" font-family="Verdana" font-size="6" fill="black" >
AT5G67350
</text>
<text x="43.125cm" y="4.5125cm" font-family="Verdana" font-size="6" fill="black" >
AT5G67340
</text>
<text x="44.75cm" y="4.5125cm" font-family="Verdana" font-size="6" fill="black" >
AT5G67330
</text>
<text x="46.375cm" y="4.5125cm" font-family="Verdana" font-size="6" fill="black" >
AT5G67320
</text>
<text x="48cm" y="4.5125cm" font-family="Verdana" font-size="6" fill="black" >
AT5G67310
</text>
<text x="49.625cm" y="4.5125cm" font-family="Verdana" font-size="6" fill="black" >
AT5G67300
</text>
<text x="0.5cm" y="3.0625cm" font-family="Verdana" font-size="25" fill="black" >
ath 4
</text>
<text x="0.5cm" y="5.1875cm" font-family="Verdana" font-size="25" fill="black" >
ath 5
</text>
</svg>
